<?xml version="1.0" encoding="UTF-8" standalone="no"?><svg xmlns="http://www.w3.org/2000/svg" xmlns:xlink="http://www.w3.org/1999/xlink" clip-rule="evenodd" stroke-miterlimit="10" viewBox="0 0 189 34"><desc>SVG generated by Keynote</desc><defs></defs><g transform="matrix(1.00, 0.00, -0.00, -1.00, 0.0, 34.0)"><image xlink:href="../../6F52AF0B-6947-473B-BAA9-50A5E2A9A123/assets/D945142F722F948EDA8316E820408069.png" width="13.00" height="13.00" transform="matrix(1.00, 0.00, -0.00, -1.00, 2.0, 23.0)"></image><text xml:space="preserve" font-family="HelveticaNeue-Light,Helvetica Neue" font-size="26.2" fill="#0948AA" transform="matrix(1.00, 0.00, -0.00, -1.00, 1.8, 8.3)">•</text><image xlink:href="29A380849AF83C46D8AAE35403C18221.png" width="149.00" height="29.00" transform="matrix(1.00, 0.00, -0.00, -1.00, 39.0, 31.0)"></image><text xml:space="preserve" font-family="HelveticaNeue-Light,Helvetica Neue" font-size="35.0" fill="#0948AA" transform="matrix(1.00, 0.00, -0.00, -1.00, 37.8, 5.3)">H</text><text xml:space="preserve" font-family="HelveticaNeue-Light,Helvetica Neue" font-size="35.0" fill="#0948AA" transform="matrix(1.00, 0.00, -0.00, -1.00, 62.4, 5.3)">e</text><text xml:space="preserve" font-family="HelveticaNeue-Light,Helvetica Neue" font-size="35.0" fill="#0948AA" transform="matrix(1.00, 0.00, -0.00, -1.00, 80.6, 5.3)">a</text><text xml:space="preserve" font-family="HelveticaNeue-Light,Helvetica Neue" font-size="35.0" fill="#0948AA" transform="matrix(1.00, 0.00, -0.00, -1.00, 98.7, 5.3)">r</text><text xml:space="preserve" font-family="HelveticaNeue-Light,Helvetica Neue" font-size="35.0" fill="#0948AA" transform="matrix(1.00, 0.00, -0.00, -1.00, 109.8, 5.3)">t</text><text xml:space="preserve" font-family="HelveticaNeue-Light,Helvetica Neue" font-size="35.0" fill="#0948AA" transform="matrix(1.00, 0.00, -0.00, -1.00, 120.1, 5.3)"> </text><text xml:space="preserve" font-family="HelveticaNeue-Light,Helvetica Neue" font-size="35.0" fill="#0948AA" transform="matrix(1.00, 0.00, -0.00, -1.00, 129.8, 5.3)">r</text><text xml:space="preserve" font-family="HelveticaNeue-Light,Helvetica Neue" font-size="35.0" fill="#0948AA" transform="matrix(1.00, 0.00, -0.00, -1.00, 140.9, 5.3)">a</text><text xml:space="preserve" font-family="HelveticaNeue-Light,Helvetica Neue" font-size="35.0" fill="#0948AA" transform="matrix(1.00, 0.00, -0.00, -1.00, 159.0, 5.3)">t</text><text xml:space="preserve" font-family="HelveticaNeue-Light,Helvetica Neue" font-size="35.0" fill="#0948AA" transform="matrix(1.00, 0.00, -0.00, -1.00, 169.4, 5.3)">e</text></g></svg>