<?xml version="1.0" encoding="UTF-8" standalone="no"?><svg xmlns="http://www.w3.org/2000/svg" xmlns:xlink="http://www.w3.org/1999/xlink" clip-rule="evenodd" stroke-miterlimit="10" viewBox="0 0 409 58"><desc>SVG generated by Keynote</desc><defs></defs><g transform="matrix(1.00, 0.00, -0.00, -1.00, 0.0, 58.0)"><image xlink:href="F8113E518982B5E8B1FC9D5C520BDB81.png" width="407.00" height="56.00" transform="matrix(1.00, 0.00, -0.00, -1.00, 1.0, 57.0)"></image><text xml:space="preserve" font-family="HelveticaNeue-Light,Helvetica Neue" font-size="72.0" fill="#0948AA" transform="matrix(1.00, 0.00, -0.00, -1.00, 2.1, 4.4)">w</text><text xml:space="preserve" font-family="HelveticaNeue-Light,Helvetica Neue" font-size="72.0" fill="#0948AA" transform="matrix(1.00, 0.00, -0.00, -1.00, 55.4, 4.4)">a</text><text xml:space="preserve" font-family="HelveticaNeue-Light,Helvetica Neue" font-size="72.0" fill="#0948AA" transform="matrix(1.00, 0.00, -0.00, -1.00, 92.8, 4.4)">t</text><text xml:space="preserve" font-family="HelveticaNeue-Light,Helvetica Neue" font-size="72.0" fill="#0948AA" transform="matrix(1.00, 0.00, -0.00, -1.00, 114.1, 4.4)">c</text><text xml:space="preserve" font-family="HelveticaNeue-Light,Helvetica Neue" font-size="72.0" fill="#0948AA" transform="matrix(1.00, 0.00, -0.00, -1.00, 151.5, 4.4)">h</text><text xml:space="preserve" font-family="HelveticaNeue-Light,Helvetica Neue" font-size="72.0" fill="#0948AA" transform="matrix(1.00, 0.00, -0.00, -1.00, 190.1, 4.4)">O</text><text xml:space="preserve" font-family="HelveticaNeue-Light,Helvetica Neue" font-size="72.0" fill="#0948AA" transform="matrix(1.00, 0.00, -0.00, -1.00, 243.5, 4.4)">S</text><text xml:space="preserve" font-family="HelveticaNeue-Light,Helvetica Neue" font-size="72.0" fill="#0948AA" transform="matrix(1.00, 0.00, -0.00, -1.00, 288.8, 4.4)"> </text><text xml:space="preserve" font-family="HelveticaNeue-Light,Helvetica Neue" font-size="72.0" fill="#0948AA" transform="matrix(1.00, 0.00, -0.00, -1.00, 308.9, 4.4)">2</text><text xml:space="preserve" font-family="HelveticaNeue-Light,Helvetica Neue" font-size="72.0" fill="#0948AA" transform="matrix(1.00, 0.00, -0.00, -1.00, 348.9, 4.4)">.</text><text xml:space="preserve" font-family="HelveticaNeue-Light,Helvetica Neue" font-size="72.0" fill="#0948AA" transform="matrix(1.00, 0.00, -0.00, -1.00, 368.9, 4.4)">0</text></g></svg>