<?xml version="1.0" encoding="UTF-8" standalone="no"?><svg xmlns="http://www.w3.org/2000/svg" xmlns:xlink="http://www.w3.org/1999/xlink" clip-rule="evenodd" stroke-miterlimit="10" viewBox="0 0 1024 768"><desc>SVG generated by Keynote</desc><defs></defs><g transform="matrix(1.00, 0.00, -0.00, -1.00, 0.0, 768.0)"><path d="M 0.0 768.0 L 1024.0 768.0 L 1024.0 0.0 L 0.0 0.0 Z M 0.0 768.0 " fill="#FFFFFF"></path><path d="M 0.0 77.0 L 1024.0 77.0 L 1024.0 0.0 L 0.0 0.0 Z M -0.0 76.8 " fill="#0045AD"></path><text xml:space="preserve" font-family="ArialMT,Arial" font-size="9.0" fill="#4D93FF" transform="matrix(1.00, 0.00, -0.00, -1.00, 932.4, 8.3)">©</text><text xml:space="preserve" font-family="ArialMT,Arial" font-size="9.0" fill="#4D93FF" transform="matrix(1.00, 0.00, -0.00, -1.00, 939.0, 8.3)">2</text><text xml:space="preserve" font-family="ArialMT,Arial" font-size="9.0" fill="#4D93FF" transform="matrix(1.00, 0.00, -0.00, -1.00, 944.0, 8.3)">0</text><text xml:space="preserve" font-family="ArialMT,Arial" font-size="9.0" fill="#4D93FF" transform="matrix(1.00, 0.00, -0.00, -1.00, 949.0, 8.3)">1</text><text xml:space="preserve" font-family="ArialMT,Arial" font-size="9.0" fill="#4D93FF" transform="matrix(1.00, 0.00, -0.00, -1.00, 954.0, 8.3)">4</text><text xml:space="preserve" font-family="ArialMT,Arial" font-size="9.0" fill="#4D93FF" transform="matrix(1.00, 0.00, -0.00, -1.00, 959.1, 8.3)"> </text><text xml:space="preserve" font-family="ArialMT,Arial" font-size="9.0" fill="#4D93FF" transform="matrix(1.00, 0.00, -0.00, -1.00, 961.6, 8.3)">M</text><text xml:space="preserve" font-family="ArialMT,Arial" font-size="9.0" fill="#4D93FF" transform="matrix(1.00, 0.00, -0.00, -1.00, 969.0, 8.3)">F</text><text xml:space="preserve" font-family="ArialMT,Arial" font-size="9.0" fill="#4D93FF" transform="matrix(1.00, 0.00, -0.00, -1.00, 974.5, 8.3)">M</text><text xml:space="preserve" font-family="ArialMT,Arial" font-size="9.0" fill="#4D93FF" transform="matrix(1.00, 0.00, -0.00, -1.00, 982.0, 8.3)">E</text><text xml:space="preserve" font-family="ArialMT,Arial" font-size="9.0" fill="#4D93FF" transform="matrix(1.00, 0.00, -0.00, -1.00, 988.0, 8.3)">R</text><text xml:space="preserve" font-family="ArialMT,Arial" font-size="9.0" fill="#4D93FF" transform="matrix(1.00, 0.00, -0.00, -1.00, 994.5, 8.3)"> </text><text xml:space="preserve" font-family="ArialMT,Arial" font-size="9.0" fill="#4D93FF" transform="matrix(1.00, 0.00, -0.00, -1.00, 997.0, 8.3)"> </text><text xml:space="preserve" font-family="ArialMT,Arial" font-size="9.0" fill="#4D93FF" transform="matrix(1.00, 0.00, -0.00, -1.00, 999.5, 8.3)">|</text><g><clipPath id="clip0x7fcf556ef5d0"><path d="M 19.6 10.2 L 54.5 10.2 L 54.5 38.5 L 19.6 38.5 Z M 19.6 10.2 "></path></clipPath><g clip-path="url(#clip0x7fcf556ef5d0)"><path d="M 46.5 38.0 C 39.6 37.5 39.6 37.5 39.6 37.5 C 39.6 29.6 39.6 29.6 39.6 29.6 C 39.6 26.1 40.9 23.6 43.0 21.8 C 43.0 22.9 43.0 22.9 43.0 22.9 C 41.4 24.8 41.1 26.9 41.1 28.7 C 41.1 30.7 41.1 30.7 41.1 30.7 C 43.8 30.7 43.8 30.7 43.8 30.7 C 43.8 21.8 43.8 21.8 43.8 21.8 C 43.8 18.5 42.9 14.4 37.1 11.8 C 31.5 14.3 30.4 18.2 30.3 21.3 C 33.0 23.1 34.5 25.7 34.5 29.6 C 34.5 30.7 34.5 30.7 34.5 30.7 C 37.1 30.7 37.1 30.7 37.1 30.7 C 38.8 30.7 38.8 30.7 38.8 30.7 C 38.8 32.4 38.8 32.4 38.8 32.4 C 37.1 32.4 37.1 32.4 37.1 32.4 C 34.5 32.4 34.5 32.4 34.5 32.4 C 32.9 32.4 32.9 32.4 32.9 32.4 C 28.8 32.4 28.8 32.4 28.8 32.4 C 28.8 22.9 28.8 22.9 28.8 22.9 C 28.8 22.7 28.8 22.3 28.8 22.0 C 29.4 22.4 29.9 22.8 30.3 23.3 C 30.3 30.7 30.3 30.7 30.3 30.7 C 32.9 30.7 32.9 30.7 32.9 30.7 C 32.9 28.7 32.9 28.7 32.9 28.7 C 32.9 26.0 32.3 22.7 27.5 20.5 C 22.7 22.7 22.2 26.0 22.2 28.7 C 22.2 35.9 22.2 35.9 22.2 35.9 C 27.5 35.9 27.5 35.9 27.5 35.9 C 32.9 35.9 32.9 35.9 32.9 35.9 C 32.9 33.1 32.9 33.1 32.9 33.1 C 34.5 33.1 34.5 33.1 34.5 33.1 C 34.5 37.5 34.5 37.5 34.5 37.5 C 27.5 37.5 27.5 37.5 27.5 37.5 C 20.6 37.5 20.6 37.5 20.6 37.5 C 20.6 29.6 20.6 29.6 20.6 29.6 C 20.6 24.4 23.2 21.6 27.5 19.9 C 28.0 20.1 28.5 20.3 29.0 20.5 C 29.7 15.8 32.6 12.9 37.1 11.2 C 41.5 12.9 44.4 15.7 45.3 20.5 C 45.6 20.3 46.1 20.1 46.5 19.9 C 50.9 21.6 53.5 24.4 53.5 29.6 C 53.5 37.5 53.5 38.0 53.5 38.0 L 46.5 38.0 Z M 52.0 28.7 C 51.9 26.0 51.4 22.7 46.5 20.5 C 46.1 20.6 45.7 20.8 45.4 21.1 C 45.4 21.7 45.4 22.3 45.4 22.9 C 45.4 32.4 45.4 32.4 45.4 32.4 C 41.1 32.4 41.1 32.4 41.1 32.4 C 41.1 35.9 41.1 35.9 41.1 35.9 C 46.5 35.9 46.5 35.9 46.5 35.9 C 51.9 35.9 52.0 35.9 52.0 35.9 L 52.0 28.7 Z M 51.9 28.7 " fill="#FFFFFF"></path></g></g><g><clipPath id="clip0x7fcf556f5aa0"><path d="M 22.1 40.8 L 31.2 40.8 L 31.2 51.7 L 22.1 51.7 Z M 22.1 40.8 "></path></clipPath><g clip-path="url(#clip0x7fcf556f5aa0)"><path d="M 23.7 41.8 C 23.7 42.1 23.7 42.1 23.7 42.1 C 24.0 42.2 24.1 42.3 24.2 42.4 C 24.2 42.4 24.2 42.5 24.3 42.5 C 24.3 42.7 24.3 42.9 24.3 43.3 C 24.4 43.9 24.4 44.2 24.4 44.4 C 24.4 47.7 24.4 47.7 24.4 47.7 C 24.4 48.3 24.4 48.8 24.3 49.4 C 24.3 49.7 24.3 50.0 24.2 50.1 C 24.2 50.1 24.1 50.2 24.0 50.2 C 24.0 50.3 23.6 50.3 23.1 50.3 C 23.1 50.7 23.1 50.7 23.1 50.7 C 24.1 50.7 24.8 50.7 25.1 50.7 C 25.4 50.7 26.0 50.7 26.9 50.7 C 26.9 50.3 26.9 50.3 26.9 50.3 C 26.5 50.3 26.1 50.3 26.0 50.2 C 25.9 50.2 25.8 50.1 25.8 50.1 C 25.7 50.0 25.7 49.8 25.7 49.5 C 25.6 49.4 25.6 48.8 25.6 47.7 C 25.6 43.4 25.6 43.4 25.6 43.4 C 25.6 43.1 25.6 42.7 25.7 42.4 C 26.2 42.4 26.2 42.3 26.8 42.3 C 28.0 42.3 28.9 42.4 29.4 42.6 C 29.5 42.7 29.5 42.9 29.6 43.1 C 29.8 44.1 29.8 44.1 29.8 44.1 C 30.2 44.1 30.2 44.1 30.2 44.1 C 30.1 43.4 30.0 42.7 29.9 41.9 C 29.8 41.9 29.7 41.9 29.6 41.8 C 29.3 41.8 29.0 41.8 28.4 41.8 C 25.0 41.9 25.0 41.9 25.0 41.9 C 24.5 41.9 24.1 41.9 23.7 41.8 Z M 23.7 41.8 " fill="#FFFFFF"></path></g></g><g><clipPath id="clip0x7fcf556f6a90"><path d="M 29.9 40.8 L 35.8 40.8 L 35.8 51.7 L 29.9 51.7 Z M 29.9 40.8 "></path></clipPath><g clip-path="url(#clip0x7fcf556f6a90)"><path d="M 34.8 42.2 C 34.8 41.8 34.8 41.8 34.8 41.8 C 33.9 41.9 33.3 41.9 33.0 41.9 C 30.9 41.8 30.9 41.8 30.9 41.8 C 30.9 42.2 30.9 42.2 30.9 42.2 C 31.5 42.2 31.8 42.2 31.9 42.2 C 32.1 42.3 32.1 42.3 32.1 42.4 C 32.1 42.5 32.2 42.7 32.2 43.0 C 32.2 43.1 32.2 43.7 32.2 44.8 C 32.2 47.7 32.2 47.7 32.2 47.7 C 32.2 48.3 32.2 48.8 32.2 49.4 C 32.2 49.7 32.1 50.0 32.1 50.1 C 32.1 50.1 32.1 50.2 31.9 50.2 C 31.8 50.3 31.5 50.3 30.9 50.3 C 30.9 50.7 30.9 50.7 30.9 50.7 C 31.8 50.7 32.4 50.7 32.9 50.7 C 33.4 50.7 34.0 50.7 34.8 50.7 C 34.8 50.3 34.8 50.3 34.8 50.3 C 34.3 50.3 34.0 50.3 33.9 50.2 C 33.7 50.2 33.7 50.1 33.6 50.1 C 33.6 50.0 33.5 49.8 33.5 49.5 C 33.5 49.4 33.5 48.8 33.5 47.7 C 33.5 44.8 33.5 44.8 33.5 44.8 C 33.5 44.3 33.5 43.7 33.5 43.2 C 33.5 42.7 33.5 42.5 33.6 42.4 C 33.6 42.3 33.7 42.3 33.9 42.2 C 34.0 42.2 34.3 42.2 34.8 42.2 Z M 33.5 49.5 C 33.5 49.4 33.5 48.8 33.5 47.7 C 33.5 44.8 33.5 44.8 33.5 44.8 " fill="#FFFFFF"></path></g></g><g><clipPath id="clip0x7fcf556f7a80"><path d="M 35.3 40.6 L 47.4 40.6 L 47.4 51.7 L 35.3 51.7 Z M 35.3 40.6 "></path></clipPath><g clip-path="url(#clip0x7fcf556f7a80)"><path d="M 36.3 41.8 C 36.3 42.2 36.3 42.2 36.3 42.2 C 36.7 42.2 37.0 42.2 37.2 42.3 C 37.3 42.3 37.3 42.3 37.3 42.4 C 37.4 42.5 37.4 42.7 37.4 43.1 C 37.5 43.6 37.5 44.1 37.5 44.5 C 37.5 49.6 37.5 49.6 37.5 49.6 C 37.5 49.7 37.5 49.8 37.5 49.8 C 37.4 49.9 37.3 50.0 37.2 50.1 C 37.1 50.2 37.0 50.2 36.9 50.3 C 36.8 50.3 36.5 50.3 36.3 50.3 C 36.3 50.7 36.3 50.7 36.3 50.7 C 37.0 50.7 37.5 50.7 37.6 50.7 C 38.0 50.7 38.3 50.7 38.6 50.7 C 39.0 50.2 39.2 49.9 39.4 49.6 C 40.7 48.1 40.7 48.1 40.7 48.1 C 42.7 45.9 42.7 45.9 42.7 45.9 C 43.2 45.1 43.8 44.6 44.1 44.1 C 44.3 43.8 44.6 43.6 44.7 43.5 C 44.7 48.0 44.7 48.0 44.7 48.0 C 44.7 48.4 44.7 48.9 44.7 49.5 C 44.7 49.8 44.6 50.0 44.6 50.1 C 44.6 50.1 44.5 50.2 44.5 50.2 C 44.3 50.3 44.0 50.3 43.6 50.3 C 43.6 50.7 43.6 50.7 43.6 50.7 C 44.0 50.7 44.6 50.7 45.1 50.7 C 45.6 50.7 46.0 50.7 46.4 50.7 C 46.4 50.3 46.4 50.3 46.4 50.3 C 45.9 50.3 45.7 50.3 45.6 50.2 C 45.5 50.2 45.5 50.1 45.4 50.1 C 45.4 50.0 45.3 49.7 45.3 49.5 C 45.3 48.9 45.3 48.4 45.3 48.0 C 45.3 45.0 45.3 45.0 45.3 45.0 C 45.3 44.4 45.3 43.3 45.3 41.6 C 44.7 41.6 44.7 41.6 44.7 41.6 C 44.6 41.8 44.6 41.8 44.6 41.8 C 44.5 41.8 44.5 41.9 44.4 41.9 C 44.4 41.9 44.3 42.0 44.2 42.1 C 43.8 42.5 43.6 42.8 43.4 43.0 C 42.6 44.0 42.6 44.0 42.6 44.0 C 38.0 49.4 38.0 49.4 38.0 49.4 C 38.0 44.6 38.0 44.6 38.0 44.6 C 38.0 44.1 38.0 43.6 38.1 43.1 C 38.1 42.7 38.1 42.5 38.1 42.4 C 38.2 42.3 38.2 42.3 38.3 42.3 C 38.4 42.2 38.7 42.2 39.2 42.2 C 39.2 41.8 39.2 41.8 39.2 41.8 C 38.8 41.9 38.4 41.9 37.9 41.9 C 37.5 41.9 36.9 41.9 36.3 41.8 Z M 36.3 41.8 " fill="#FFFFFF"></path></g></g><g><clipPath id="clip0x7fcf556f8a80"><path d="M 46.6 40.8 L 52.4 40.8 L 52.4 51.7 L 46.6 51.7 Z M 46.6 40.8 "></path></clipPath><g clip-path="url(#clip0x7fcf556f8a80)"><path d="M 51.4 42.2 C 51.4 41.8 51.4 41.8 51.4 41.8 C 50.5 41.9 49.8 41.9 49.6 41.9 C 47.6 41.8 47.6 41.8 47.6 41.8 C 47.6 42.2 47.6 42.2 47.6 42.2 C 48.1 42.2 48.4 42.2 48.6 42.2 C 48.6 42.3 48.7 42.3 48.7 42.4 C 48.8 42.5 48.8 42.7 48.8 43.0 C 48.8 43.1 48.8 43.7 48.9 44.8 C 48.9 47.7 48.9 47.7 48.9 47.7 C 48.9 48.3 48.8 48.8 48.8 49.4 C 48.8 49.7 48.8 50.0 48.7 50.1 C 48.7 50.1 48.6 50.2 48.6 50.2 C 48.4 50.3 48.1 50.3 47.6 50.3 C 47.6 50.7 47.6 50.7 47.6 50.7 C 48.5 50.7 49.0 50.7 49.5 50.7 C 49.9 50.7 50.6 50.7 51.4 50.7 C 51.4 50.3 51.4 50.3 51.4 50.3 C 50.8 50.3 50.6 50.3 50.5 50.2 C 50.4 50.2 50.3 50.1 50.2 50.1 C 50.2 50.0 50.1 49.8 50.1 49.5 C 50.1 49.4 50.1 48.8 50.1 47.7 C 50.1 44.8 50.1 44.8 50.1 44.8 C 50.1 44.3 50.1 43.7 50.1 43.2 C 50.1 42.7 50.2 42.5 50.2 42.4 C 50.3 42.3 50.4 42.3 50.5 42.2 C 50.6 42.2 50.8 42.2 51.4 42.2 Z M 51.4 42.2 " fill="#FFFFFF"></path></g></g><g><clipPath id="clip0x7fcf556f9d40"><path d="M 50.9 40.6 L 61.6 40.6 L 61.6 51.8 L 50.9 51.8 Z M 50.9 40.6 "></path></clipPath><g clip-path="url(#clip0x7fcf556f9d40)"><path d="M 60.4 43.1 C 60.3 42.3 60.3 42.3 60.3 42.3 C 59.8 42.1 59.3 41.9 58.9 41.8 C 58.3 41.7 57.8 41.6 57.2 41.6 C 56.5 41.6 55.9 41.7 55.3 41.9 C 54.8 42.1 54.2 42.2 53.9 42.6 C 53.4 42.9 53.0 43.2 52.7 43.6 C 52.5 44.0 52.3 44.4 52.1 44.8 C 52.0 45.2 51.9 45.8 51.9 46.2 C 51.9 47.6 52.4 48.6 53.4 49.6 C 54.3 50.4 55.7 50.8 57.4 50.8 C 57.7 50.8 58.1 50.8 58.5 50.8 C 58.8 50.8 59.2 50.7 59.7 50.6 C 60.2 50.4 60.4 50.3 60.6 50.3 C 60.5 50.1 60.4 49.8 60.3 49.6 C 60.3 49.3 60.3 48.9 60.3 48.4 C 59.8 48.4 59.8 48.4 59.8 48.4 C 59.8 49.2 59.8 49.2 59.8 49.2 C 59.8 49.6 59.5 49.8 59.1 50.0 C 58.7 50.3 58.0 50.4 57.2 50.4 C 56.6 50.4 56.1 50.3 55.6 50.1 C 55.2 50.0 54.8 49.7 54.5 49.5 C 54.1 49.2 53.9 48.7 53.7 48.3 C 53.5 47.8 53.4 47.2 53.4 46.5 C 53.4 45.2 53.8 44.2 54.6 43.4 C 55.3 42.7 56.5 42.3 57.7 42.3 C 58.4 42.3 59.0 42.4 59.4 42.5 C 59.8 42.6 60.2 42.8 60.4 43.1 L 60.4 43.1 Z M 60.6 42.9 " fill="#FFFFFF"></path></g></g><g><clipPath id="clip0x7fcf556fb130"><path d="M 12.5 40.6 L 23.2 40.6 L 23.2 51.8 L 12.5 51.8 Z M 12.5 40.6 "></path></clipPath><g clip-path="url(#clip0x7fcf556fb130)"><path d="M 22.0 43.1 C 21.9 42.3 21.9 42.3 21.9 42.3 C 21.4 42.1 20.9 41.9 20.5 41.8 C 19.9 41.7 19.4 41.6 18.8 41.6 C 18.1 41.6 17.5 41.7 16.9 41.9 C 16.4 42.1 15.8 42.2 15.5 42.6 C 15.0 42.9 14.6 43.2 14.3 43.6 C 14.1 44.0 13.9 44.4 13.7 44.8 C 13.6 45.2 13.5 45.8 13.5 46.2 C 13.5 47.6 14.0 48.6 15.0 49.6 C 15.9 50.4 17.3 50.8 19.0 50.8 C 19.3 50.8 19.7 50.8 20.1 50.8 C 20.4 50.8 20.8 50.7 21.3 50.6 C 21.8 50.4 22.0 50.3 22.2 50.3 C 22.1 50.1 22.0 49.8 21.9 49.6 C 21.9 49.3 21.9 48.9 21.9 48.4 C 21.5 48.4 21.5 48.4 21.5 48.4 C 21.4 49.2 21.4 49.2 21.4 49.2 C 21.4 49.6 21.1 49.8 20.7 50.0 C 20.3 50.3 19.6 50.4 18.8 50.4 C 18.2 50.4 17.7 50.3 17.2 50.1 C 16.8 50.0 16.4 49.7 16.1 49.5 C 15.7 49.2 15.5 48.7 15.3 48.3 C 15.1 47.8 15.0 47.2 15.0 46.5 C 15.0 45.2 15.4 44.2 16.2 43.4 C 16.9 42.7 18.1 42.3 19.3 42.3 C 20.0 42.3 20.6 42.4 21.0 42.5 C 21.4 42.6 21.8 42.8 22.0 43.1 L 22.0 43.1 Z M 22.2 42.9 " fill="#FFFFFF"></path></g></g><g><clipPath id="clip0x7fcf55b00830"><path d="M 16.2 52.5 L 30.2 52.5 L 30.2 63.4 L 16.2 63.4 Z M 16.2 52.5 "></path></clipPath><g clip-path="url(#clip0x7fcf55b00830)"><path d="M 17.2 62.0 C 17.2 62.4 17.2 62.4 17.2 62.4 C 17.6 62.4 18.1 62.4 18.5 62.4 C 18.9 62.4 19.4 62.4 19.7 62.4 C 20.1 61.6 20.5 60.8 20.7 60.2 C 23.2 55.4 23.2 55.4 23.2 55.4 C 25.4 59.8 25.4 59.8 25.4 59.8 C 26.0 61.0 26.4 61.9 26.6 62.4 C 27.0 62.4 27.5 62.4 27.8 62.4 C 28.1 62.4 28.5 62.4 29.2 62.4 C 29.2 62.0 29.2 62.0 29.2 62.0 C 28.7 62.0 28.3 61.9 28.2 61.9 C 28.1 61.9 28.1 61.8 28.1 61.8 C 28.0 61.7 28.0 61.5 28.0 61.2 C 27.9 61.1 27.9 60.6 27.9 59.5 C 27.9 56.6 27.9 56.6 27.9 56.6 C 27.9 56.1 27.9 55.5 28.0 55.0 C 28.0 54.6 28.0 54.3 28.1 54.2 C 28.1 54.2 28.1 54.2 28.2 54.2 C 28.3 54.1 28.7 54.1 29.2 54.1 C 29.2 53.7 29.2 53.7 29.2 53.7 C 28.3 53.7 27.7 53.7 27.3 53.7 C 27.0 53.7 26.4 53.7 25.4 53.7 C 25.4 54.1 25.4 54.1 25.4 54.1 C 25.9 54.1 26.2 54.1 26.4 54.2 C 26.5 54.2 26.6 54.2 26.6 54.2 C 26.7 54.3 26.7 54.5 26.7 54.9 C 26.7 55.0 26.7 55.5 26.7 56.6 C 26.7 61.1 26.7 61.1 26.7 61.1 C 24.5 56.7 24.5 56.7 24.5 56.7 C 24.1 56.0 23.8 55.4 23.7 55.0 C 23.6 54.7 23.3 54.2 23.0 53.5 C 22.7 53.5 22.7 53.5 22.7 53.5 C 22.7 53.7 22.7 53.8 22.7 53.9 C 22.2 54.8 22.2 54.8 22.2 54.8 C 19.1 60.9 19.1 60.9 19.1 60.9 C 19.1 56.6 19.1 56.6 19.1 56.6 C 19.1 56.1 19.1 55.5 19.1 55.0 C 19.2 54.6 19.2 54.3 19.3 54.2 C 19.3 54.2 19.4 54.2 19.4 54.2 C 19.5 54.1 19.9 54.1 20.4 54.1 C 20.4 53.7 20.4 53.7 20.4 53.7 C 18.8 53.7 18.8 53.7 18.8 53.7 C 17.2 53.7 17.2 53.7 17.2 53.7 C 17.2 54.1 17.2 54.1 17.2 54.1 C 17.7 54.1 18.0 54.1 18.2 54.2 C 18.3 54.2 18.3 54.2 18.3 54.2 C 18.4 54.3 18.4 54.5 18.4 54.9 C 18.4 55.0 18.4 55.5 18.5 56.6 C 18.5 59.5 18.5 59.5 18.5 59.5 C 18.5 60.0 18.4 60.6 18.4 61.1 C 18.4 61.5 18.4 61.7 18.3 61.8 C 18.3 61.8 18.3 61.9 18.2 61.9 C 18.0 61.9 17.7 62.0 17.2 62.0 Z M 17.2 62.0 " fill="#FFFFFF"></path></g></g><g><clipPath id="clip0x7fcf55b01480"><path d="M 28.7 52.7 L 40.5 52.7 L 40.5 63.6 L 28.7 63.6 Z M 28.7 52.7 "></path></clipPath><g clip-path="url(#clip0x7fcf55b01480)"><path d="M 31.1 53.7 C 31.4 53.7 32.0 53.7 32.7 53.7 C 32.7 54.1 32.7 54.1 32.7 54.1 C 32.2 54.1 32.0 54.1 31.9 54.1 C 31.7 54.2 31.7 54.2 31.6 54.2 C 31.6 54.2 31.6 54.3 31.6 54.3 C 31.6 54.5 31.6 54.7 31.8 55.0 C 32.4 56.6 32.4 56.6 32.4 56.6 C 36.2 56.6 36.2 56.6 36.2 56.6 C 37.0 54.7 37.0 54.7 37.0 54.7 C 37.1 54.5 37.1 54.4 37.1 54.3 C 37.1 54.2 37.1 54.2 37.0 54.2 C 37.0 54.2 36.9 54.2 36.8 54.1 C 36.7 54.1 36.5 54.1 35.9 54.1 C 35.9 53.7 35.9 53.7 35.9 53.7 C 38.0 53.7 38.0 53.7 38.0 53.7 C 38.3 53.7 38.7 53.7 39.5 53.7 C 39.5 54.1 39.5 54.1 39.5 54.1 C 39.1 54.1 38.8 54.1 38.7 54.2 C 38.6 54.2 38.6 54.2 38.5 54.4 C 38.4 54.7 38.1 55.3 37.6 56.3 C 34.8 62.6 34.8 62.6 34.8 62.6 C 34.4 62.6 34.4 62.6 34.4 62.6 C 33.9 61.3 33.5 60.4 33.3 60.0 C 31.7 56.5 31.7 56.5 31.7 56.5 C 31.2 55.4 30.9 54.9 30.9 54.7 C 30.7 54.4 30.6 54.2 30.5 54.2 C 30.4 54.2 30.4 54.2 30.3 54.1 C 30.2 54.1 30.0 54.1 29.7 54.1 C 29.7 53.7 29.7 53.7 29.7 53.7 C 30.1 53.7 30.6 53.7 31.1 53.7 Z M 34.3 60.9 C 35.9 57.1 35.9 57.1 35.9 57.1 C 32.7 57.1 32.7 57.1 32.7 57.1 L 34.3 60.9 Z M 34.3 60.9 " fill="#FFFFFF"></path></g></g><g><clipPath id="clip0x7fcf55b020a0"><path d="M 36.7 53.6 L 47.4 53.6 L 47.4 63.4 L 36.7 63.4 Z M 36.7 53.6 "></path></clipPath><g clip-path="url(#clip0x7fcf55b020a0)"><path d="M 44.1 61.2 C 44.3 61.6 44.5 61.8 44.5 61.8 C 44.5 61.9 44.4 62.0 44.3 62.0 C 44.2 62.0 43.9 62.1 43.5 62.1 C 43.5 62.4 43.5 62.4 43.5 62.4 C 44.2 62.4 44.7 62.4 45.1 62.4 C 45.4 62.4 45.7 62.4 46.4 62.4 C 46.4 62.1 46.4 62.1 46.4 62.1 C 46.0 62.1 45.7 62.0 45.7 62.0 C 45.6 62.0 45.4 61.9 45.3 61.8 C 45.2 61.8 45.1 61.6 44.9 61.3 C 43.2 58.9 43.2 58.9 43.2 58.9 C 42.8 58.4 42.7 58.0 42.6 58.0 C 42.6 57.8 42.6 57.7 42.6 57.6 C 42.6 57.2 42.6 57.2 42.6 57.2 C 42.6 56.7 42.6 56.2 42.6 55.7 C 42.6 55.4 42.7 55.2 42.7 55.1 C 42.7 55.1 42.7 55.0 42.9 55.0 C 43.0 54.9 43.2 54.9 43.7 54.9 C 43.7 54.6 43.7 54.6 43.7 54.6 C 43.1 54.6 42.5 54.6 42.1 54.6 C 41.6 54.6 41.0 54.6 40.3 54.6 C 40.3 54.9 40.3 54.9 40.3 54.9 C 40.8 54.9 41.0 54.9 41.2 55.0 C 41.3 55.0 41.3 55.0 41.3 55.1 C 41.4 55.2 41.4 55.3 41.4 55.6 C 41.4 55.7 41.4 56.2 41.5 57.2 C 41.5 57.8 41.5 57.8 41.5 57.8 C 41.4 58.0 41.3 58.1 41.3 58.3 C 41.2 58.4 41.0 58.7 40.6 59.2 C 39.1 61.3 39.1 61.3 39.1 61.3 C 38.9 61.6 38.9 61.8 38.8 61.8 C 38.7 61.9 38.5 62.0 38.4 62.0 C 38.4 62.0 38.2 62.1 37.7 62.1 C 37.7 62.4 37.7 62.4 37.7 62.4 C 38.4 62.4 38.7 62.4 39.1 62.4 C 39.5 62.4 40.5 62.4 41.3 62.4 C 41.3 62.1 41.3 62.1 41.3 62.1 C 40.8 62.1 40.4 62.0 40.3 62.0 C 40.3 62.0 40.2 61.9 40.2 61.8 C 40.2 61.8 40.3 61.6 40.5 61.2 C 42.3 58.4 42.3 58.4 42.3 58.4 L 44.1 61.2 Z M 44.1 61.2 " fill="#FFFFFF"></path></g></g><g><clipPath id="clip0x7fcf55b02cc0"><path d="M 46.1 52.5 L 57.7 52.5 L 57.7 63.6 L 46.1 63.6 Z M 46.1 52.5 "></path></clipPath><g clip-path="url(#clip0x7fcf55b02cc0)"><path d="M 48.8 60.4 C 49.1 60.9 49.5 61.4 49.9 61.7 C 50.5 61.9 51.1 62.1 51.7 62.1 C 52.2 62.1 52.6 62.0 53.1 61.8 C 53.5 61.8 53.8 61.6 54.0 61.4 C 54.3 61.1 54.5 60.9 54.7 60.7 C 54.9 60.4 55.0 60.1 55.1 59.7 C 55.3 59.2 55.4 58.5 55.4 57.9 C 55.4 57.2 55.3 56.4 55.0 55.9 C 54.8 55.3 54.4 54.9 53.9 54.5 C 53.4 54.2 52.8 54.1 52.1 54.1 C 51.6 54.1 51.2 54.2 50.7 54.2 C 50.4 54.4 50.0 54.7 49.6 55.1 C 49.3 55.3 49.0 55.8 48.8 56.3 C 48.7 56.5 48.7 56.9 48.6 57.4 C 48.5 57.7 48.4 58.1 48.4 58.5 C 48.4 59.2 48.6 59.8 48.8 60.4 Z M 47.4 56.3 C 47.6 55.6 47.9 55.2 48.3 54.7 C 48.7 54.3 49.2 54.0 49.7 53.8 C 50.4 53.6 51.0 53.5 51.6 53.5 C 53.1 53.5 54.4 54.0 55.3 54.9 C 56.3 55.8 56.7 56.9 56.7 58.4 C 56.7 58.7 56.7 59.2 56.6 59.6 C 56.5 59.9 56.3 60.3 56.3 60.6 C 56.0 60.9 55.7 61.2 55.4 61.6 C 55.0 61.8 54.5 62.1 53.9 62.3 C 53.4 62.5 52.7 62.6 52.0 62.6 C 51.3 62.6 50.6 62.5 50.0 62.3 C 49.4 62.0 48.8 61.8 48.4 61.3 C 47.9 60.8 47.6 60.4 47.4 59.8 C 47.2 59.3 47.1 58.6 47.1 58.0 C 47.1 57.4 47.2 56.8 47.4 56.3 Z M 47.4 56.3 " fill="#FFFFFF"></path></g></g><text xml:space="preserve" font-family="ArialMT,Arial" font-size="9.0" fill="#4D93FF" transform="matrix(1.00, 0.00, -0.00, -1.00, 1013.2, 8.3)">5</text><image xlink:href="../../6F52AF0B-6947-473B-BAA9-50A5E2A9A123/assets/F8113E518982B5E8B1FC9D5C520BDB81.png" width="407.00" height="56.00" transform="matrix(1.00, 0.00, -0.00, -1.00, 307.0, 752.0)"></image><text xml:space="preserve" font-family="HelveticaNeue-Light,Helvetica Neue" font-size="72.0" fill="#0948AA" transform="matrix(1.00, 0.00, -0.00, -1.00, 308.1, 699.4)">w</text><text xml:space="preserve" font-family="HelveticaNeue-Light,Helvetica Neue" font-size="72.0" fill="#0948AA" transform="matrix(1.00, 0.00, -0.00, -1.00, 361.4, 699.4)">a</text><text xml:space="preserve" font-family="HelveticaNeue-Light,Helvetica Neue" font-size="72.0" fill="#0948AA" transform="matrix(1.00, 0.00, -0.00, -1.00, 398.8, 699.4)">t</text><text xml:space="preserve" font-family="HelveticaNeue-Light,Helvetica Neue" font-size="72.0" fill="#0948AA" transform="matrix(1.00, 0.00, -0.00, -1.00, 420.1, 699.4)">c</text><text xml:space="preserve" font-family="HelveticaNeue-Light,Helvetica Neue" font-size="72.0" fill="#0948AA" transform="matrix(1.00, 0.00, -0.00, -1.00, 457.5, 699.4)">h</text><text xml:space="preserve" font-family="HelveticaNeue-Light,Helvetica Neue" font-size="72.0" fill="#0948AA" transform="matrix(1.00, 0.00, -0.00, -1.00, 496.1, 699.4)">O</text><text xml:space="preserve" font-family="HelveticaNeue-Light,Helvetica Neue" font-size="72.0" fill="#0948AA" transform="matrix(1.00, 0.00, -0.00, -1.00, 549.5, 699.4)">S</text><text xml:space="preserve" font-family="HelveticaNeue-Light,Helvetica Neue" font-size="72.0" fill="#0948AA" transform="matrix(1.00, 0.00, -0.00, -1.00, 594.8, 699.4)"> </text><text xml:space="preserve" font-family="HelveticaNeue-Light,Helvetica Neue" font-size="72.0" fill="#0948AA" transform="matrix(1.00, 0.00, -0.00, -1.00, 614.9, 699.4)">2</text><text xml:space="preserve" font-family="HelveticaNeue-Light,Helvetica Neue" font-size="72.0" fill="#0948AA" transform="matrix(1.00, 0.00, -0.00, -1.00, 654.9, 699.4)">.</text><text xml:space="preserve" font-family="HelveticaNeue-Light,Helvetica Neue" font-size="72.0" fill="#0948AA" transform="matrix(1.00, 0.00, -0.00, -1.00, 674.9, 699.4)">0</text><image xlink:href="../../BE4B753B-B8E4-4DDA-8605-188FA49DF580/assets/7D823C19B308C8AB102B0E11F68F9776.png" width="800.00" height="800.00" transform="matrix(0.14, 0.00, -0.00, -0.13, 18.0, 768.0)"></image><image xlink:href="../../6F52AF0B-6947-473B-BAA9-50A5E2A9A123/assets/D945142F722F948EDA8316E820408069.png" width="13.00" height="13.00" transform="matrix(1.00, 0.00, -0.00, -1.00, 108.0, 596.0)"></image><text xml:space="preserve" font-family="HelveticaNeue-Light,Helvetica Neue" font-size="26.2" fill="#0948AA" transform="matrix(1.00, 0.00, -0.00, -1.00, 107.8, 581.3)">•</text><image xlink:href="../../6F52AF0B-6947-473B-BAA9-50A5E2A9A123/assets/AD7D46C015FD0C049BBDA1775014EDFD.png" width="574.00" height="35.00" transform="matrix(1.00, 0.00, -0.00, -1.00, 145.0, 604.0)"></image><text xml:space="preserve" font-family="HelveticaNeue-Light,Helvetica Neue" font-size="35.0" fill="#0948AA" transform="matrix(1.00, 0.00, -0.00, -1.00, 143.8, 578.3)">N</text><text xml:space="preserve" font-family="HelveticaNeue-Light,Helvetica Neue" font-size="35.0" fill="#0948AA" transform="matrix(1.00, 0.00, -0.00, -1.00, 168.4, 578.3)">a</text><text xml:space="preserve" font-family="HelveticaNeue-Light,Helvetica Neue" font-size="35.0" fill="#0948AA" transform="matrix(1.00, 0.00, -0.00, -1.00, 186.6, 578.3)">t</text><text xml:space="preserve" font-family="HelveticaNeue-Light,Helvetica Neue" font-size="35.0" fill="#0948AA" transform="matrix(1.00, 0.00, -0.00, -1.00, 196.9, 578.3)">i</text><text xml:space="preserve" font-family="HelveticaNeue-Light,Helvetica Neue" font-size="35.0" fill="#0948AA" transform="matrix(1.00, 0.00, -0.00, -1.00, 203.4, 578.3)">v</text><text xml:space="preserve" font-family="HelveticaNeue-Light,Helvetica Neue" font-size="35.0" fill="#0948AA" transform="matrix(1.00, 0.00, -0.00, -1.00, 219.6, 578.3)">e</text><text xml:space="preserve" font-family="HelveticaNeue-Light,Helvetica Neue" font-size="35.0" fill="#0948AA" transform="matrix(1.00, 0.00, -0.00, -1.00, 237.8, 578.3)"> </text><text xml:space="preserve" font-family="HelveticaNeue-Light,Helvetica Neue" font-size="35.0" fill="#0948AA" transform="matrix(1.00, 0.00, -0.00, -1.00, 247.5, 578.3)">W</text><text xml:space="preserve" font-family="HelveticaNeue-Light,Helvetica Neue" font-size="35.0" fill="#0948AA" transform="matrix(1.00, 0.00, -0.00, -1.00, 277.9, 578.3)">a</text><text xml:space="preserve" font-family="HelveticaNeue-Light,Helvetica Neue" font-size="35.0" fill="#0948AA" transform="matrix(1.00, 0.00, -0.00, -1.00, 296.1, 578.3)">t</text><text xml:space="preserve" font-family="HelveticaNeue-Light,Helvetica Neue" font-size="35.0" fill="#0948AA" transform="matrix(1.00, 0.00, -0.00, -1.00, 306.5, 578.3)">c</text><text xml:space="preserve" font-family="HelveticaNeue-Light,Helvetica Neue" font-size="35.0" fill="#0948AA" transform="matrix(1.00, 0.00, -0.00, -1.00, 324.6, 578.3)">h</text><text xml:space="preserve" font-family="HelveticaNeue-Light,Helvetica Neue" font-size="35.0" fill="#0948AA" transform="matrix(1.00, 0.00, -0.00, -1.00, 343.4, 578.3)"> </text><text xml:space="preserve" font-family="HelveticaNeue-Light,Helvetica Neue" font-size="35.0" fill="#0948AA" transform="matrix(1.00, 0.00, -0.00, -1.00, 353.2, 578.3)">a</text><text xml:space="preserve" font-family="HelveticaNeue-Light,Helvetica Neue" font-size="35.0" fill="#0948AA" transform="matrix(1.00, 0.00, -0.00, -1.00, 371.3, 578.3)">p</text><text xml:space="preserve" font-family="HelveticaNeue-Light,Helvetica Neue" font-size="35.0" fill="#0948AA" transform="matrix(1.00, 0.00, -0.00, -1.00, 391.4, 578.3)">p</text><text xml:space="preserve" font-family="HelveticaNeue-Light,Helvetica Neue" font-size="35.0" fill="#0948AA" transform="matrix(1.00, 0.00, -0.00, -1.00, 411.5, 578.3)">s</text><text xml:space="preserve" font-family="HelveticaNeue-Light,Helvetica Neue" font-size="35.0" fill="#0948AA" transform="matrix(1.00, 0.00, -0.00, -1.00, 428.3, 578.3)"> </text><text xml:space="preserve" font-family="HelveticaNeue-Light,Helvetica Neue" font-size="35.0" fill="#0948AA" transform="matrix(1.00, 0.00, -0.00, -1.00, 438.1, 578.3)">(</text><text xml:space="preserve" font-family="HelveticaNeue-Light,Helvetica Neue" font-size="35.0" fill="#0948AA" transform="matrix(1.00, 0.00, -0.00, -1.00, 446.5, 578.3)">u</text><text xml:space="preserve" font-family="HelveticaNeue-Light,Helvetica Neue" font-size="35.0" fill="#0948AA" transform="matrix(1.00, 0.00, -0.00, -1.00, 465.3, 578.3)">n</text><text xml:space="preserve" font-family="HelveticaNeue-Light,Helvetica Neue" font-size="35.0" fill="#0948AA" transform="matrix(1.00, 0.00, -0.00, -1.00, 484.1, 578.3)">l</text><text xml:space="preserve" font-family="HelveticaNeue-Light,Helvetica Neue" font-size="35.0" fill="#0948AA" transform="matrix(1.00, 0.00, -0.00, -1.00, 490.6, 578.3)">i</text><text xml:space="preserve" font-family="HelveticaNeue-Light,Helvetica Neue" font-size="35.0" fill="#0948AA" transform="matrix(1.00, 0.00, -0.00, -1.00, 497.0, 578.3)">k</text><text xml:space="preserve" font-family="HelveticaNeue-Light,Helvetica Neue" font-size="35.0" fill="#0948AA" transform="matrix(1.00, 0.00, -0.00, -1.00, 514.5, 578.3)">e</text><text xml:space="preserve" font-family="HelveticaNeue-Light,Helvetica Neue" font-size="35.0" fill="#0948AA" transform="matrix(1.00, 0.00, -0.00, -1.00, 532.7, 578.3)"> </text><text xml:space="preserve" font-family="HelveticaNeue-Light,Helvetica Neue" font-size="35.0" fill="#0948AA" transform="matrix(1.00, 0.00, -0.00, -1.00, 542.4, 578.3)">w</text><text xml:space="preserve" font-family="HelveticaNeue-Light,Helvetica Neue" font-size="35.0" fill="#0948AA" transform="matrix(1.00, 0.00, -0.00, -1.00, 568.4, 578.3)">a</text><text xml:space="preserve" font-family="HelveticaNeue-Light,Helvetica Neue" font-size="35.0" fill="#0948AA" transform="matrix(1.00, 0.00, -0.00, -1.00, 586.5, 578.3)">t</text><text xml:space="preserve" font-family="HelveticaNeue-Light,Helvetica Neue" font-size="35.0" fill="#0948AA" transform="matrix(1.00, 0.00, -0.00, -1.00, 596.9, 578.3)">c</text><text xml:space="preserve" font-family="HelveticaNeue-Light,Helvetica Neue" font-size="35.0" fill="#0948AA" transform="matrix(1.00, 0.00, -0.00, -1.00, 615.1, 578.3)">h</text><text xml:space="preserve" font-family="HelveticaNeue-Light,Helvetica Neue" font-size="35.0" fill="#0948AA" transform="matrix(1.00, 0.00, -0.00, -1.00, 633.9, 578.3)">O</text><text xml:space="preserve" font-family="HelveticaNeue-Light,Helvetica Neue" font-size="35.0" fill="#0948AA" transform="matrix(1.00, 0.00, -0.00, -1.00, 659.8, 578.3)">S</text><text xml:space="preserve" font-family="HelveticaNeue-Light,Helvetica Neue" font-size="35.0" fill="#0948AA" transform="matrix(1.00, 0.00, -0.00, -1.00, 681.8, 578.3)"> </text><text xml:space="preserve" font-family="HelveticaNeue-Light,Helvetica Neue" font-size="35.0" fill="#0948AA" transform="matrix(1.00, 0.00, -0.00, -1.00, 691.6, 578.3)">1</text><text xml:space="preserve" font-family="HelveticaNeue-Light,Helvetica Neue" font-size="35.0" fill="#0948AA" transform="matrix(1.00, 0.00, -0.00, -1.00, 711.0, 578.3)">)</text><image xlink:href="../../6F52AF0B-6947-473B-BAA9-50A5E2A9A123/assets/D945142F722F948EDA8316E820408069.png" width="13.00" height="13.00" transform="matrix(1.00, 0.00, -0.00, -1.00, 108.0, 548.0)"></image><text xml:space="preserve" font-family="HelveticaNeue-Light,Helvetica Neue" font-size="26.2" fill="#0948AA" transform="matrix(1.00, 0.00, -0.00, -1.00, 107.8, 533.3)">•</text><image xlink:href="../../6F52AF0B-6947-473B-BAA9-50A5E2A9A123/assets/010EACE74FC1AEEE86298D3F1FDC6B2D.png" width="193.00" height="29.00" transform="matrix(1.00, 0.00, -0.00, -1.00, 145.0, 556.0)"></image><text xml:space="preserve" font-family="HelveticaNeue-Light,Helvetica Neue" font-size="35.0" fill="#0948AA" transform="matrix(1.00, 0.00, -0.00, -1.00, 143.8, 530.3)">D</text><text xml:space="preserve" font-family="HelveticaNeue-Light,Helvetica Neue" font-size="35.0" fill="#0948AA" transform="matrix(1.00, 0.00, -0.00, -1.00, 167.7, 530.3)">e</text><text xml:space="preserve" font-family="HelveticaNeue-Light,Helvetica Neue" font-size="35.0" fill="#0948AA" transform="matrix(1.00, 0.00, -0.00, -1.00, 185.9, 530.3)">v</text><text xml:space="preserve" font-family="HelveticaNeue-Light,Helvetica Neue" font-size="35.0" fill="#0948AA" transform="matrix(1.00, 0.00, -0.00, -1.00, 202.1, 530.3)"> </text><text xml:space="preserve" font-family="HelveticaNeue-Light,Helvetica Neue" font-size="35.0" fill="#0948AA" transform="matrix(1.00, 0.00, -0.00, -1.00, 211.8, 530.3)">A</text><text xml:space="preserve" font-family="HelveticaNeue-Light,Helvetica Neue" font-size="35.0" fill="#0948AA" transform="matrix(1.00, 0.00, -0.00, -1.00, 233.9, 530.3)">P</text><text xml:space="preserve" font-family="HelveticaNeue-Light,Helvetica Neue" font-size="35.0" fill="#0948AA" transform="matrix(1.00, 0.00, -0.00, -1.00, 255.9, 530.3)">I</text><text xml:space="preserve" font-family="HelveticaNeue-Light,Helvetica Neue" font-size="35.0" fill="#0948AA" transform="matrix(1.00, 0.00, -0.00, -1.00, 263.7, 530.3)">s</text><text xml:space="preserve" font-family="HelveticaNeue-Light,Helvetica Neue" font-size="35.0" fill="#0948AA" transform="matrix(1.00, 0.00, -0.00, -1.00, 280.5, 530.3)"> </text><text xml:space="preserve" font-family="HelveticaNeue-Light,Helvetica Neue" font-size="35.0" fill="#0948AA" transform="matrix(1.00, 0.00, -0.00, -1.00, 290.3, 530.3)">f</text><text xml:space="preserve" font-family="HelveticaNeue-Light,Helvetica Neue" font-size="35.0" fill="#0948AA" transform="matrix(1.00, 0.00, -0.00, -1.00, 299.3, 530.3)">o</text><text xml:space="preserve" font-family="HelveticaNeue-Light,Helvetica Neue" font-size="35.0" fill="#0948AA" transform="matrix(1.00, 0.00, -0.00, -1.00, 318.8, 530.3)">r</text><text xml:space="preserve" font-family="HelveticaNeue-Light,Helvetica Neue" font-size="35.0" fill="#0948AA" transform="matrix(1.00, 0.00, -0.00, -1.00, 329.8, 530.3)">:</text><image xlink:href="../../6F52AF0B-6947-473B-BAA9-50A5E2A9A123/assets/D945142F722F948EDA8316E820408069.png" width="13.00" height="13.00" transform="matrix(1.00, 0.00, -0.00, -1.00, 178.0, 500.0)"></image><text xml:space="preserve" font-family="HelveticaNeue-Light,Helvetica Neue" font-size="26.2" fill="#0948AA" transform="matrix(1.00, 0.00, -0.00, -1.00, 177.8, 485.3)">•</text><image xlink:href="../../6F52AF0B-6947-473B-BAA9-50A5E2A9A123/assets/1E6498C6C5429A4E64F07B81DC2CEE56.png" width="192.00" height="35.00" transform="matrix(1.00, 0.00, -0.00, -1.00, 215.0, 508.0)"></image><text xml:space="preserve" font-family="HelveticaNeue-Light,Helvetica Neue" font-size="35.0" fill="#0948AA" transform="matrix(1.00, 0.00, -0.00, -1.00, 213.8, 482.3)">D</text><text xml:space="preserve" font-family="HelveticaNeue-Light,Helvetica Neue" font-size="35.0" fill="#0948AA" transform="matrix(1.00, 0.00, -0.00, -1.00, 237.7, 482.3)">i</text><text xml:space="preserve" font-family="HelveticaNeue-Light,Helvetica Neue" font-size="35.0" fill="#0948AA" transform="matrix(1.00, 0.00, -0.00, -1.00, 244.2, 482.3)">g</text><text xml:space="preserve" font-family="HelveticaNeue-Light,Helvetica Neue" font-size="35.0" fill="#0948AA" transform="matrix(1.00, 0.00, -0.00, -1.00, 263.7, 482.3)">i</text><text xml:space="preserve" font-family="HelveticaNeue-Light,Helvetica Neue" font-size="35.0" fill="#0948AA" transform="matrix(1.00, 0.00, -0.00, -1.00, 270.1, 482.3)">t</text><text xml:space="preserve" font-family="HelveticaNeue-Light,Helvetica Neue" font-size="35.0" fill="#0948AA" transform="matrix(1.00, 0.00, -0.00, -1.00, 280.5, 482.3)">a</text><text xml:space="preserve" font-family="HelveticaNeue-Light,Helvetica Neue" font-size="35.0" fill="#0948AA" transform="matrix(1.00, 0.00, -0.00, -1.00, 298.7, 482.3)">l</text><text xml:space="preserve" font-family="HelveticaNeue-Light,Helvetica Neue" font-size="35.0" fill="#0948AA" transform="matrix(1.00, 0.00, -0.00, -1.00, 305.1, 482.3)"> </text><text xml:space="preserve" font-family="HelveticaNeue-Light,Helvetica Neue" font-size="35.0" fill="#0948AA" transform="matrix(1.00, 0.00, -0.00, -1.00, 314.9, 482.3)">c</text><text xml:space="preserve" font-family="HelveticaNeue-Light,Helvetica Neue" font-size="35.0" fill="#0948AA" transform="matrix(1.00, 0.00, -0.00, -1.00, 333.0, 482.3)">r</text><text xml:space="preserve" font-family="HelveticaNeue-Light,Helvetica Neue" font-size="35.0" fill="#0948AA" transform="matrix(1.00, 0.00, -0.00, -1.00, 343.4, 482.3)">o</text><text xml:space="preserve" font-family="HelveticaNeue-Light,Helvetica Neue" font-size="35.0" fill="#0948AA" transform="matrix(1.00, 0.00, -0.00, -1.00, 362.9, 482.3)">w</text><text xml:space="preserve" font-family="HelveticaNeue-Light,Helvetica Neue" font-size="35.0" fill="#0948AA" transform="matrix(1.00, 0.00, -0.00, -1.00, 388.8, 482.3)">n</text><image xlink:href="../../6F52AF0B-6947-473B-BAA9-50A5E2A9A123/assets/D945142F722F948EDA8316E820408069.png" width="13.00" height="13.00" transform="matrix(1.00, 0.00, -0.00, -1.00, 178.0, 452.0)"></image><text xml:space="preserve" font-family="HelveticaNeue-Light,Helvetica Neue" font-size="26.2" fill="#0948AA" transform="matrix(1.00, 0.00, -0.00, -1.00, 177.8, 437.3)">•</text><image xlink:href="../../6F52AF0B-6947-473B-BAA9-50A5E2A9A123/assets/797AFF205C34BF00A53F9F67BE7AA071.png" width="242.00" height="29.00" transform="matrix(1.00, 0.00, -0.00, -1.00, 215.0, 460.0)"></image><text xml:space="preserve" font-family="HelveticaNeue-Light,Helvetica Neue" font-size="35.0" fill="#0948AA" transform="matrix(1.00, 0.00, -0.00, -1.00, 213.8, 434.3)">F</text><text xml:space="preserve" font-family="HelveticaNeue-Light,Helvetica Neue" font-size="35.0" fill="#0948AA" transform="matrix(1.00, 0.00, -0.00, -1.00, 232.6, 434.3)">l</text><text xml:space="preserve" font-family="HelveticaNeue-Light,Helvetica Neue" font-size="35.0" fill="#0948AA" transform="matrix(1.00, 0.00, -0.00, -1.00, 239.0, 434.3)">u</text><text xml:space="preserve" font-family="HelveticaNeue-Light,Helvetica Neue" font-size="35.0" fill="#0948AA" transform="matrix(1.00, 0.00, -0.00, -1.00, 257.8, 434.3)">i</text><text xml:space="preserve" font-family="HelveticaNeue-Light,Helvetica Neue" font-size="35.0" fill="#0948AA" transform="matrix(1.00, 0.00, -0.00, -1.00, 264.3, 434.3)">d</text><text xml:space="preserve" font-family="HelveticaNeue-Light,Helvetica Neue" font-size="35.0" fill="#0948AA" transform="matrix(1.00, 0.00, -0.00, -1.00, 284.4, 434.3)"> </text><text xml:space="preserve" font-family="HelveticaNeue-Light,Helvetica Neue" font-size="35.0" fill="#0948AA" transform="matrix(1.00, 0.00, -0.00, -1.00, 294.1, 434.3)">a</text><text xml:space="preserve" font-family="HelveticaNeue-Light,Helvetica Neue" font-size="35.0" fill="#0948AA" transform="matrix(1.00, 0.00, -0.00, -1.00, 312.3, 434.3)">n</text><text xml:space="preserve" font-family="HelveticaNeue-Light,Helvetica Neue" font-size="35.0" fill="#0948AA" transform="matrix(1.00, 0.00, -0.00, -1.00, 331.1, 434.3)">i</text><text xml:space="preserve" font-family="HelveticaNeue-Light,Helvetica Neue" font-size="35.0" fill="#0948AA" transform="matrix(1.00, 0.00, -0.00, -1.00, 337.6, 434.3)">m</text><text xml:space="preserve" font-family="HelveticaNeue-Light,Helvetica Neue" font-size="35.0" fill="#0948AA" transform="matrix(1.00, 0.00, -0.00, -1.00, 366.7, 434.3)">a</text><text xml:space="preserve" font-family="HelveticaNeue-Light,Helvetica Neue" font-size="35.0" fill="#0948AA" transform="matrix(1.00, 0.00, -0.00, -1.00, 384.9, 434.3)">t</text><text xml:space="preserve" font-family="HelveticaNeue-Light,Helvetica Neue" font-size="35.0" fill="#0948AA" transform="matrix(1.00, 0.00, -0.00, -1.00, 395.2, 434.3)">i</text><text xml:space="preserve" font-family="HelveticaNeue-Light,Helvetica Neue" font-size="35.0" fill="#0948AA" transform="matrix(1.00, 0.00, -0.00, -1.00, 401.7, 434.3)">o</text><text xml:space="preserve" font-family="HelveticaNeue-Light,Helvetica Neue" font-size="35.0" fill="#0948AA" transform="matrix(1.00, 0.00, -0.00, -1.00, 421.2, 434.3)">n</text><text xml:space="preserve" font-family="HelveticaNeue-Light,Helvetica Neue" font-size="35.0" fill="#0948AA" transform="matrix(1.00, 0.00, -0.00, -1.00, 440.0, 434.3)">s</text><image xlink:href="../../6F52AF0B-6947-473B-BAA9-50A5E2A9A123/assets/D945142F722F948EDA8316E820408069.png" width="13.00" height="13.00" transform="matrix(1.00, 0.00, -0.00, -1.00, 178.0, 404.0)"></image><text xml:space="preserve" font-family="HelveticaNeue-Light,Helvetica Neue" font-size="26.2" fill="#0948AA" transform="matrix(1.00, 0.00, -0.00, -1.00, 177.8, 389.3)">•</text><image xlink:href="../../6F52AF0B-6947-473B-BAA9-50A5E2A9A123/assets/8D3C817604B61D525E67F6C2402AB38E.png" width="417.00" height="35.00" transform="matrix(1.00, 0.00, -0.00, -1.00, 215.0, 412.0)"></image><text xml:space="preserve" font-family="HelveticaNeue-Light,Helvetica Neue" font-size="35.0" fill="#0948AA" transform="matrix(1.00, 0.00, -0.00, -1.00, 213.8, 386.3)">M</text><text xml:space="preserve" font-family="HelveticaNeue-Light,Helvetica Neue" font-size="35.0" fill="#0948AA" transform="matrix(1.00, 0.00, -0.00, -1.00, 242.5, 386.3)">e</text><text xml:space="preserve" font-family="HelveticaNeue-Light,Helvetica Neue" font-size="35.0" fill="#0948AA" transform="matrix(1.00, 0.00, -0.00, -1.00, 260.7, 386.3)">d</text><text xml:space="preserve" font-family="HelveticaNeue-Light,Helvetica Neue" font-size="35.0" fill="#0948AA" transform="matrix(1.00, 0.00, -0.00, -1.00, 280.7, 386.3)">i</text><text xml:space="preserve" font-family="HelveticaNeue-Light,Helvetica Neue" font-size="35.0" fill="#0948AA" transform="matrix(1.00, 0.00, -0.00, -1.00, 287.2, 386.3)">a</text><text xml:space="preserve" font-family="HelveticaNeue-Light,Helvetica Neue" font-size="35.0" fill="#0948AA" transform="matrix(1.00, 0.00, -0.00, -1.00, 305.4, 386.3)"> </text><text xml:space="preserve" font-family="HelveticaNeue-Light,Helvetica Neue" font-size="35.0" fill="#0948AA" transform="matrix(1.00, 0.00, -0.00, -1.00, 315.1, 386.3)">p</text><text xml:space="preserve" font-family="HelveticaNeue-Light,Helvetica Neue" font-size="35.0" fill="#0948AA" transform="matrix(1.00, 0.00, -0.00, -1.00, 335.2, 386.3)">l</text><text xml:space="preserve" font-family="HelveticaNeue-Light,Helvetica Neue" font-size="35.0" fill="#0948AA" transform="matrix(1.00, 0.00, -0.00, -1.00, 341.7, 386.3)">a</text><text xml:space="preserve" font-family="HelveticaNeue-Light,Helvetica Neue" font-size="35.0" fill="#0948AA" transform="matrix(1.00, 0.00, -0.00, -1.00, 359.8, 386.3)">y</text><text xml:space="preserve" font-family="HelveticaNeue-Light,Helvetica Neue" font-size="35.0" fill="#0948AA" transform="matrix(1.00, 0.00, -0.00, -1.00, 376.1, 386.3)">b</text><text xml:space="preserve" font-family="HelveticaNeue-Light,Helvetica Neue" font-size="35.0" fill="#0948AA" transform="matrix(1.00, 0.00, -0.00, -1.00, 396.1, 386.3)">a</text><text xml:space="preserve" font-family="HelveticaNeue-Light,Helvetica Neue" font-size="35.0" fill="#0948AA" transform="matrix(1.00, 0.00, -0.00, -1.00, 414.3, 386.3)">c</text><text xml:space="preserve" font-family="HelveticaNeue-Light,Helvetica Neue" font-size="35.0" fill="#0948AA" transform="matrix(1.00, 0.00, -0.00, -1.00, 432.5, 386.3)">k</text><text xml:space="preserve" font-family="HelveticaNeue-Light,Helvetica Neue" font-size="35.0" fill="#0948AA" transform="matrix(1.00, 0.00, -0.00, -1.00, 450.0, 386.3)"> </text><text xml:space="preserve" font-family="HelveticaNeue-Light,Helvetica Neue" font-size="35.0" fill="#0948AA" transform="matrix(1.00, 0.00, -0.00, -1.00, 459.7, 386.3)">&amp;</text><text xml:space="preserve" font-family="HelveticaNeue-Light,Helvetica Neue" font-size="35.0" fill="#0948AA" transform="matrix(1.00, 0.00, -0.00, -1.00, 481.1, 386.3)"> </text><text xml:space="preserve" font-family="HelveticaNeue-Light,Helvetica Neue" font-size="35.0" fill="#0948AA" transform="matrix(1.00, 0.00, -0.00, -1.00, 490.8, 386.3)">r</text><text xml:space="preserve" font-family="HelveticaNeue-Light,Helvetica Neue" font-size="35.0" fill="#0948AA" transform="matrix(1.00, 0.00, -0.00, -1.00, 501.2, 386.3)">e</text><text xml:space="preserve" font-family="HelveticaNeue-Light,Helvetica Neue" font-size="35.0" fill="#0948AA" transform="matrix(1.00, 0.00, -0.00, -1.00, 519.4, 386.3)">c</text><text xml:space="preserve" font-family="HelveticaNeue-Light,Helvetica Neue" font-size="35.0" fill="#0948AA" transform="matrix(1.00, 0.00, -0.00, -1.00, 537.5, 386.3)">o</text><text xml:space="preserve" font-family="HelveticaNeue-Light,Helvetica Neue" font-size="35.0" fill="#0948AA" transform="matrix(1.00, 0.00, -0.00, -1.00, 557.0, 386.3)">r</text><text xml:space="preserve" font-family="HelveticaNeue-Light,Helvetica Neue" font-size="35.0" fill="#0948AA" transform="matrix(1.00, 0.00, -0.00, -1.00, 567.4, 386.3)">d</text><text xml:space="preserve" font-family="HelveticaNeue-Light,Helvetica Neue" font-size="35.0" fill="#0948AA" transform="matrix(1.00, 0.00, -0.00, -1.00, 587.5, 386.3)">i</text><text xml:space="preserve" font-family="HelveticaNeue-Light,Helvetica Neue" font-size="35.0" fill="#0948AA" transform="matrix(1.00, 0.00, -0.00, -1.00, 594.0, 386.3)">n</text><text xml:space="preserve" font-family="HelveticaNeue-Light,Helvetica Neue" font-size="35.0" fill="#0948AA" transform="matrix(1.00, 0.00, -0.00, -1.00, 612.8, 386.3)">g</text><image xlink:href="../../6F52AF0B-6947-473B-BAA9-50A5E2A9A123/assets/D945142F722F948EDA8316E820408069.png" width="13.00" height="13.00" transform="matrix(1.00, 0.00, -0.00, -1.00, 178.0, 356.0)"></image><text xml:space="preserve" font-family="HelveticaNeue-Light,Helvetica Neue" font-size="26.2" fill="#0948AA" transform="matrix(1.00, 0.00, -0.00, -1.00, 177.8, 341.3)">•</text><image xlink:href="../../6F52AF0B-6947-473B-BAA9-50A5E2A9A123/assets/1AC6AED6DA3E4363F9200A52513F9A55.png" width="221.00" height="29.00" transform="matrix(1.00, 0.00, -0.00, -1.00, 212.0, 364.0)"></image><text xml:space="preserve" font-family="HelveticaNeue-Light,Helvetica Neue" font-size="35.0" fill="#0948AA" transform="matrix(1.00, 0.00, -0.00, -1.00, 213.8, 338.3)">A</text><text xml:space="preserve" font-family="HelveticaNeue-Light,Helvetica Neue" font-size="35.0" fill="#0948AA" transform="matrix(1.00, 0.00, -0.00, -1.00, 235.8, 338.3)">c</text><text xml:space="preserve" font-family="HelveticaNeue-Light,Helvetica Neue" font-size="35.0" fill="#0948AA" transform="matrix(1.00, 0.00, -0.00, -1.00, 254.0, 338.3)">c</text><text xml:space="preserve" font-family="HelveticaNeue-Light,Helvetica Neue" font-size="35.0" fill="#0948AA" transform="matrix(1.00, 0.00, -0.00, -1.00, 272.1, 338.3)">e</text><text xml:space="preserve" font-family="HelveticaNeue-Light,Helvetica Neue" font-size="35.0" fill="#0948AA" transform="matrix(1.00, 0.00, -0.00, -1.00, 290.3, 338.3)">l</text><text xml:space="preserve" font-family="HelveticaNeue-Light,Helvetica Neue" font-size="35.0" fill="#0948AA" transform="matrix(1.00, 0.00, -0.00, -1.00, 296.8, 338.3)">e</text><text xml:space="preserve" font-family="HelveticaNeue-Light,Helvetica Neue" font-size="35.0" fill="#0948AA" transform="matrix(1.00, 0.00, -0.00, -1.00, 314.9, 338.3)">r</text><text xml:space="preserve" font-family="HelveticaNeue-Light,Helvetica Neue" font-size="35.0" fill="#0948AA" transform="matrix(1.00, 0.00, -0.00, -1.00, 325.3, 338.3)">o</text><text xml:space="preserve" font-family="HelveticaNeue-Light,Helvetica Neue" font-size="35.0" fill="#0948AA" transform="matrix(1.00, 0.00, -0.00, -1.00, 344.8, 338.3)">m</text><text xml:space="preserve" font-family="HelveticaNeue-Light,Helvetica Neue" font-size="35.0" fill="#0948AA" transform="matrix(1.00, 0.00, -0.00, -1.00, 374.0, 338.3)">e</text><text xml:space="preserve" font-family="HelveticaNeue-Light,Helvetica Neue" font-size="35.0" fill="#0948AA" transform="matrix(1.00, 0.00, -0.00, -1.00, 392.1, 338.3)">t</text><text xml:space="preserve" font-family="HelveticaNeue-Light,Helvetica Neue" font-size="35.0" fill="#0948AA" transform="matrix(1.00, 0.00, -0.00, -1.00, 402.5, 338.3)">e</text><text xml:space="preserve" font-family="HelveticaNeue-Light,Helvetica Neue" font-size="35.0" fill="#0948AA" transform="matrix(1.00, 0.00, -0.00, -1.00, 420.6, 338.3)">r</text><image xlink:href="../../6F52AF0B-6947-473B-BAA9-50A5E2A9A123/assets/D945142F722F948EDA8316E820408069.png" width="13.00" height="13.00" transform="matrix(1.00, 0.00, -0.00, -1.00, 178.0, 308.0)"></image><text xml:space="preserve" font-family="HelveticaNeue-Light,Helvetica Neue" font-size="26.2" fill="#0948AA" transform="matrix(1.00, 0.00, -0.00, -1.00, 177.8, 293.3)">•</text><image xlink:href="../../6F52AF0B-6947-473B-BAA9-50A5E2A9A123/assets/29A380849AF83C46D8AAE35403C18221.png" width="149.00" height="29.00" transform="matrix(1.00, 0.00, -0.00, -1.00, 215.0, 316.0)"></image><text xml:space="preserve" font-family="HelveticaNeue-Light,Helvetica Neue" font-size="35.0" fill="#0948AA" transform="matrix(1.00, 0.00, -0.00, -1.00, 213.8, 290.3)">H</text><text xml:space="preserve" font-family="HelveticaNeue-Light,Helvetica Neue" font-size="35.0" fill="#0948AA" transform="matrix(1.00, 0.00, -0.00, -1.00, 238.4, 290.3)">e</text><text xml:space="preserve" font-family="HelveticaNeue-Light,Helvetica Neue" font-size="35.0" fill="#0948AA" transform="matrix(1.00, 0.00, -0.00, -1.00, 256.6, 290.3)">a</text><text xml:space="preserve" font-family="HelveticaNeue-Light,Helvetica Neue" font-size="35.0" fill="#0948AA" transform="matrix(1.00, 0.00, -0.00, -1.00, 274.7, 290.3)">r</text><text xml:space="preserve" font-family="HelveticaNeue-Light,Helvetica Neue" font-size="35.0" fill="#0948AA" transform="matrix(1.00, 0.00, -0.00, -1.00, 285.8, 290.3)">t</text><text xml:space="preserve" font-family="HelveticaNeue-Light,Helvetica Neue" font-size="35.0" fill="#0948AA" transform="matrix(1.00, 0.00, -0.00, -1.00, 296.1, 290.3)"> </text><text xml:space="preserve" font-family="HelveticaNeue-Light,Helvetica Neue" font-size="35.0" fill="#0948AA" transform="matrix(1.00, 0.00, -0.00, -1.00, 305.8, 290.3)">r</text><text xml:space="preserve" font-family="HelveticaNeue-Light,Helvetica Neue" font-size="35.0" fill="#0948AA" transform="matrix(1.00, 0.00, -0.00, -1.00, 316.9, 290.3)">a</text><text xml:space="preserve" font-family="HelveticaNeue-Light,Helvetica Neue" font-size="35.0" fill="#0948AA" transform="matrix(1.00, 0.00, -0.00, -1.00, 335.0, 290.3)">t</text><text xml:space="preserve" font-family="HelveticaNeue-Light,Helvetica Neue" font-size="35.0" fill="#0948AA" transform="matrix(1.00, 0.00, -0.00, -1.00, 345.4, 290.3)">e</text><image xlink:href="../../6F52AF0B-6947-473B-BAA9-50A5E2A9A123/assets/D945142F722F948EDA8316E820408069.png" width="13.00" height="13.00" transform="matrix(1.00, 0.00, -0.00, -1.00, 178.0, 260.0)"></image><text xml:space="preserve" font-family="HelveticaNeue-Light,Helvetica Neue" font-size="26.2" fill="#0948AA" transform="matrix(1.00, 0.00, -0.00, -1.00, 177.8, 245.3)">•</text><image xlink:href="../../6F52AF0B-6947-473B-BAA9-50A5E2A9A123/assets/441031A61DD32106D71FBF25FDBC5333.png" width="491.00" height="35.00" transform="matrix(1.00, 0.00, -0.00, -1.00, 215.0, 268.0)"></image><text xml:space="preserve" font-family="HelveticaNeue-Light,Helvetica Neue" font-size="35.0" fill="#0948AA" transform="matrix(1.00, 0.00, -0.00, -1.00, 213.8, 242.3)">P</text><text xml:space="preserve" font-family="HelveticaNeue-Light,Helvetica Neue" font-size="35.0" fill="#0948AA" transform="matrix(1.00, 0.00, -0.00, -1.00, 235.8, 242.3)">h</text><text xml:space="preserve" font-family="HelveticaNeue-Light,Helvetica Neue" font-size="35.0" fill="#0948AA" transform="matrix(1.00, 0.00, -0.00, -1.00, 254.6, 242.3)">y</text><text xml:space="preserve" font-family="HelveticaNeue-Light,Helvetica Neue" font-size="35.0" fill="#0948AA" transform="matrix(1.00, 0.00, -0.00, -1.00, 270.8, 242.3)">s</text><text xml:space="preserve" font-family="HelveticaNeue-Light,Helvetica Neue" font-size="35.0" fill="#0948AA" transform="matrix(1.00, 0.00, -0.00, -1.00, 287.6, 242.3)">i</text><text xml:space="preserve" font-family="HelveticaNeue-Light,Helvetica Neue" font-size="35.0" fill="#0948AA" transform="matrix(1.00, 0.00, -0.00, -1.00, 294.1, 242.3)">c</text><text xml:space="preserve" font-family="HelveticaNeue-Light,Helvetica Neue" font-size="35.0" fill="#0948AA" transform="matrix(1.00, 0.00, -0.00, -1.00, 312.3, 242.3)">a</text><text xml:space="preserve" font-family="HelveticaNeue-Light,Helvetica Neue" font-size="35.0" fill="#0948AA" transform="matrix(1.00, 0.00, -0.00, -1.00, 330.4, 242.3)">l</text><text xml:space="preserve" font-family="HelveticaNeue-Light,Helvetica Neue" font-size="35.0" fill="#0948AA" transform="matrix(1.00, 0.00, -0.00, -1.00, 336.9, 242.3)"> </text><text xml:space="preserve" font-family="HelveticaNeue-Light,Helvetica Neue" font-size="35.0" fill="#0948AA" transform="matrix(1.00, 0.00, -0.00, -1.00, 346.7, 242.3)">f</text><text xml:space="preserve" font-family="HelveticaNeue-Light,Helvetica Neue" font-size="35.0" fill="#0948AA" transform="matrix(1.00, 0.00, -0.00, -1.00, 355.7, 242.3)">e</text><text xml:space="preserve" font-family="HelveticaNeue-Light,Helvetica Neue" font-size="35.0" fill="#0948AA" transform="matrix(1.00, 0.00, -0.00, -1.00, 373.9, 242.3)">e</text><text xml:space="preserve" font-family="HelveticaNeue-Light,Helvetica Neue" font-size="35.0" fill="#0948AA" transform="matrix(1.00, 0.00, -0.00, -1.00, 392.0, 242.3)">d</text><text xml:space="preserve" font-family="HelveticaNeue-Light,Helvetica Neue" font-size="35.0" fill="#0948AA" transform="matrix(1.00, 0.00, -0.00, -1.00, 412.1, 242.3)">b</text><text xml:space="preserve" font-family="HelveticaNeue-Light,Helvetica Neue" font-size="35.0" fill="#0948AA" transform="matrix(1.00, 0.00, -0.00, -1.00, 432.2, 242.3)">a</text><text xml:space="preserve" font-family="HelveticaNeue-Light,Helvetica Neue" font-size="35.0" fill="#0948AA" transform="matrix(1.00, 0.00, -0.00, -1.00, 450.4, 242.3)">c</text><text xml:space="preserve" font-family="HelveticaNeue-Light,Helvetica Neue" font-size="35.0" fill="#0948AA" transform="matrix(1.00, 0.00, -0.00, -1.00, 468.6, 242.3)">k</text><text xml:space="preserve" font-family="HelveticaNeue-Light,Helvetica Neue" font-size="35.0" fill="#0948AA" transform="matrix(1.00, 0.00, -0.00, -1.00, 486.1, 242.3)"> </text><text xml:space="preserve" font-family="HelveticaNeue-Light,Helvetica Neue" font-size="35.0" fill="#0948AA" transform="matrix(1.00, 0.00, -0.00, -1.00, 495.8, 242.3)">(</text><text xml:space="preserve" font-family="HelveticaNeue-Light,Helvetica Neue" font-size="35.0" fill="#0948AA" transform="matrix(1.00, 0.00, -0.00, -1.00, 504.2, 242.3)">t</text><text xml:space="preserve" font-family="HelveticaNeue-Light,Helvetica Neue" font-size="35.0" fill="#0948AA" transform="matrix(1.00, 0.00, -0.00, -1.00, 514.6, 242.3)">a</text><text xml:space="preserve" font-family="HelveticaNeue-Light,Helvetica Neue" font-size="35.0" fill="#0948AA" transform="matrix(1.00, 0.00, -0.00, -1.00, 532.7, 242.3)">p</text><text xml:space="preserve" font-family="HelveticaNeue-Light,Helvetica Neue" font-size="35.0" fill="#0948AA" transform="matrix(1.00, 0.00, -0.00, -1.00, 552.8, 242.3)">t</text><text xml:space="preserve" font-family="HelveticaNeue-Light,Helvetica Neue" font-size="35.0" fill="#0948AA" transform="matrix(1.00, 0.00, -0.00, -1.00, 563.2, 242.3)">i</text><text xml:space="preserve" font-family="HelveticaNeue-Light,Helvetica Neue" font-size="35.0" fill="#0948AA" transform="matrix(1.00, 0.00, -0.00, -1.00, 569.7, 242.3)">c</text><text xml:space="preserve" font-family="HelveticaNeue-Light,Helvetica Neue" font-size="35.0" fill="#0948AA" transform="matrix(1.00, 0.00, -0.00, -1.00, 587.8, 242.3)"> </text><text xml:space="preserve" font-family="HelveticaNeue-Light,Helvetica Neue" font-size="35.0" fill="#0948AA" transform="matrix(1.00, 0.00, -0.00, -1.00, 597.6, 242.3)">e</text><text xml:space="preserve" font-family="HelveticaNeue-Light,Helvetica Neue" font-size="35.0" fill="#0948AA" transform="matrix(1.00, 0.00, -0.00, -1.00, 615.7, 242.3)">n</text><text xml:space="preserve" font-family="HelveticaNeue-Light,Helvetica Neue" font-size="35.0" fill="#0948AA" transform="matrix(1.00, 0.00, -0.00, -1.00, 634.5, 242.3)">g</text><text xml:space="preserve" font-family="HelveticaNeue-Light,Helvetica Neue" font-size="35.0" fill="#0948AA" transform="matrix(1.00, 0.00, -0.00, -1.00, 654.0, 242.3)">i</text><text xml:space="preserve" font-family="HelveticaNeue-Light,Helvetica Neue" font-size="35.0" fill="#0948AA" transform="matrix(1.00, 0.00, -0.00, -1.00, 660.5, 242.3)">n</text><text xml:space="preserve" font-family="HelveticaNeue-Light,Helvetica Neue" font-size="35.0" fill="#0948AA" transform="matrix(1.00, 0.00, -0.00, -1.00, 679.3, 242.3)">e</text><text xml:space="preserve" font-family="HelveticaNeue-Light,Helvetica Neue" font-size="35.0" fill="#0948AA" transform="matrix(1.00, 0.00, -0.00, -1.00, 697.4, 242.3)">)</text><image xlink:href="../../6F52AF0B-6947-473B-BAA9-50A5E2A9A123/assets/D945142F722F948EDA8316E820408069.png" width="13.00" height="13.00" transform="matrix(1.00, 0.00, -0.00, -1.00, 178.0, 212.0)"></image><text xml:space="preserve" font-family="HelveticaNeue-Light,Helvetica Neue" font-size="26.2" fill="#0948AA" transform="matrix(1.00, 0.00, -0.00, -1.00, 177.8, 197.3)">•</text><image xlink:href="../../6F52AF0B-6947-473B-BAA9-50A5E2A9A123/assets/C3B12C7520938752AA0157EDAB272945.png" width="135.00" height="29.00" transform="matrix(1.00, 0.00, -0.00, -1.00, 215.0, 220.0)"></image><text xml:space="preserve" font-family="HelveticaNeue-Light,Helvetica Neue" font-size="35.0" fill="#0948AA" transform="matrix(1.00, 0.00, -0.00, -1.00, 213.8, 194.3)">H</text><text xml:space="preserve" font-family="HelveticaNeue-Light,Helvetica Neue" font-size="35.0" fill="#0948AA" transform="matrix(1.00, 0.00, -0.00, -1.00, 238.4, 194.3)">e</text><text xml:space="preserve" font-family="HelveticaNeue-Light,Helvetica Neue" font-size="35.0" fill="#0948AA" transform="matrix(1.00, 0.00, -0.00, -1.00, 256.6, 194.3)">a</text><text xml:space="preserve" font-family="HelveticaNeue-Light,Helvetica Neue" font-size="35.0" fill="#0948AA" transform="matrix(1.00, 0.00, -0.00, -1.00, 274.7, 194.3)">l</text><text xml:space="preserve" font-family="HelveticaNeue-Light,Helvetica Neue" font-size="35.0" fill="#0948AA" transform="matrix(1.00, 0.00, -0.00, -1.00, 281.2, 194.3)">t</text><text xml:space="preserve" font-family="HelveticaNeue-Light,Helvetica Neue" font-size="35.0" fill="#0948AA" transform="matrix(1.00, 0.00, -0.00, -1.00, 291.6, 194.3)">h</text><text xml:space="preserve" font-family="HelveticaNeue-Light,Helvetica Neue" font-size="35.0" fill="#0948AA" transform="matrix(1.00, 0.00, -0.00, -1.00, 310.4, 194.3)">K</text><text xml:space="preserve" font-family="HelveticaNeue-Light,Helvetica Neue" font-size="35.0" fill="#0948AA" transform="matrix(1.00, 0.00, -0.00, -1.00, 333.0, 194.3)">i</text><text xml:space="preserve" font-family="HelveticaNeue-Light,Helvetica Neue" font-size="35.0" fill="#0948AA" transform="matrix(1.00, 0.00, -0.00, -1.00, 339.5, 194.3)">t</text></g></svg>