<?xml version="1.0" encoding="UTF-8" standalone="no"?><svg xmlns="http://www.w3.org/2000/svg" xmlns:xlink="http://www.w3.org/1999/xlink" clip-rule="evenodd" stroke-miterlimit="10" viewBox="0 0 645 40"><desc>SVG generated by Keynote</desc><defs></defs><g transform="matrix(1.00, 0.00, -0.00, -1.00, 0.0, 40.0)"><image xlink:href="../../4D7FA924-3F01-48A0-AFFA-2D77A012846C/assets/9CDE0EDFFF33DDA238AA6C815101524E.png" width="13.00" height="12.00" transform="matrix(1.00, 0.00, -0.00, -1.00, 2.0, 28.0)"></image><text xml:space="preserve" font-family="HelveticaNeue-Light,Helvetica Neue" font-size="26.2" fill="#0948AA" transform="matrix(1.00, 0.00, -0.00, -1.00, 1.8, 13.6)">•</text><image xlink:href="50FC958B8DCAD6EFB0EBA43D73010D64.png" width="606.00" height="35.00" transform="matrix(1.00, 0.00, -0.00, -1.00, 38.0, 36.0)"></image><text xml:space="preserve" font-family="HelveticaNeue-Light,Helvetica Neue" font-size="35.0" fill="#0948AA" transform="matrix(1.00, 0.00, -0.00, -1.00, 37.8, 10.6)">5</text><text xml:space="preserve" font-family="HelveticaNeue-Light,Helvetica Neue" font-size="35.0" fill="#0948AA" transform="matrix(1.00, 0.00, -0.00, -1.00, 57.2, 10.6)">,</text><text xml:space="preserve" font-family="HelveticaNeue-Light,Helvetica Neue" font-size="35.0" fill="#0948AA" transform="matrix(1.00, 0.00, -0.00, -1.00, 66.9, 10.6)">0</text><text xml:space="preserve" font-family="HelveticaNeue-Light,Helvetica Neue" font-size="35.0" fill="#0948AA" transform="matrix(1.00, 0.00, -0.00, -1.00, 86.4, 10.6)">0</text><text xml:space="preserve" font-family="HelveticaNeue-Light,Helvetica Neue" font-size="35.0" fill="#0948AA" transform="matrix(1.00, 0.00, -0.00, -1.00, 105.9, 10.6)">0</text><text xml:space="preserve" font-family="HelveticaNeue-Light,Helvetica Neue" font-size="35.0" fill="#0948AA" transform="matrix(1.00, 0.00, -0.00, -1.00, 125.3, 10.6)"> </text><text xml:space="preserve" font-family="HelveticaNeue-Light,Helvetica Neue" font-size="35.0" fill="#0948AA" transform="matrix(1.00, 0.00, -0.00, -1.00, 135.1, 10.6)">a</text><text xml:space="preserve" font-family="HelveticaNeue-Light,Helvetica Neue" font-size="35.0" fill="#0948AA" transform="matrix(1.00, 0.00, -0.00, -1.00, 153.2, 10.6)">t</text><text xml:space="preserve" font-family="HelveticaNeue-Light,Helvetica Neue" font-size="35.0" fill="#0948AA" transform="matrix(1.00, 0.00, -0.00, -1.00, 163.6, 10.6)">t</text><text xml:space="preserve" font-family="HelveticaNeue-Light,Helvetica Neue" font-size="35.0" fill="#0948AA" transform="matrix(1.00, 0.00, -0.00, -1.00, 173.9, 10.6)">e</text><text xml:space="preserve" font-family="HelveticaNeue-Light,Helvetica Neue" font-size="35.0" fill="#0948AA" transform="matrix(1.00, 0.00, -0.00, -1.00, 192.1, 10.6)">n</text><text xml:space="preserve" font-family="HelveticaNeue-Light,Helvetica Neue" font-size="35.0" fill="#0948AA" transform="matrix(1.00, 0.00, -0.00, -1.00, 210.9, 10.6)">d</text><text xml:space="preserve" font-family="HelveticaNeue-Light,Helvetica Neue" font-size="35.0" fill="#0948AA" transform="matrix(1.00, 0.00, -0.00, -1.00, 231.0, 10.6)">e</text><text xml:space="preserve" font-family="HelveticaNeue-Light,Helvetica Neue" font-size="35.0" fill="#0948AA" transform="matrix(1.00, 0.00, -0.00, -1.00, 249.2, 10.6)">e</text><text xml:space="preserve" font-family="HelveticaNeue-Light,Helvetica Neue" font-size="35.0" fill="#0948AA" transform="matrix(1.00, 0.00, -0.00, -1.00, 267.3, 10.6)">s</text><text xml:space="preserve" font-family="HelveticaNeue-Light,Helvetica Neue" font-size="35.0" fill="#0948AA" transform="matrix(1.00, 0.00, -0.00, -1.00, 284.2, 10.6)">,</text><text xml:space="preserve" font-family="HelveticaNeue-Light,Helvetica Neue" font-size="35.0" fill="#0948AA" transform="matrix(1.00, 0.00, -0.00, -1.00, 293.9, 10.6)"> </text><text xml:space="preserve" font-family="HelveticaNeue-Light,Helvetica Neue" font-size="35.0" fill="#0948AA" transform="matrix(1.00, 0.00, -0.00, -1.00, 303.6, 10.6)">1</text><text xml:space="preserve" font-family="HelveticaNeue-Light,Helvetica Neue" font-size="35.0" fill="#0948AA" transform="matrix(1.00, 0.00, -0.00, -1.00, 323.1, 10.6)">,</text><text xml:space="preserve" font-family="HelveticaNeue-Light,Helvetica Neue" font-size="35.0" fill="#0948AA" transform="matrix(1.00, 0.00, -0.00, -1.00, 332.8, 10.6)">0</text><text xml:space="preserve" font-family="HelveticaNeue-Light,Helvetica Neue" font-size="35.0" fill="#0948AA" transform="matrix(1.00, 0.00, -0.00, -1.00, 352.3, 10.6)">0</text><text xml:space="preserve" font-family="HelveticaNeue-Light,Helvetica Neue" font-size="35.0" fill="#0948AA" transform="matrix(1.00, 0.00, -0.00, -1.00, 371.7, 10.6)">0</text><text xml:space="preserve" font-family="HelveticaNeue-Light,Helvetica Neue" font-size="35.0" fill="#0948AA" transform="matrix(1.00, 0.00, -0.00, -1.00, 391.2, 10.6)"> </text><text xml:space="preserve" font-family="HelveticaNeue-Light,Helvetica Neue" font-size="35.0" fill="#0948AA" transform="matrix(1.00, 0.00, -0.00, -1.00, 400.9, 10.6)">A</text><text xml:space="preserve" font-family="HelveticaNeue-Light,Helvetica Neue" font-size="35.0" fill="#0948AA" transform="matrix(1.00, 0.00, -0.00, -1.00, 423.0, 10.6)">p</text><text xml:space="preserve" font-family="HelveticaNeue-Light,Helvetica Neue" font-size="35.0" fill="#0948AA" transform="matrix(1.00, 0.00, -0.00, -1.00, 443.1, 10.6)">p</text><text xml:space="preserve" font-family="HelveticaNeue-Light,Helvetica Neue" font-size="35.0" fill="#0948AA" transform="matrix(1.00, 0.00, -0.00, -1.00, 463.1, 10.6)">l</text><text xml:space="preserve" font-family="HelveticaNeue-Light,Helvetica Neue" font-size="35.0" fill="#0948AA" transform="matrix(1.00, 0.00, -0.00, -1.00, 469.6, 10.6)">e</text><text xml:space="preserve" font-family="HelveticaNeue-Light,Helvetica Neue" font-size="35.0" fill="#0948AA" transform="matrix(1.00, 0.00, -0.00, -1.00, 487.8, 10.6)"> </text><text xml:space="preserve" font-family="HelveticaNeue-Light,Helvetica Neue" font-size="35.0" fill="#0948AA" transform="matrix(1.00, 0.00, -0.00, -1.00, 497.5, 10.6)">e</text><text xml:space="preserve" font-family="HelveticaNeue-Light,Helvetica Neue" font-size="35.0" fill="#0948AA" transform="matrix(1.00, 0.00, -0.00, -1.00, 515.7, 10.6)">n</text><text xml:space="preserve" font-family="HelveticaNeue-Light,Helvetica Neue" font-size="35.0" fill="#0948AA" transform="matrix(1.00, 0.00, -0.00, -1.00, 534.5, 10.6)">g</text><text xml:space="preserve" font-family="HelveticaNeue-Light,Helvetica Neue" font-size="35.0" fill="#0948AA" transform="matrix(1.00, 0.00, -0.00, -1.00, 553.9, 10.6)">i</text><text xml:space="preserve" font-family="HelveticaNeue-Light,Helvetica Neue" font-size="35.0" fill="#0948AA" transform="matrix(1.00, 0.00, -0.00, -1.00, 560.4, 10.6)">n</text><text xml:space="preserve" font-family="HelveticaNeue-Light,Helvetica Neue" font-size="35.0" fill="#0948AA" transform="matrix(1.00, 0.00, -0.00, -1.00, 579.2, 10.6)">e</text><text xml:space="preserve" font-family="HelveticaNeue-Light,Helvetica Neue" font-size="35.0" fill="#0948AA" transform="matrix(1.00, 0.00, -0.00, -1.00, 597.4, 10.6)">e</text><text xml:space="preserve" font-family="HelveticaNeue-Light,Helvetica Neue" font-size="35.0" fill="#0948AA" transform="matrix(1.00, 0.00, -0.00, -1.00, 615.5, 10.6)">r</text><text xml:space="preserve" font-family="HelveticaNeue-Light,Helvetica Neue" font-size="35.0" fill="#0948AA" transform="matrix(1.00, 0.00, -0.00, -1.00, 626.6, 10.6)">s</text></g></svg>