<?xml version="1.0" encoding="UTF-8" standalone="no"?><svg xmlns="http://www.w3.org/2000/svg" xmlns:xlink="http://www.w3.org/1999/xlink" clip-rule="evenodd" stroke-miterlimit="10" viewBox="0 0 1024 768"><desc>SVG generated by Keynote</desc><defs></defs><g transform="matrix(1.00, 0.00, -0.00, -1.00, 0.0, 768.0)"><path d="M 0.0 768.0 L 1024.0 768.0 L 1024.0 0.0 L 0.0 0.0 Z M 0.0 768.0 " fill="#000000"></path><path d="M 0.0 77.0 L 1024.0 77.0 L 1024.0 0.0 L 0.0 0.0 Z M -0.0 76.8 " fill="#0045AD"></path><text xml:space="preserve" font-family="ArialMT,Arial" font-size="9.0" fill="#4D93FF" transform="matrix(1.00, 0.00, -0.00, -1.00, 932.4, 8.3)">©</text><text xml:space="preserve" font-family="ArialMT,Arial" font-size="9.0" fill="#4D93FF" transform="matrix(1.00, 0.00, -0.00, -1.00, 939.0, 8.3)">2</text><text xml:space="preserve" font-family="ArialMT,Arial" font-size="9.0" fill="#4D93FF" transform="matrix(1.00, 0.00, -0.00, -1.00, 944.0, 8.3)">0</text><text xml:space="preserve" font-family="ArialMT,Arial" font-size="9.0" fill="#4D93FF" transform="matrix(1.00, 0.00, -0.00, -1.00, 949.0, 8.3)">1</text><text xml:space="preserve" font-family="ArialMT,Arial" font-size="9.0" fill="#4D93FF" transform="matrix(1.00, 0.00, -0.00, -1.00, 954.0, 8.3)">4</text><text xml:space="preserve" font-family="ArialMT,Arial" font-size="9.0" fill="#4D93FF" transform="matrix(1.00, 0.00, -0.00, -1.00, 959.1, 8.3)"> </text><text xml:space="preserve" font-family="ArialMT,Arial" font-size="9.0" fill="#4D93FF" transform="matrix(1.00, 0.00, -0.00, -1.00, 961.6, 8.3)">M</text><text xml:space="preserve" font-family="ArialMT,Arial" font-size="9.0" fill="#4D93FF" transform="matrix(1.00, 0.00, -0.00, -1.00, 969.0, 8.3)">F</text><text xml:space="preserve" font-family="ArialMT,Arial" font-size="9.0" fill="#4D93FF" transform="matrix(1.00, 0.00, -0.00, -1.00, 974.5, 8.3)">M</text><text xml:space="preserve" font-family="ArialMT,Arial" font-size="9.0" fill="#4D93FF" transform="matrix(1.00, 0.00, -0.00, -1.00, 982.0, 8.3)">E</text><text xml:space="preserve" font-family="ArialMT,Arial" font-size="9.0" fill="#4D93FF" transform="matrix(1.00, 0.00, -0.00, -1.00, 988.0, 8.3)">R</text><text xml:space="preserve" font-family="ArialMT,Arial" font-size="9.0" fill="#4D93FF" transform="matrix(1.00, 0.00, -0.00, -1.00, 994.5, 8.3)"> </text><text xml:space="preserve" font-family="ArialMT,Arial" font-size="9.0" fill="#4D93FF" transform="matrix(1.00, 0.00, -0.00, -1.00, 997.0, 8.3)"> </text><text xml:space="preserve" font-family="ArialMT,Arial" font-size="9.0" fill="#4D93FF" transform="matrix(1.00, 0.00, -0.00, -1.00, 999.5, 8.3)">|</text><g><clipPath id="clip0x7fcf55296650"><path d="M 19.6 10.2 L 54.5 10.2 L 54.5 38.5 L 19.6 38.5 Z M 19.6 10.2 "></path></clipPath><g clip-path="url(#clip0x7fcf55296650)"><path d="M 46.5 38.0 C 39.6 37.5 39.6 37.5 39.6 37.5 C 39.6 29.6 39.6 29.6 39.6 29.6 C 39.6 26.1 40.9 23.6 43.0 21.8 C 43.0 22.9 43.0 22.9 43.0 22.9 C 41.4 24.8 41.1 26.9 41.1 28.7 C 41.1 30.7 41.1 30.7 41.1 30.7 C 43.8 30.7 43.8 30.7 43.8 30.7 C 43.8 21.8 43.8 21.8 43.8 21.8 C 43.8 18.5 42.9 14.4 37.1 11.8 C 31.5 14.3 30.4 18.2 30.3 21.3 C 33.0 23.1 34.5 25.7 34.5 29.6 C 34.5 30.7 34.5 30.7 34.5 30.7 C 37.1 30.7 37.1 30.7 37.1 30.7 C 38.8 30.7 38.8 30.7 38.8 30.7 C 38.8 32.4 38.8 32.4 38.8 32.4 C 37.1 32.4 37.1 32.4 37.1 32.4 C 34.5 32.4 34.5 32.4 34.5 32.4 C 32.9 32.4 32.9 32.4 32.9 32.4 C 28.8 32.4 28.8 32.4 28.8 32.4 C 28.8 22.9 28.8 22.9 28.8 22.9 C 28.8 22.7 28.8 22.3 28.8 22.0 C 29.4 22.4 29.9 22.8 30.3 23.3 C 30.3 30.7 30.3 30.7 30.3 30.7 C 32.9 30.7 32.9 30.7 32.9 30.7 C 32.9 28.7 32.9 28.7 32.9 28.7 C 32.9 26.0 32.3 22.7 27.5 20.5 C 22.7 22.7 22.2 26.0 22.2 28.7 C 22.2 35.9 22.2 35.9 22.2 35.9 C 27.5 35.9 27.5 35.9 27.5 35.9 C 32.9 35.9 32.9 35.9 32.9 35.9 C 32.9 33.1 32.9 33.1 32.9 33.1 C 34.5 33.1 34.5 33.1 34.5 33.1 C 34.5 37.5 34.5 37.5 34.5 37.5 C 27.5 37.5 27.5 37.5 27.5 37.5 C 20.6 37.5 20.6 37.5 20.6 37.5 C 20.6 29.6 20.6 29.6 20.6 29.6 C 20.6 24.4 23.2 21.6 27.5 19.9 C 28.0 20.1 28.5 20.3 29.0 20.5 C 29.7 15.8 32.6 12.9 37.1 11.2 C 41.5 12.9 44.4 15.7 45.3 20.5 C 45.6 20.3 46.1 20.1 46.5 19.9 C 50.9 21.6 53.5 24.4 53.5 29.6 C 53.5 37.5 53.5 38.0 53.5 38.0 L 46.5 38.0 Z M 52.0 28.7 C 51.9 26.0 51.4 22.7 46.5 20.5 C 46.1 20.6 45.7 20.8 45.4 21.1 C 45.4 21.7 45.4 22.3 45.4 22.9 C 45.4 32.4 45.4 32.4 45.4 32.4 C 41.1 32.4 41.1 32.4 41.1 32.4 C 41.1 35.9 41.1 35.9 41.1 35.9 C 46.5 35.9 46.5 35.9 46.5 35.9 C 51.9 35.9 52.0 35.9 52.0 35.9 L 52.0 28.7 Z M 51.9 28.7 " fill="#FFFFFF"></path></g></g><g><clipPath id="clip0x7fcf5529cb20"><path d="M 22.1 40.8 L 31.2 40.8 L 31.2 51.7 L 22.1 51.7 Z M 22.1 40.8 "></path></clipPath><g clip-path="url(#clip0x7fcf5529cb20)"><path d="M 23.7 41.8 C 23.7 42.1 23.7 42.1 23.7 42.1 C 24.0 42.2 24.1 42.3 24.2 42.4 C 24.2 42.4 24.2 42.5 24.3 42.5 C 24.3 42.7 24.3 42.9 24.3 43.3 C 24.4 43.9 24.4 44.2 24.4 44.4 C 24.4 47.7 24.4 47.7 24.4 47.7 C 24.4 48.3 24.4 48.8 24.3 49.4 C 24.3 49.7 24.3 50.0 24.2 50.1 C 24.2 50.1 24.1 50.2 24.0 50.2 C 24.0 50.3 23.6 50.3 23.1 50.3 C 23.1 50.7 23.1 50.7 23.1 50.7 C 24.1 50.7 24.8 50.7 25.1 50.7 C 25.4 50.7 26.0 50.7 26.9 50.7 C 26.9 50.3 26.9 50.3 26.9 50.3 C 26.5 50.3 26.1 50.3 26.0 50.2 C 25.9 50.2 25.8 50.1 25.8 50.1 C 25.7 50.0 25.7 49.8 25.7 49.5 C 25.6 49.4 25.6 48.8 25.6 47.7 C 25.6 43.4 25.6 43.4 25.6 43.4 C 25.6 43.1 25.6 42.7 25.7 42.4 C 26.2 42.4 26.2 42.3 26.8 42.3 C 28.0 42.3 28.9 42.4 29.4 42.6 C 29.5 42.7 29.5 42.9 29.6 43.1 C 29.8 44.1 29.8 44.1 29.8 44.1 C 30.2 44.1 30.2 44.1 30.2 44.1 C 30.1 43.4 30.0 42.7 29.9 41.9 C 29.8 41.9 29.7 41.9 29.6 41.8 C 29.3 41.8 29.0 41.8 28.4 41.8 C 25.0 41.9 25.0 41.9 25.0 41.9 C 24.5 41.9 24.1 41.9 23.7 41.8 Z M 23.7 41.8 " fill="#FFFFFF"></path></g></g><g><clipPath id="clip0x7fcf5529d100"><path d="M 29.9 40.8 L 35.8 40.8 L 35.8 51.7 L 29.9 51.7 Z M 29.9 40.8 "></path></clipPath><g clip-path="url(#clip0x7fcf5529d100)"><path d="M 34.8 42.2 C 34.8 41.8 34.8 41.8 34.8 41.8 C 33.9 41.9 33.3 41.9 33.0 41.9 C 30.9 41.8 30.9 41.8 30.9 41.8 C 30.9 42.2 30.9 42.2 30.9 42.2 C 31.5 42.2 31.8 42.2 31.9 42.2 C 32.1 42.3 32.1 42.3 32.1 42.4 C 32.1 42.5 32.2 42.7 32.2 43.0 C 32.2 43.1 32.2 43.7 32.2 44.8 C 32.2 47.7 32.2 47.7 32.2 47.7 C 32.2 48.3 32.2 48.8 32.2 49.4 C 32.2 49.7 32.1 50.0 32.1 50.1 C 32.1 50.1 32.1 50.2 31.9 50.2 C 31.8 50.3 31.5 50.3 30.9 50.3 C 30.9 50.7 30.9 50.7 30.9 50.7 C 31.8 50.7 32.4 50.7 32.9 50.7 C 33.4 50.7 34.0 50.7 34.8 50.7 C 34.8 50.3 34.8 50.3 34.8 50.3 C 34.3 50.3 34.0 50.3 33.9 50.2 C 33.7 50.2 33.7 50.1 33.6 50.1 C 33.6 50.0 33.5 49.8 33.5 49.5 C 33.5 49.4 33.5 48.8 33.5 47.7 C 33.5 44.8 33.5 44.8 33.5 44.8 C 33.5 44.3 33.5 43.7 33.5 43.2 C 33.5 42.7 33.5 42.5 33.6 42.4 C 33.6 42.3 33.7 42.3 33.9 42.2 C 34.0 42.2 34.3 42.2 34.8 42.2 Z M 33.5 49.5 C 33.5 49.4 33.5 48.8 33.5 47.7 C 33.5 44.8 33.5 44.8 33.5 44.8 " fill="#FFFFFF"></path></g></g><g><clipPath id="clip0x7fcf5529e4b0"><path d="M 35.3 40.6 L 47.4 40.6 L 47.4 51.7 L 35.3 51.7 Z M 35.3 40.6 "></path></clipPath><g clip-path="url(#clip0x7fcf5529e4b0)"><path d="M 36.3 41.8 C 36.3 42.2 36.3 42.2 36.3 42.2 C 36.7 42.2 37.0 42.2 37.2 42.3 C 37.3 42.3 37.3 42.3 37.3 42.4 C 37.4 42.5 37.4 42.7 37.4 43.1 C 37.5 43.6 37.5 44.1 37.5 44.5 C 37.5 49.6 37.5 49.6 37.5 49.6 C 37.5 49.7 37.5 49.8 37.5 49.8 C 37.4 49.9 37.3 50.0 37.2 50.1 C 37.1 50.2 37.0 50.2 36.9 50.3 C 36.8 50.3 36.5 50.3 36.3 50.3 C 36.3 50.7 36.3 50.7 36.3 50.7 C 37.0 50.7 37.5 50.7 37.6 50.7 C 38.0 50.7 38.3 50.7 38.6 50.7 C 39.0 50.2 39.2 49.9 39.4 49.6 C 40.7 48.1 40.7 48.1 40.7 48.1 C 42.7 45.9 42.7 45.9 42.7 45.9 C 43.2 45.1 43.8 44.6 44.1 44.1 C 44.3 43.8 44.6 43.6 44.7 43.5 C 44.7 48.0 44.7 48.0 44.7 48.0 C 44.7 48.4 44.7 48.9 44.7 49.5 C 44.7 49.8 44.6 50.0 44.6 50.1 C 44.6 50.1 44.5 50.2 44.5 50.2 C 44.3 50.3 44.0 50.3 43.6 50.3 C 43.6 50.7 43.6 50.7 43.6 50.7 C 44.0 50.7 44.6 50.7 45.1 50.7 C 45.6 50.7 46.0 50.7 46.4 50.7 C 46.4 50.3 46.4 50.3 46.4 50.3 C 45.9 50.3 45.7 50.3 45.6 50.2 C 45.5 50.2 45.5 50.1 45.4 50.1 C 45.4 50.0 45.3 49.7 45.3 49.5 C 45.3 48.9 45.3 48.4 45.3 48.0 C 45.3 45.0 45.3 45.0 45.3 45.0 C 45.3 44.4 45.3 43.3 45.3 41.6 C 44.7 41.6 44.7 41.6 44.7 41.6 C 44.6 41.8 44.6 41.8 44.6 41.8 C 44.5 41.8 44.5 41.9 44.4 41.9 C 44.4 41.9 44.3 42.0 44.2 42.1 C 43.8 42.5 43.6 42.8 43.4 43.0 C 42.6 44.0 42.6 44.0 42.6 44.0 C 38.0 49.4 38.0 49.4 38.0 49.4 C 38.0 44.6 38.0 44.6 38.0 44.6 C 38.0 44.1 38.0 43.6 38.1 43.1 C 38.1 42.7 38.1 42.5 38.1 42.4 C 38.2 42.3 38.2 42.3 38.3 42.3 C 38.4 42.2 38.7 42.2 39.2 42.2 C 39.2 41.8 39.2 41.8 39.2 41.8 C 38.8 41.9 38.4 41.9 37.9 41.9 C 37.5 41.9 36.9 41.9 36.3 41.8 Z M 36.3 41.8 " fill="#FFFFFF"></path></g></g><g><clipPath id="clip0x7fcf5529fae0"><path d="M 46.6 40.8 L 52.4 40.8 L 52.4 51.7 L 46.6 51.7 Z M 46.6 40.8 "></path></clipPath><g clip-path="url(#clip0x7fcf5529fae0)"><path d="M 51.4 42.2 C 51.4 41.8 51.4 41.8 51.4 41.8 C 50.5 41.9 49.8 41.9 49.6 41.9 C 47.6 41.8 47.6 41.8 47.6 41.8 C 47.6 42.2 47.6 42.2 47.6 42.2 C 48.1 42.2 48.4 42.2 48.6 42.2 C 48.6 42.3 48.7 42.3 48.7 42.4 C 48.8 42.5 48.8 42.7 48.8 43.0 C 48.8 43.1 48.8 43.7 48.9 44.8 C 48.9 47.7 48.9 47.7 48.9 47.7 C 48.9 48.3 48.8 48.8 48.8 49.4 C 48.8 49.7 48.8 50.0 48.7 50.1 C 48.7 50.1 48.6 50.2 48.6 50.2 C 48.4 50.3 48.1 50.3 47.6 50.3 C 47.6 50.7 47.6 50.7 47.6 50.7 C 48.5 50.7 49.0 50.7 49.5 50.7 C 49.9 50.7 50.6 50.7 51.4 50.7 C 51.4 50.3 51.4 50.3 51.4 50.3 C 50.8 50.3 50.6 50.3 50.5 50.2 C 50.4 50.2 50.3 50.1 50.2 50.1 C 50.2 50.0 50.1 49.8 50.1 49.5 C 50.1 49.4 50.1 48.8 50.1 47.7 C 50.1 44.8 50.1 44.8 50.1 44.8 C 50.1 44.3 50.1 43.7 50.1 43.2 C 50.1 42.7 50.2 42.5 50.2 42.4 C 50.3 42.3 50.4 42.3 50.5 42.2 C 50.6 42.2 50.8 42.2 51.4 42.2 Z M 51.4 42.2 " fill="#FFFFFF"></path></g></g><g><clipPath id="clip0x7fcf552a0dc0"><path d="M 50.9 40.6 L 61.6 40.6 L 61.6 51.8 L 50.9 51.8 Z M 50.9 40.6 "></path></clipPath><g clip-path="url(#clip0x7fcf552a0dc0)"><path d="M 60.4 43.1 C 60.3 42.3 60.3 42.3 60.3 42.3 C 59.8 42.1 59.3 41.9 58.9 41.8 C 58.3 41.7 57.8 41.6 57.2 41.6 C 56.5 41.6 55.9 41.7 55.3 41.9 C 54.8 42.1 54.2 42.2 53.9 42.6 C 53.4 42.9 53.0 43.2 52.7 43.6 C 52.5 44.0 52.3 44.4 52.1 44.8 C 52.0 45.2 51.9 45.8 51.9 46.2 C 51.9 47.6 52.4 48.6 53.4 49.6 C 54.3 50.4 55.7 50.8 57.4 50.8 C 57.7 50.8 58.1 50.8 58.5 50.8 C 58.8 50.8 59.2 50.7 59.7 50.6 C 60.2 50.4 60.4 50.3 60.6 50.3 C 60.5 50.1 60.4 49.8 60.3 49.6 C 60.3 49.3 60.3 48.9 60.3 48.4 C 59.8 48.4 59.8 48.4 59.8 48.4 C 59.8 49.2 59.8 49.2 59.8 49.2 C 59.8 49.6 59.5 49.8 59.1 50.0 C 58.7 50.3 58.0 50.4 57.2 50.4 C 56.6 50.4 56.1 50.3 55.6 50.1 C 55.2 50.0 54.8 49.7 54.5 49.5 C 54.1 49.2 53.9 48.7 53.7 48.3 C 53.5 47.8 53.4 47.2 53.4 46.5 C 53.4 45.2 53.8 44.2 54.6 43.4 C 55.3 42.7 56.5 42.3 57.7 42.3 C 58.4 42.3 59.0 42.4 59.4 42.5 C 59.8 42.6 60.2 42.8 60.4 43.1 L 60.4 43.1 Z M 60.6 42.9 " fill="#FFFFFF"></path></g></g><g><clipPath id="clip0x7fcf552a1b40"><path d="M 12.5 40.6 L 23.2 40.6 L 23.2 51.8 L 12.5 51.8 Z M 12.5 40.6 "></path></clipPath><g clip-path="url(#clip0x7fcf552a1b40)"><path d="M 22.0 43.1 C 21.9 42.3 21.9 42.3 21.9 42.3 C 21.4 42.1 20.9 41.9 20.5 41.8 C 19.9 41.7 19.4 41.6 18.8 41.6 C 18.1 41.6 17.5 41.7 16.9 41.9 C 16.4 42.1 15.8 42.2 15.5 42.6 C 15.0 42.9 14.6 43.2 14.3 43.6 C 14.1 44.0 13.9 44.4 13.7 44.8 C 13.6 45.2 13.5 45.8 13.5 46.2 C 13.5 47.6 14.0 48.6 15.0 49.6 C 15.9 50.4 17.3 50.8 19.0 50.8 C 19.3 50.8 19.7 50.8 20.1 50.8 C 20.4 50.8 20.8 50.7 21.3 50.6 C 21.8 50.4 22.0 50.3 22.2 50.3 C 22.1 50.1 22.0 49.8 21.9 49.6 C 21.9 49.3 21.9 48.9 21.9 48.4 C 21.5 48.4 21.5 48.4 21.5 48.4 C 21.4 49.2 21.4 49.2 21.4 49.2 C 21.4 49.6 21.1 49.8 20.7 50.0 C 20.3 50.3 19.6 50.4 18.8 50.4 C 18.2 50.4 17.7 50.3 17.2 50.1 C 16.8 50.0 16.4 49.7 16.1 49.5 C 15.7 49.2 15.5 48.7 15.3 48.3 C 15.1 47.8 15.0 47.2 15.0 46.5 C 15.0 45.2 15.4 44.2 16.2 43.4 C 16.9 42.7 18.1 42.3 19.3 42.3 C 20.0 42.3 20.6 42.4 21.0 42.5 C 21.4 42.6 21.8 42.8 22.0 43.1 L 22.0 43.1 Z M 22.2 42.9 " fill="#FFFFFF"></path></g></g><g><clipPath id="clip0x7fcf552a2f10"><path d="M 16.2 52.5 L 30.2 52.5 L 30.2 63.4 L 16.2 63.4 Z M 16.2 52.5 "></path></clipPath><g clip-path="url(#clip0x7fcf552a2f10)"><path d="M 17.2 62.0 C 17.2 62.4 17.2 62.4 17.2 62.4 C 17.6 62.4 18.1 62.4 18.5 62.4 C 18.9 62.4 19.4 62.4 19.7 62.4 C 20.1 61.6 20.5 60.8 20.7 60.2 C 23.2 55.4 23.2 55.4 23.2 55.4 C 25.4 59.8 25.4 59.8 25.4 59.8 C 26.0 61.0 26.4 61.9 26.6 62.4 C 27.0 62.4 27.5 62.4 27.8 62.4 C 28.1 62.4 28.5 62.4 29.2 62.4 C 29.2 62.0 29.2 62.0 29.2 62.0 C 28.7 62.0 28.3 61.9 28.2 61.9 C 28.1 61.9 28.1 61.8 28.1 61.8 C 28.0 61.7 28.0 61.5 28.0 61.2 C 27.9 61.1 27.9 60.6 27.9 59.5 C 27.9 56.6 27.9 56.6 27.9 56.6 C 27.9 56.1 27.9 55.5 28.0 55.0 C 28.0 54.6 28.0 54.3 28.1 54.2 C 28.1 54.2 28.1 54.2 28.2 54.2 C 28.3 54.1 28.7 54.1 29.2 54.1 C 29.2 53.7 29.2 53.7 29.2 53.7 C 28.3 53.7 27.7 53.7 27.3 53.7 C 27.0 53.7 26.4 53.7 25.4 53.7 C 25.4 54.1 25.4 54.1 25.4 54.1 C 25.9 54.1 26.2 54.1 26.4 54.2 C 26.5 54.2 26.6 54.2 26.6 54.2 C 26.7 54.3 26.7 54.5 26.7 54.9 C 26.7 55.0 26.7 55.5 26.7 56.6 C 26.7 61.1 26.7 61.1 26.7 61.1 C 24.5 56.7 24.5 56.7 24.5 56.7 C 24.1 56.0 23.8 55.4 23.7 55.0 C 23.6 54.7 23.3 54.2 23.0 53.5 C 22.7 53.5 22.7 53.5 22.7 53.5 C 22.7 53.7 22.7 53.8 22.7 53.9 C 22.2 54.8 22.2 54.8 22.2 54.8 C 19.1 60.9 19.1 60.9 19.1 60.9 C 19.1 56.6 19.1 56.6 19.1 56.6 C 19.1 56.1 19.1 55.5 19.1 55.0 C 19.2 54.6 19.2 54.3 19.3 54.2 C 19.3 54.2 19.4 54.2 19.4 54.2 C 19.5 54.1 19.9 54.1 20.4 54.1 C 20.4 53.7 20.4 53.7 20.4 53.7 C 18.8 53.7 18.8 53.7 18.8 53.7 C 17.2 53.7 17.2 53.7 17.2 53.7 C 17.2 54.1 17.2 54.1 17.2 54.1 C 17.7 54.1 18.0 54.1 18.2 54.2 C 18.3 54.2 18.3 54.2 18.3 54.2 C 18.4 54.3 18.4 54.5 18.4 54.9 C 18.4 55.0 18.4 55.5 18.5 56.6 C 18.5 59.5 18.5 59.5 18.5 59.5 C 18.5 60.0 18.4 60.6 18.4 61.1 C 18.4 61.5 18.4 61.7 18.3 61.8 C 18.3 61.8 18.3 61.9 18.2 61.9 C 18.0 61.9 17.7 62.0 17.2 62.0 Z M 17.2 62.0 " fill="#FFFFFF"></path></g></g><g><clipPath id="clip0x7fcf552a4590"><path d="M 28.7 52.7 L 40.5 52.7 L 40.5 63.6 L 28.7 63.6 Z M 28.7 52.7 "></path></clipPath><g clip-path="url(#clip0x7fcf552a4590)"><path d="M 31.1 53.7 C 31.4 53.7 32.0 53.7 32.7 53.7 C 32.7 54.1 32.7 54.1 32.7 54.1 C 32.2 54.1 32.0 54.1 31.9 54.1 C 31.7 54.2 31.7 54.2 31.6 54.2 C 31.6 54.2 31.6 54.3 31.6 54.3 C 31.6 54.5 31.6 54.7 31.8 55.0 C 32.4 56.6 32.4 56.6 32.4 56.6 C 36.2 56.6 36.2 56.6 36.2 56.6 C 37.0 54.7 37.0 54.7 37.0 54.7 C 37.1 54.5 37.1 54.4 37.1 54.3 C 37.1 54.2 37.1 54.2 37.0 54.2 C 37.0 54.2 36.9 54.2 36.8 54.1 C 36.7 54.1 36.5 54.1 35.9 54.1 C 35.9 53.7 35.9 53.7 35.9 53.7 C 38.0 53.7 38.0 53.7 38.0 53.7 C 38.3 53.7 38.7 53.7 39.5 53.7 C 39.5 54.1 39.5 54.1 39.5 54.1 C 39.1 54.1 38.8 54.1 38.7 54.2 C 38.6 54.2 38.6 54.2 38.5 54.4 C 38.4 54.7 38.1 55.3 37.6 56.3 C 34.8 62.6 34.8 62.6 34.8 62.6 C 34.4 62.6 34.4 62.6 34.4 62.6 C 33.9 61.3 33.5 60.4 33.3 60.0 C 31.7 56.5 31.7 56.5 31.7 56.5 C 31.2 55.4 30.9 54.9 30.9 54.7 C 30.7 54.4 30.6 54.2 30.5 54.2 C 30.4 54.2 30.4 54.2 30.3 54.1 C 30.2 54.1 30.0 54.1 29.7 54.1 C 29.7 53.7 29.7 53.7 29.7 53.7 C 30.1 53.7 30.6 53.7 31.1 53.7 Z M 34.3 60.9 C 35.9 57.1 35.9 57.1 35.9 57.1 C 32.7 57.1 32.7 57.1 32.7 57.1 L 34.3 60.9 Z M 34.3 60.9 " fill="#FFFFFF"></path></g></g><g><clipPath id="clip0x7fcf552a51b0"><path d="M 36.7 53.6 L 47.4 53.6 L 47.4 63.4 L 36.7 63.4 Z M 36.7 53.6 "></path></clipPath><g clip-path="url(#clip0x7fcf552a51b0)"><path d="M 44.1 61.2 C 44.3 61.6 44.5 61.8 44.5 61.8 C 44.5 61.9 44.4 62.0 44.3 62.0 C 44.2 62.0 43.9 62.1 43.5 62.1 C 43.5 62.4 43.5 62.4 43.5 62.4 C 44.2 62.4 44.7 62.4 45.1 62.4 C 45.4 62.4 45.7 62.4 46.4 62.4 C 46.4 62.1 46.4 62.1 46.4 62.1 C 46.0 62.1 45.7 62.0 45.7 62.0 C 45.6 62.0 45.4 61.9 45.3 61.8 C 45.2 61.8 45.1 61.6 44.9 61.3 C 43.2 58.9 43.2 58.9 43.2 58.9 C 42.8 58.4 42.7 58.0 42.6 58.0 C 42.6 57.8 42.6 57.7 42.6 57.6 C 42.6 57.2 42.6 57.2 42.6 57.2 C 42.6 56.7 42.6 56.2 42.6 55.7 C 42.6 55.4 42.7 55.2 42.7 55.1 C 42.7 55.1 42.7 55.0 42.9 55.0 C 43.0 54.9 43.2 54.9 43.7 54.9 C 43.7 54.6 43.7 54.6 43.7 54.6 C 43.1 54.6 42.5 54.6 42.1 54.6 C 41.6 54.6 41.0 54.6 40.3 54.6 C 40.3 54.9 40.3 54.9 40.3 54.9 C 40.8 54.9 41.0 54.9 41.2 55.0 C 41.3 55.0 41.3 55.0 41.3 55.1 C 41.4 55.2 41.4 55.3 41.4 55.6 C 41.4 55.7 41.4 56.2 41.5 57.2 C 41.5 57.8 41.5 57.8 41.5 57.8 C 41.4 58.0 41.3 58.1 41.3 58.3 C 41.2 58.4 41.0 58.7 40.6 59.2 C 39.1 61.3 39.1 61.3 39.1 61.3 C 38.9 61.6 38.9 61.8 38.8 61.8 C 38.7 61.9 38.5 62.0 38.4 62.0 C 38.4 62.0 38.2 62.1 37.7 62.1 C 37.7 62.4 37.7 62.4 37.7 62.4 C 38.4 62.4 38.7 62.4 39.1 62.4 C 39.5 62.4 40.5 62.4 41.3 62.4 C 41.3 62.1 41.3 62.1 41.3 62.1 C 40.8 62.1 40.4 62.0 40.3 62.0 C 40.3 62.0 40.2 61.9 40.2 61.8 C 40.2 61.8 40.3 61.6 40.5 61.2 C 42.3 58.4 42.3 58.4 42.3 58.4 L 44.1 61.2 Z M 44.1 61.2 " fill="#FFFFFF"></path></g></g><g><clipPath id="clip0x7fcf552a5dd0"><path d="M 46.1 52.5 L 57.7 52.5 L 57.7 63.6 L 46.1 63.6 Z M 46.1 52.5 "></path></clipPath><g clip-path="url(#clip0x7fcf552a5dd0)"><path d="M 48.8 60.4 C 49.1 60.9 49.5 61.4 49.9 61.7 C 50.5 61.9 51.1 62.1 51.7 62.1 C 52.2 62.1 52.6 62.0 53.1 61.8 C 53.5 61.8 53.8 61.6 54.0 61.4 C 54.3 61.1 54.5 60.9 54.7 60.7 C 54.9 60.4 55.0 60.1 55.1 59.7 C 55.3 59.2 55.4 58.5 55.4 57.9 C 55.4 57.2 55.3 56.4 55.0 55.9 C 54.8 55.3 54.4 54.9 53.9 54.5 C 53.4 54.2 52.8 54.1 52.1 54.1 C 51.6 54.1 51.2 54.2 50.7 54.2 C 50.4 54.4 50.0 54.7 49.6 55.1 C 49.3 55.3 49.0 55.8 48.8 56.3 C 48.7 56.5 48.7 56.9 48.6 57.4 C 48.5 57.7 48.4 58.1 48.4 58.5 C 48.4 59.2 48.6 59.8 48.8 60.4 Z M 47.4 56.3 C 47.6 55.6 47.9 55.2 48.3 54.7 C 48.7 54.3 49.2 54.0 49.7 53.8 C 50.4 53.6 51.0 53.5 51.6 53.5 C 53.1 53.5 54.4 54.0 55.3 54.9 C 56.3 55.8 56.7 56.9 56.7 58.4 C 56.7 58.7 56.7 59.2 56.6 59.6 C 56.5 59.9 56.3 60.3 56.3 60.6 C 56.0 60.9 55.7 61.2 55.4 61.6 C 55.0 61.8 54.5 62.1 53.9 62.3 C 53.4 62.5 52.7 62.6 52.0 62.6 C 51.3 62.6 50.6 62.5 50.0 62.3 C 49.4 62.0 48.8 61.8 48.4 61.3 C 47.9 60.8 47.6 60.4 47.4 59.8 C 47.2 59.3 47.1 58.6 47.1 58.0 C 47.1 57.4 47.2 56.8 47.4 56.3 Z M 47.4 56.3 " fill="#FFFFFF"></path></g></g><text xml:space="preserve" font-family="ArialMT,Arial" font-size="9.0" fill="#4D93FF" transform="matrix(1.00, 0.00, -0.00, -1.00, 1013.2, 8.3)">3</text><image xlink:href="94A26D9F0132F3FDCB48AA94FAE3269B.png" width="410.00" height="56.00" transform="matrix(1.00, 0.00, -0.00, -1.00, 305.0, 752.0)"></image><text xml:space="preserve" font-family="HelveticaNeue-Light,Helvetica Neue" font-size="72.0" fill="#D5D5D5" transform="matrix(1.00, 0.00, -0.00, -1.00, 306.1, 699.4)">W</text><text xml:space="preserve" font-family="HelveticaNeue-Light,Helvetica Neue" font-size="72.0" fill="#D5D5D5" transform="matrix(1.00, 0.00, -0.00, -1.00, 371.4, 699.4)">W</text><text xml:space="preserve" font-family="HelveticaNeue-Light,Helvetica Neue" font-size="72.0" fill="#D5D5D5" transform="matrix(1.00, 0.00, -0.00, -1.00, 436.7, 699.4)">D</text><text xml:space="preserve" font-family="HelveticaNeue-Light,Helvetica Neue" font-size="72.0" fill="#D5D5D5" transform="matrix(1.00, 0.00, -0.00, -1.00, 486.0, 699.4)">C</text><text xml:space="preserve" font-family="HelveticaNeue-Light,Helvetica Neue" font-size="72.0" fill="#D5D5D5" transform="matrix(1.00, 0.00, -0.00, -1.00, 536.7, 699.4)"> </text><text xml:space="preserve" font-family="HelveticaNeue-Light,Helvetica Neue" font-size="72.0" fill="#D5D5D5" transform="matrix(1.00, 0.00, -0.00, -1.00, 556.8, 699.4)">2</text><text xml:space="preserve" font-family="HelveticaNeue-Light,Helvetica Neue" font-size="72.0" fill="#D5D5D5" transform="matrix(1.00, 0.00, -0.00, -1.00, 596.8, 699.4)">0</text><text xml:space="preserve" font-family="HelveticaNeue-Light,Helvetica Neue" font-size="72.0" fill="#D5D5D5" transform="matrix(1.00, 0.00, -0.00, -1.00, 636.8, 699.4)">1</text><text xml:space="preserve" font-family="HelveticaNeue-Light,Helvetica Neue" font-size="72.0" fill="#D5D5D5" transform="matrix(1.00, 0.00, -0.00, -1.00, 676.8, 699.4)">5</text><image xlink:href="1AE973EFCB1A7028F46FA1023A9753AE.jpeg" width="1024.00" height="768.00" transform="matrix(0.75, 0.00, -0.00, -0.75, 128.0, 672.0)"></image></g></svg>