<?xml version="1.0" encoding="UTF-8" standalone="no"?><svg xmlns="http://www.w3.org/2000/svg" xmlns:xlink="http://www.w3.org/1999/xlink" clip-rule="evenodd" stroke-miterlimit="10" viewBox="0 0 733 40"><desc>SVG generated by Keynote</desc><defs></defs><g transform="matrix(1.00, 0.00, -0.00, -1.00, 0.0, 40.0)"><image xlink:href="6F251FE30ABE1E9286FE5CD471DEE1A5.png" width="13.00" height="13.00" transform="matrix(1.00, 0.00, -0.00, -1.00, 2.0, 29.0)"></image><text xml:space="preserve" font-family="HelveticaNeue-Light,Helvetica Neue" font-size="26.2" fill="#0948AA" transform="matrix(1.00, 0.00, -0.00, -1.00, 1.8, 14.3)">•</text><image xlink:href="EB6100CE932CA0F9B1A170AED5113D00.png" width="693.00" height="35.00" transform="matrix(1.00, 0.00, -0.00, -1.00, 39.0, 37.0)"></image><text xml:space="preserve" font-family="HelveticaNeue-Light,Helvetica Neue" font-size="35.0" fill="#0948AA" transform="matrix(1.00, 0.00, -0.00, -1.00, 37.8, 11.3)">M</text><text xml:space="preserve" font-family="HelveticaNeue-Light,Helvetica Neue" font-size="35.0" fill="#0948AA" transform="matrix(1.00, 0.00, -0.00, -1.00, 66.5, 11.3)">e</text><text xml:space="preserve" font-family="HelveticaNeue-Light,Helvetica Neue" font-size="35.0" fill="#0948AA" transform="matrix(1.00, 0.00, -0.00, -1.00, 84.7, 11.3)">t</text><text xml:space="preserve" font-family="HelveticaNeue-Light,Helvetica Neue" font-size="35.0" fill="#0948AA" transform="matrix(1.00, 0.00, -0.00, -1.00, 95.0, 11.3)"> </text><text xml:space="preserve" font-family="HelveticaNeue-Light,Helvetica Neue" font-size="35.0" fill="#0948AA" transform="matrix(1.00, 0.00, -0.00, -1.00, 104.7, 11.3)">w</text><text xml:space="preserve" font-family="HelveticaNeue-Light,Helvetica Neue" font-size="35.0" fill="#0948AA" transform="matrix(1.00, 0.00, -0.00, -1.00, 130.7, 11.3)">i</text><text xml:space="preserve" font-family="HelveticaNeue-Light,Helvetica Neue" font-size="35.0" fill="#0948AA" transform="matrix(1.00, 0.00, -0.00, -1.00, 137.2, 11.3)">t</text><text xml:space="preserve" font-family="HelveticaNeue-Light,Helvetica Neue" font-size="35.0" fill="#0948AA" transform="matrix(1.00, 0.00, -0.00, -1.00, 147.5, 11.3)">h</text><text xml:space="preserve" font-family="HelveticaNeue-Light,Helvetica Neue" font-size="35.0" fill="#0948AA" transform="matrix(1.00, 0.00, -0.00, -1.00, 166.3, 11.3)"> </text><text xml:space="preserve" font-family="HelveticaNeue-Light,Helvetica Neue" font-size="35.0" fill="#0948AA" transform="matrix(1.00, 0.00, -0.00, -1.00, 176.0, 11.3)">v</text><text xml:space="preserve" font-family="HelveticaNeue-Light,Helvetica Neue" font-size="35.0" fill="#0948AA" transform="matrix(1.00, 0.00, -0.00, -1.00, 192.2, 11.3)">i</text><text xml:space="preserve" font-family="HelveticaNeue-Light,Helvetica Neue" font-size="35.0" fill="#0948AA" transform="matrix(1.00, 0.00, -0.00, -1.00, 198.7, 11.3)">d</text><text xml:space="preserve" font-family="HelveticaNeue-Light,Helvetica Neue" font-size="35.0" fill="#0948AA" transform="matrix(1.00, 0.00, -0.00, -1.00, 218.8, 11.3)">e</text><text xml:space="preserve" font-family="HelveticaNeue-Light,Helvetica Neue" font-size="35.0" fill="#0948AA" transform="matrix(1.00, 0.00, -0.00, -1.00, 237.0, 11.3)">o</text><text xml:space="preserve" font-family="HelveticaNeue-Light,Helvetica Neue" font-size="35.0" fill="#0948AA" transform="matrix(1.00, 0.00, -0.00, -1.00, 256.4, 11.3)"> </text><text xml:space="preserve" font-family="HelveticaNeue-Light,Helvetica Neue" font-size="35.0" fill="#0948AA" transform="matrix(1.00, 0.00, -0.00, -1.00, 266.2, 11.3)">h</text><text xml:space="preserve" font-family="HelveticaNeue-Light,Helvetica Neue" font-size="35.0" fill="#0948AA" transform="matrix(1.00, 0.00, -0.00, -1.00, 285.0, 11.3)">a</text><text xml:space="preserve" font-family="HelveticaNeue-Light,Helvetica Neue" font-size="35.0" fill="#0948AA" transform="matrix(1.00, 0.00, -0.00, -1.00, 303.1, 11.3)">r</text><text xml:space="preserve" font-family="HelveticaNeue-Light,Helvetica Neue" font-size="35.0" fill="#0948AA" transform="matrix(1.00, 0.00, -0.00, -1.00, 313.5, 11.3)">d</text><text xml:space="preserve" font-family="HelveticaNeue-Light,Helvetica Neue" font-size="35.0" fill="#0948AA" transform="matrix(1.00, 0.00, -0.00, -1.00, 333.6, 11.3)">w</text><text xml:space="preserve" font-family="HelveticaNeue-Light,Helvetica Neue" font-size="35.0" fill="#0948AA" transform="matrix(1.00, 0.00, -0.00, -1.00, 359.5, 11.3)">a</text><text xml:space="preserve" font-family="HelveticaNeue-Light,Helvetica Neue" font-size="35.0" fill="#0948AA" transform="matrix(1.00, 0.00, -0.00, -1.00, 377.7, 11.3)">r</text><text xml:space="preserve" font-family="HelveticaNeue-Light,Helvetica Neue" font-size="35.0" fill="#0948AA" transform="matrix(1.00, 0.00, -0.00, -1.00, 388.1, 11.3)">e</text><text xml:space="preserve" font-family="HelveticaNeue-Light,Helvetica Neue" font-size="35.0" fill="#0948AA" transform="matrix(1.00, 0.00, -0.00, -1.00, 406.3, 11.3)"> </text><text xml:space="preserve" font-family="HelveticaNeue-Light,Helvetica Neue" font-size="35.0" fill="#0948AA" transform="matrix(1.00, 0.00, -0.00, -1.00, 416.0, 11.3)">&amp;</text><text xml:space="preserve" font-family="HelveticaNeue-Light,Helvetica Neue" font-size="35.0" fill="#0948AA" transform="matrix(1.00, 0.00, -0.00, -1.00, 437.4, 11.3)"> </text><text xml:space="preserve" font-family="HelveticaNeue-Light,Helvetica Neue" font-size="35.0" fill="#0948AA" transform="matrix(1.00, 0.00, -0.00, -1.00, 447.1, 11.3)">s</text><text xml:space="preserve" font-family="HelveticaNeue-Light,Helvetica Neue" font-size="35.0" fill="#0948AA" transform="matrix(1.00, 0.00, -0.00, -1.00, 464.0, 11.3)">o</text><text xml:space="preserve" font-family="HelveticaNeue-Light,Helvetica Neue" font-size="35.0" fill="#0948AA" transform="matrix(1.00, 0.00, -0.00, -1.00, 483.4, 11.3)">f</text><text xml:space="preserve" font-family="HelveticaNeue-Light,Helvetica Neue" font-size="35.0" fill="#0948AA" transform="matrix(1.00, 0.00, -0.00, -1.00, 492.5, 11.3)">t</text><text xml:space="preserve" font-family="HelveticaNeue-Light,Helvetica Neue" font-size="35.0" fill="#0948AA" transform="matrix(1.00, 0.00, -0.00, -1.00, 502.8, 11.3)">w</text><text xml:space="preserve" font-family="HelveticaNeue-Light,Helvetica Neue" font-size="35.0" fill="#0948AA" transform="matrix(1.00, 0.00, -0.00, -1.00, 528.8, 11.3)">a</text><text xml:space="preserve" font-family="HelveticaNeue-Light,Helvetica Neue" font-size="35.0" fill="#0948AA" transform="matrix(1.00, 0.00, -0.00, -1.00, 546.9, 11.3)">r</text><text xml:space="preserve" font-family="HelveticaNeue-Light,Helvetica Neue" font-size="35.0" fill="#0948AA" transform="matrix(1.00, 0.00, -0.00, -1.00, 557.3, 11.3)">e</text><text xml:space="preserve" font-family="HelveticaNeue-Light,Helvetica Neue" font-size="35.0" fill="#0948AA" transform="matrix(1.00, 0.00, -0.00, -1.00, 575.5, 11.3)"> </text><text xml:space="preserve" font-family="HelveticaNeue-Light,Helvetica Neue" font-size="35.0" fill="#0948AA" transform="matrix(1.00, 0.00, -0.00, -1.00, 585.2, 11.3)">e</text><text xml:space="preserve" font-family="HelveticaNeue-Light,Helvetica Neue" font-size="35.0" fill="#0948AA" transform="matrix(1.00, 0.00, -0.00, -1.00, 603.4, 11.3)">n</text><text xml:space="preserve" font-family="HelveticaNeue-Light,Helvetica Neue" font-size="35.0" fill="#0948AA" transform="matrix(1.00, 0.00, -0.00, -1.00, 622.2, 11.3)">g</text><text xml:space="preserve" font-family="HelveticaNeue-Light,Helvetica Neue" font-size="35.0" fill="#0948AA" transform="matrix(1.00, 0.00, -0.00, -1.00, 641.6, 11.3)">i</text><text xml:space="preserve" font-family="HelveticaNeue-Light,Helvetica Neue" font-size="35.0" fill="#0948AA" transform="matrix(1.00, 0.00, -0.00, -1.00, 648.1, 11.3)">n</text><text xml:space="preserve" font-family="HelveticaNeue-Light,Helvetica Neue" font-size="35.0" fill="#0948AA" transform="matrix(1.00, 0.00, -0.00, -1.00, 666.9, 11.3)">e</text><text xml:space="preserve" font-family="HelveticaNeue-Light,Helvetica Neue" font-size="35.0" fill="#0948AA" transform="matrix(1.00, 0.00, -0.00, -1.00, 685.1, 11.3)">e</text><text xml:space="preserve" font-family="HelveticaNeue-Light,Helvetica Neue" font-size="35.0" fill="#0948AA" transform="matrix(1.00, 0.00, -0.00, -1.00, 703.2, 11.3)">r</text><text xml:space="preserve" font-family="HelveticaNeue-Light,Helvetica Neue" font-size="35.0" fill="#0948AA" transform="matrix(1.00, 0.00, -0.00, -1.00, 714.3, 11.3)">s</text></g></svg>