<?xml version="1.0" encoding="UTF-8" standalone="no"?><svg xmlns="http://www.w3.org/2000/svg" xmlns:xlink="http://www.w3.org/1999/xlink" clip-rule="evenodd" stroke-miterlimit="10" viewBox="0 0 347 40"><desc>SVG generated by Keynote</desc><defs></defs><g transform="matrix(1.00, 0.00, -0.00, -1.00, 0.0, 40.0)"><image xlink:href="../../089E573D-B969-4A9F-A867-C046106DEB6B/assets/6F251FE30ABE1E9286FE5CD471DEE1A5.png" width="13.00" height="13.00" transform="matrix(1.00, 0.00, -0.00, -1.00, 2.0, 29.0)"></image><text xml:space="preserve" font-family="HelveticaNeue-Light,Helvetica Neue" font-size="26.2" fill="#0948AA" transform="matrix(1.00, 0.00, -0.00, -1.00, 1.8, 14.3)">•</text><image xlink:href="D4E3FF691438E571C652F090EBD8F6D4.png" width="58.00" height="29.00" transform="matrix(1.00, 0.00, -0.00, -1.00, 36.0, 37.0)"></image><text xml:space="preserve" font-family="HelveticaNeue-LightItalic,Helvetica Neue" font-style="italic" font-size="35.0" fill="#0948AA" transform="matrix(1.00, 0.00, -0.00, -1.00, 37.8, 11.3)">N</text><text xml:space="preserve" font-family="HelveticaNeue-LightItalic,Helvetica Neue" font-style="italic" font-size="35.0" fill="#0948AA" transform="matrix(1.00, 0.00, -0.00, -1.00, 62.4, 11.3)">o</text><text xml:space="preserve" font-family="HelveticaNeue-LightItalic,Helvetica Neue" font-style="italic" font-size="35.0" fill="#0948AA" transform="matrix(1.00, 0.00, -0.00, -1.00, 81.9, 11.3)">t</text><image xlink:href="4C23F754BA911C69D0C7CF4C32C11DA5.png" width="243.00" height="35.00" transform="matrix(1.00, 0.00, -0.00, -1.00, 103.0, 37.0)"></image><text xml:space="preserve" font-family="HelveticaNeue-Light,Helvetica Neue" font-size="35.0" fill="#0948AA" transform="matrix(1.00, 0.00, -0.00, -1.00, 92.2, 11.3)"> </text><text xml:space="preserve" font-family="HelveticaNeue-Light,Helvetica Neue" font-size="35.0" fill="#0948AA" transform="matrix(1.00, 0.00, -0.00, -1.00, 101.9, 11.3)">p</text><text xml:space="preserve" font-family="HelveticaNeue-Light,Helvetica Neue" font-size="35.0" fill="#0948AA" transform="matrix(1.00, 0.00, -0.00, -1.00, 122.0, 11.3)">a</text><text xml:space="preserve" font-family="HelveticaNeue-Light,Helvetica Neue" font-size="35.0" fill="#0948AA" transform="matrix(1.00, 0.00, -0.00, -1.00, 140.2, 11.3)">s</text><text xml:space="preserve" font-family="HelveticaNeue-Light,Helvetica Neue" font-size="35.0" fill="#0948AA" transform="matrix(1.00, 0.00, -0.00, -1.00, 157.0, 11.3)">s</text><text xml:space="preserve" font-family="HelveticaNeue-Light,Helvetica Neue" font-size="35.0" fill="#0948AA" transform="matrix(1.00, 0.00, -0.00, -1.00, 173.9, 11.3)">i</text><text xml:space="preserve" font-family="HelveticaNeue-Light,Helvetica Neue" font-size="35.0" fill="#0948AA" transform="matrix(1.00, 0.00, -0.00, -1.00, 180.3, 11.3)">v</text><text xml:space="preserve" font-family="HelveticaNeue-Light,Helvetica Neue" font-size="35.0" fill="#0948AA" transform="matrix(1.00, 0.00, -0.00, -1.00, 196.6, 11.3)">e</text><text xml:space="preserve" font-family="HelveticaNeue-Light,Helvetica Neue" font-size="35.0" fill="#0948AA" transform="matrix(1.00, 0.00, -0.00, -1.00, 214.7, 11.3)"> </text><text xml:space="preserve" font-family="HelveticaNeue-Light,Helvetica Neue" font-size="35.0" fill="#0948AA" transform="matrix(1.00, 0.00, -0.00, -1.00, 224.4, 11.3)">d</text><text xml:space="preserve" font-family="HelveticaNeue-Light,Helvetica Neue" font-size="35.0" fill="#0948AA" transform="matrix(1.00, 0.00, -0.00, -1.00, 244.5, 11.3)">i</text><text xml:space="preserve" font-family="HelveticaNeue-Light,Helvetica Neue" font-size="35.0" fill="#0948AA" transform="matrix(1.00, 0.00, -0.00, -1.00, 251.0, 11.3)">s</text><text xml:space="preserve" font-family="HelveticaNeue-Light,Helvetica Neue" font-size="35.0" fill="#0948AA" transform="matrix(1.00, 0.00, -0.00, -1.00, 267.8, 11.3)">p</text><text xml:space="preserve" font-family="HelveticaNeue-Light,Helvetica Neue" font-size="35.0" fill="#0948AA" transform="matrix(1.00, 0.00, -0.00, -1.00, 287.9, 11.3)">l</text><text xml:space="preserve" font-family="HelveticaNeue-Light,Helvetica Neue" font-size="35.0" fill="#0948AA" transform="matrix(1.00, 0.00, -0.00, -1.00, 294.4, 11.3)">a</text><text xml:space="preserve" font-family="HelveticaNeue-Light,Helvetica Neue" font-size="35.0" fill="#0948AA" transform="matrix(1.00, 0.00, -0.00, -1.00, 312.6, 11.3)">y</text><text xml:space="preserve" font-family="HelveticaNeue-Light,Helvetica Neue" font-size="35.0" fill="#0948AA" transform="matrix(1.00, 0.00, -0.00, -1.00, 328.8, 11.3)">s</text></g></svg>