<?xml version="1.0" encoding="UTF-8" standalone="no"?><svg xmlns="http://www.w3.org/2000/svg" xmlns:xlink="http://www.w3.org/1999/xlink" clip-rule="evenodd" stroke-miterlimit="10" viewBox="0 0 600 39"><desc>SVG generated by Keynote</desc><defs></defs><g transform="matrix(1.00, 0.00, -0.00, -1.00, 0.0, 39.0)"><g><clipPath id="clip0x7fcf55baf450"><path d="M 298.9 0.2 L 599.4 0.2 L 599.4 38.6 L 298.9 38.6 Z M 298.9 0.2 "></path></clipPath><g clip-path="url(#clip0x7fcf55baf450)"><path d="M 299.9 7.3 L 300.0 31.5 C 300.0 34.8 302.6 38.0 306.0 38.0 L 592.3 38.0 C 595.7 38.0 598.0 34.8 598.0 31.5 L 598.0 7.3 C 598.0 4.0 595.7 1.0 592.3 1.0 L 306.0 1.0 C 302.6 1.0 299.9 4.0 299.9 7.3 Z M 299.9 7.3 " fill="#72FA78"></path></g></g><g><clipPath id="clip0x7fcf55bb0820"><path d="M 298.9 -2.5 L 599.4 -2.5 L 599.4 40.6 L 298.9 40.6 Z M 298.9 -2.5 "></path></clipPath><g clip-path="url(#clip0x7fcf55bb0820)"><text xml:space="preserve" font-family="HelveticaNeue-Light,Helvetica Neue" font-size="24.0" fill="#424242" transform="matrix(1.00, 0.00, -0.00, -1.00, 308.2, 10.4)">M</text><text xml:space="preserve" font-family="HelveticaNeue-Light,Helvetica Neue" font-size="24.0" fill="#424242" transform="matrix(1.00, 0.00, -0.00, -1.00, 327.9, 10.4)">e</text><text xml:space="preserve" font-family="HelveticaNeue-Light,Helvetica Neue" font-size="24.0" fill="#424242" transform="matrix(1.00, 0.00, -0.00, -1.00, 340.3, 10.4)">e</text><text xml:space="preserve" font-family="HelveticaNeue-Light,Helvetica Neue" font-size="24.0" fill="#424242" transform="matrix(1.00, 0.00, -0.00, -1.00, 352.8, 10.4)">t</text><text xml:space="preserve" font-family="HelveticaNeue-Light,Helvetica Neue" font-size="24.0" fill="#424242" transform="matrix(1.00, 0.00, -0.00, -1.00, 359.9, 10.4)">s</text><text xml:space="preserve" font-family="HelveticaNeue-Light,Helvetica Neue" font-size="24.0" fill="#424242" transform="matrix(1.00, 0.00, -0.00, -1.00, 371.4, 10.4)"> </text><text xml:space="preserve" font-family="HelveticaNeue-Light,Helvetica Neue" font-size="24.0" fill="#424242" transform="matrix(1.00, 0.00, -0.00, -1.00, 378.1, 10.4)">o</text><text xml:space="preserve" font-family="HelveticaNeue-Light,Helvetica Neue" font-size="24.0" fill="#424242" transform="matrix(1.00, 0.00, -0.00, -1.00, 391.4, 10.4)">r</text><text xml:space="preserve" font-family="HelveticaNeue-Light,Helvetica Neue" font-size="24.0" fill="#424242" transform="matrix(1.00, 0.00, -0.00, -1.00, 399.0, 10.4)"> </text><text xml:space="preserve" font-family="HelveticaNeue-Light,Helvetica Neue" font-size="24.0" fill="#424242" transform="matrix(1.00, 0.00, -0.00, -1.00, 405.7, 10.4)">e</text><text xml:space="preserve" font-family="HelveticaNeue-Light,Helvetica Neue" font-size="24.0" fill="#424242" transform="matrix(1.00, 0.00, -0.00, -1.00, 418.1, 10.4)">x</text><text xml:space="preserve" font-family="HelveticaNeue-Light,Helvetica Neue" font-size="24.0" fill="#424242" transform="matrix(1.00, 0.00, -0.00, -1.00, 429.7, 10.4)">c</text><text xml:space="preserve" font-family="HelveticaNeue-Light,Helvetica Neue" font-size="24.0" fill="#424242" transform="matrix(1.00, 0.00, -0.00, -1.00, 442.1, 10.4)">e</text><text xml:space="preserve" font-family="HelveticaNeue-Light,Helvetica Neue" font-size="24.0" fill="#424242" transform="matrix(1.00, 0.00, -0.00, -1.00, 454.6, 10.4)">e</text><text xml:space="preserve" font-family="HelveticaNeue-Light,Helvetica Neue" font-size="24.0" fill="#424242" transform="matrix(1.00, 0.00, -0.00, -1.00, 467.0, 10.4)">d</text><text xml:space="preserve" font-family="HelveticaNeue-Light,Helvetica Neue" font-size="24.0" fill="#424242" transform="matrix(1.00, 0.00, -0.00, -1.00, 480.8, 10.4)">s</text><text xml:space="preserve" font-family="HelveticaNeue-Light,Helvetica Neue" font-size="24.0" fill="#424242" transform="matrix(1.00, 0.00, -0.00, -1.00, 492.4, 10.4)"> </text><text xml:space="preserve" font-family="HelveticaNeue-Light,Helvetica Neue" font-size="24.0" fill="#424242" transform="matrix(1.00, 0.00, -0.00, -1.00, 499.0, 10.4)">s</text><text xml:space="preserve" font-family="HelveticaNeue-Light,Helvetica Neue" font-size="24.0" fill="#424242" transform="matrix(1.00, 0.00, -0.00, -1.00, 510.6, 10.4)">t</text><text xml:space="preserve" font-family="HelveticaNeue-Light,Helvetica Neue" font-size="24.0" fill="#424242" transform="matrix(1.00, 0.00, -0.00, -1.00, 517.7, 10.4)">a</text><text xml:space="preserve" font-family="HelveticaNeue-Light,Helvetica Neue" font-size="24.0" fill="#424242" transform="matrix(1.00, 0.00, -0.00, -1.00, 530.1, 10.4)">n</text><text xml:space="preserve" font-family="HelveticaNeue-Light,Helvetica Neue" font-size="24.0" fill="#424242" transform="matrix(1.00, 0.00, -0.00, -1.00, 543.0, 10.4)">d</text><text xml:space="preserve" font-family="HelveticaNeue-Light,Helvetica Neue" font-size="24.0" fill="#424242" transform="matrix(1.00, 0.00, -0.00, -1.00, 556.8, 10.4)">a</text><text xml:space="preserve" font-family="HelveticaNeue-Light,Helvetica Neue" font-size="24.0" fill="#424242" transform="matrix(1.00, 0.00, -0.00, -1.00, 569.3, 10.4)">r</text><text xml:space="preserve" font-family="HelveticaNeue-Light,Helvetica Neue" font-size="24.0" fill="#424242" transform="matrix(1.00, 0.00, -0.00, -1.00, 576.4, 10.4)">d</text></g></g><g><clipPath id="clip0x7fcf55f2b940"><path d="M 0.6 0.2 L 301.1 0.2 L 301.1 38.6 L 0.6 38.6 Z M 0.6 0.2 "></path></clipPath><g clip-path="url(#clip0x7fcf55f2b940)"><path d="M 1.6 7.3 L 2.0 31.5 C 2.0 34.8 4.3 38.0 7.7 38.0 L 294.0 38.0 C 297.4 38.0 300.0 34.8 300.0 31.5 L 300.0 7.3 C 300.0 4.0 297.4 1.0 294.0 1.0 L 7.7 1.0 C 4.3 1.0 1.6 4.0 1.6 7.3 Z M 1.6 7.3 " fill="#FF7D78"></path></g></g><g><clipPath id="clip0x7fcf55f2cb00"><path d="M 0.6 -2.5 L 301.1 -2.5 L 301.1 40.6 L 0.6 40.6 Z M 0.6 -2.5 "></path></clipPath><g clip-path="url(#clip0x7fcf55f2cb00)"><text xml:space="preserve" font-family="HelveticaNeue-Light,Helvetica Neue" font-size="24.0" fill="#424242" transform="matrix(1.00, 0.00, -0.00, -1.00, 36.1, 10.4)">F</text><text xml:space="preserve" font-family="HelveticaNeue-Light,Helvetica Neue" font-size="24.0" fill="#424242" transform="matrix(1.00, 0.00, -0.00, -1.00, 49.0, 10.4)">a</text><text xml:space="preserve" font-family="HelveticaNeue-Light,Helvetica Neue" font-size="24.0" fill="#424242" transform="matrix(1.00, 0.00, -0.00, -1.00, 61.5, 10.4)">i</text><text xml:space="preserve" font-family="HelveticaNeue-Light,Helvetica Neue" font-size="24.0" fill="#424242" transform="matrix(1.00, 0.00, -0.00, -1.00, 65.9, 10.4)">l</text><text xml:space="preserve" font-family="HelveticaNeue-Light,Helvetica Neue" font-size="24.0" fill="#424242" transform="matrix(1.00, 0.00, -0.00, -1.00, 70.4, 10.4)">s</text><text xml:space="preserve" font-family="HelveticaNeue-Light,Helvetica Neue" font-size="24.0" fill="#424242" transform="matrix(1.00, 0.00, -0.00, -1.00, 81.9, 10.4)"> </text><text xml:space="preserve" font-family="HelveticaNeue-Light,Helvetica Neue" font-size="24.0" fill="#424242" transform="matrix(1.00, 0.00, -0.00, -1.00, 88.6, 10.4)">t</text><text xml:space="preserve" font-family="HelveticaNeue-Light,Helvetica Neue" font-size="24.0" fill="#424242" transform="matrix(1.00, 0.00, -0.00, -1.00, 95.7, 10.4)">o</text><text xml:space="preserve" font-family="HelveticaNeue-Light,Helvetica Neue" font-size="24.0" fill="#424242" transform="matrix(1.00, 0.00, -0.00, -1.00, 109.0, 10.4)"> </text><text xml:space="preserve" font-family="HelveticaNeue-Light,Helvetica Neue" font-size="24.0" fill="#424242" transform="matrix(1.00, 0.00, -0.00, -1.00, 115.7, 10.4)">m</text><text xml:space="preserve" font-family="HelveticaNeue-Light,Helvetica Neue" font-size="24.0" fill="#424242" transform="matrix(1.00, 0.00, -0.00, -1.00, 135.7, 10.4)">e</text><text xml:space="preserve" font-family="HelveticaNeue-Light,Helvetica Neue" font-size="24.0" fill="#424242" transform="matrix(1.00, 0.00, -0.00, -1.00, 148.2, 10.4)">e</text><text xml:space="preserve" font-family="HelveticaNeue-Light,Helvetica Neue" font-size="24.0" fill="#424242" transform="matrix(1.00, 0.00, -0.00, -1.00, 160.6, 10.4)">t</text><text xml:space="preserve" font-family="HelveticaNeue-Light,Helvetica Neue" font-size="24.0" fill="#424242" transform="matrix(1.00, 0.00, -0.00, -1.00, 167.7, 10.4)"> </text><text xml:space="preserve" font-family="HelveticaNeue-Light,Helvetica Neue" font-size="24.0" fill="#424242" transform="matrix(1.00, 0.00, -0.00, -1.00, 174.4, 10.4)">s</text><text xml:space="preserve" font-family="HelveticaNeue-Light,Helvetica Neue" font-size="24.0" fill="#424242" transform="matrix(1.00, 0.00, -0.00, -1.00, 185.9, 10.4)">t</text><text xml:space="preserve" font-family="HelveticaNeue-Light,Helvetica Neue" font-size="24.0" fill="#424242" transform="matrix(1.00, 0.00, -0.00, -1.00, 193.0, 10.4)">a</text><text xml:space="preserve" font-family="HelveticaNeue-Light,Helvetica Neue" font-size="24.0" fill="#424242" transform="matrix(1.00, 0.00, -0.00, -1.00, 205.5, 10.4)">n</text><text xml:space="preserve" font-family="HelveticaNeue-Light,Helvetica Neue" font-size="24.0" fill="#424242" transform="matrix(1.00, 0.00, -0.00, -1.00, 218.4, 10.4)">d</text><text xml:space="preserve" font-family="HelveticaNeue-Light,Helvetica Neue" font-size="24.0" fill="#424242" transform="matrix(1.00, 0.00, -0.00, -1.00, 232.2, 10.4)">a</text><text xml:space="preserve" font-family="HelveticaNeue-Light,Helvetica Neue" font-size="24.0" fill="#424242" transform="matrix(1.00, 0.00, -0.00, -1.00, 244.6, 10.4)">r</text><text xml:space="preserve" font-family="HelveticaNeue-Light,Helvetica Neue" font-size="24.0" fill="#424242" transform="matrix(1.00, 0.00, -0.00, -1.00, 251.7, 10.4)">d</text></g></g></g></svg>