<?xml version="1.0" encoding="UTF-8" standalone="no"?><svg xmlns="http://www.w3.org/2000/svg" xmlns:xlink="http://www.w3.org/1999/xlink" clip-rule="evenodd" stroke-miterlimit="10" viewBox="0 0 480 70"><desc>SVG generated by Keynote</desc><defs></defs><g transform="matrix(1.00, 0.00, -0.00, -1.00, 0.0, 70.0)"><image xlink:href="../../D53D08E9-3779-442F-ADEB-24640BDD65C8/assets/5254D18F88D1EA9C0779C6EB47D0FE1A.png" width="478.00" height="68.00" transform="matrix(1.00, 0.00, -0.00, -1.00, 1.0, 69.0)"></image><text xml:space="preserve" font-family="HelveticaNeue-Light,Helvetica Neue" font-size="72.0" fill="#0948AA" transform="matrix(1.00, 0.00, -0.00, -1.00, -2.4, 17.4)">M</text><text xml:space="preserve" font-family="HelveticaNeue-Light,Helvetica Neue" font-size="72.0" fill="#0948AA" transform="matrix(1.00, 0.00, -0.00, -1.00, 56.7, 17.4)">o</text><text xml:space="preserve" font-family="HelveticaNeue-Light,Helvetica Neue" font-size="72.0" fill="#0948AA" transform="matrix(1.00, 0.00, -0.00, -1.00, 96.8, 17.4)">b</text><text xml:space="preserve" font-family="HelveticaNeue-Light,Helvetica Neue" font-size="72.0" fill="#0948AA" transform="matrix(1.00, 0.00, -0.00, -1.00, 138.1, 17.4)">i</text><text xml:space="preserve" font-family="HelveticaNeue-Light,Helvetica Neue" font-size="72.0" fill="#0948AA" transform="matrix(1.00, 0.00, -0.00, -1.00, 151.4, 17.4)">l</text><text xml:space="preserve" font-family="HelveticaNeue-Light,Helvetica Neue" font-size="72.0" fill="#0948AA" transform="matrix(1.00, 0.00, -0.00, -1.00, 164.7, 17.4)">e</text><text xml:space="preserve" font-family="HelveticaNeue-Light,Helvetica Neue" font-size="72.0" fill="#0948AA" transform="matrix(1.00, 0.00, -0.00, -1.00, 202.1, 17.4)"> </text><text xml:space="preserve" font-family="HelveticaNeue-Light,Helvetica Neue" font-size="72.0" fill="#0948AA" transform="matrix(1.00, 0.00, -0.00, -1.00, 222.1, 17.4)">D</text><text xml:space="preserve" font-family="HelveticaNeue-Light,Helvetica Neue" font-size="72.0" fill="#0948AA" transform="matrix(1.00, 0.00, -0.00, -1.00, 271.4, 17.4)">i</text><text xml:space="preserve" font-family="HelveticaNeue-Light,Helvetica Neue" font-size="72.0" fill="#0948AA" transform="matrix(1.00, 0.00, -0.00, -1.00, 284.8, 17.4)">s</text><text xml:space="preserve" font-family="HelveticaNeue-Light,Helvetica Neue" font-size="72.0" fill="#0948AA" transform="matrix(1.00, 0.00, -0.00, -1.00, 319.4, 17.4)">p</text><text xml:space="preserve" font-family="HelveticaNeue-Light,Helvetica Neue" font-size="72.0" fill="#0948AA" transform="matrix(1.00, 0.00, -0.00, -1.00, 360.7, 17.4)">l</text><text xml:space="preserve" font-family="HelveticaNeue-Light,Helvetica Neue" font-size="72.0" fill="#0948AA" transform="matrix(1.00, 0.00, -0.00, -1.00, 374.0, 17.4)">a</text><text xml:space="preserve" font-family="HelveticaNeue-Light,Helvetica Neue" font-size="72.0" fill="#0948AA" transform="matrix(1.00, 0.00, -0.00, -1.00, 411.4, 17.4)">y</text><text xml:space="preserve" font-family="HelveticaNeue-Light,Helvetica Neue" font-size="72.0" fill="#0948AA" transform="matrix(1.00, 0.00, -0.00, -1.00, 444.7, 17.4)">s</text></g></svg>