<?xml version="1.0" encoding="UTF-8" standalone="no"?><svg xmlns="http://www.w3.org/2000/svg" xmlns:xlink="http://www.w3.org/1999/xlink" clip-rule="evenodd" stroke-miterlimit="10" viewBox="0 0 73 12"><desc>SVG generated by Keynote</desc><defs></defs><g transform="matrix(1.00, 0.00, -0.00, -1.00, 0.0, 12.0)"><text xml:space="preserve" font-family="ArialMT,Arial" font-size="9.0" fill="#4D93FF" transform="matrix(1.00, 0.00, -0.00, -1.00, 1.4, 3.3)">©</text><text xml:space="preserve" font-family="ArialMT,Arial" font-size="9.0" fill="#4D93FF" transform="matrix(1.00, 0.00, -0.00, -1.00, 8.0, 3.3)">2</text><text xml:space="preserve" font-family="ArialMT,Arial" font-size="9.0" fill="#4D93FF" transform="matrix(1.00, 0.00, -0.00, -1.00, 13.0, 3.3)">0</text><text xml:space="preserve" font-family="ArialMT,Arial" font-size="9.0" fill="#4D93FF" transform="matrix(1.00, 0.00, -0.00, -1.00, 18.0, 3.3)">1</text><text xml:space="preserve" font-family="ArialMT,Arial" font-size="9.0" fill="#4D93FF" transform="matrix(1.00, 0.00, -0.00, -1.00, 23.0, 3.3)">4</text><text xml:space="preserve" font-family="ArialMT,Arial" font-size="9.0" fill="#4D93FF" transform="matrix(1.00, 0.00, -0.00, -1.00, 28.1, 3.3)"> </text><text xml:space="preserve" font-family="ArialMT,Arial" font-size="9.0" fill="#4D93FF" transform="matrix(1.00, 0.00, -0.00, -1.00, 30.6, 3.3)">M</text><text xml:space="preserve" font-family="ArialMT,Arial" font-size="9.0" fill="#4D93FF" transform="matrix(1.00, 0.00, -0.00, -1.00, 38.0, 3.3)">F</text><text xml:space="preserve" font-family="ArialMT,Arial" font-size="9.0" fill="#4D93FF" transform="matrix(1.00, 0.00, -0.00, -1.00, 43.5, 3.3)">M</text><text xml:space="preserve" font-family="ArialMT,Arial" font-size="9.0" fill="#4D93FF" transform="matrix(1.00, 0.00, -0.00, -1.00, 51.0, 3.3)">E</text><text xml:space="preserve" font-family="ArialMT,Arial" font-size="9.0" fill="#4D93FF" transform="matrix(1.00, 0.00, -0.00, -1.00, 57.0, 3.3)">R</text><text xml:space="preserve" font-family="ArialMT,Arial" font-size="9.0" fill="#4D93FF" transform="matrix(1.00, 0.00, -0.00, -1.00, 63.5, 3.3)"> </text><text xml:space="preserve" font-family="ArialMT,Arial" font-size="9.0" fill="#4D93FF" transform="matrix(1.00, 0.00, -0.00, -1.00, 66.0, 3.3)"> </text><text xml:space="preserve" font-family="ArialMT,Arial" font-size="9.0" fill="#4D93FF" transform="matrix(1.00, 0.00, -0.00, -1.00, 68.5, 3.3)">|</text><text xml:space="preserve" font-family="ArialMT,Arial" font-size="9.0" fill="#4D93FF" transform="matrix(1.00, 0.00, -0.00, -1.00, 70.9, 3.3)"> </text></g></svg>