<?xml version="1.0" encoding="UTF-8" standalone="no"?><svg xmlns="http://www.w3.org/2000/svg" xmlns:xlink="http://www.w3.org/1999/xlink" clip-rule="evenodd" stroke-miterlimit="10" viewBox="0 0 533 58"><desc>SVG generated by Keynote</desc><defs></defs><g transform="matrix(1.00, 0.00, -0.00, -1.00, 0.0, 58.0)"><g><clipPath id="clip0x7fcf54bae350"><path d="M 3.0 84.2 L 740.4 84.2 L 740.4 -52.4 L 3.0 -52.4 Z M 3.0 84.2 "></path></clipPath><g clip-path="url(#clip0x7fcf54bae350)"><path d="M 3.0 69.2 L 740.4 69.2 L 740.4 -61.8 L 3.0 -61.8 Z M 3.0 69.2 " fill="#FEFFFF" fill-opacity="0.00"></path></g></g><image xlink:href="011E1D7A085E2B172E2E6D4FA4CA8FC2.png" width="529.00" height="54.00" transform="matrix(1.00, 0.00, -0.00, -1.00, 1.0, 56.0)"></image><text xml:space="preserve" font-family="HelveticaNeue-Light,Helvetica Neue" font-size="56.0" fill="#0948AA" transform="matrix(1.00, 0.00, -0.00, -1.00, 3.0, 14.8)">A</text><text xml:space="preserve" font-family="HelveticaNeue-Light,Helvetica Neue" font-size="56.0" fill="#0948AA" transform="matrix(1.00, 0.00, -0.00, -1.00, 38.3, 14.8)">p</text><text xml:space="preserve" font-family="HelveticaNeue-Light,Helvetica Neue" font-size="56.0" fill="#0948AA" transform="matrix(1.00, 0.00, -0.00, -1.00, 70.4, 14.8)">p</text><text xml:space="preserve" font-family="HelveticaNeue-Light,Helvetica Neue" font-size="56.0" fill="#0948AA" transform="matrix(1.00, 0.00, -0.00, -1.00, 102.6, 14.8)">l</text><text xml:space="preserve" font-family="HelveticaNeue-Light,Helvetica Neue" font-size="56.0" fill="#0948AA" transform="matrix(1.00, 0.00, -0.00, -1.00, 112.9, 14.8)">e</text><text xml:space="preserve" font-family="HelveticaNeue-Light,Helvetica Neue" font-size="56.0" fill="#0948AA" transform="matrix(1.00, 0.00, -0.00, -1.00, 142.0, 14.8)"> </text><text xml:space="preserve" font-family="HelveticaNeue-Light,Helvetica Neue" font-size="56.0" fill="#0948AA" transform="matrix(1.00, 0.00, -0.00, -1.00, 157.6, 14.8)">W</text><text xml:space="preserve" font-family="HelveticaNeue-Light,Helvetica Neue" font-size="56.0" fill="#0948AA" transform="matrix(1.00, 0.00, -0.00, -1.00, 208.4, 14.8)">W</text><text xml:space="preserve" font-family="HelveticaNeue-Light,Helvetica Neue" font-size="56.0" fill="#0948AA" transform="matrix(1.00, 0.00, -0.00, -1.00, 259.2, 14.8)">D</text><text xml:space="preserve" font-family="HelveticaNeue-Light,Helvetica Neue" font-size="56.0" fill="#0948AA" transform="matrix(1.00, 0.00, -0.00, -1.00, 297.5, 14.8)">C</text><text xml:space="preserve" font-family="HelveticaNeue-Light,Helvetica Neue" font-size="56.0" fill="#0948AA" transform="matrix(1.00, 0.00, -0.00, -1.00, 336.9, 14.8)"> </text><text xml:space="preserve" font-family="HelveticaNeue-Light,Helvetica Neue" font-size="56.0" fill="#0948AA" transform="matrix(1.00, 0.00, -0.00, -1.00, 352.5, 14.8)">U</text><text xml:space="preserve" font-family="HelveticaNeue-Light,Helvetica Neue" font-size="56.0" fill="#0948AA" transform="matrix(1.00, 0.00, -0.00, -1.00, 390.9, 14.8)">p</text><text xml:space="preserve" font-family="HelveticaNeue-Light,Helvetica Neue" font-size="56.0" fill="#0948AA" transform="matrix(1.00, 0.00, -0.00, -1.00, 423.0, 14.8)">d</text><text xml:space="preserve" font-family="HelveticaNeue-Light,Helvetica Neue" font-size="56.0" fill="#0948AA" transform="matrix(1.00, 0.00, -0.00, -1.00, 455.2, 14.8)">a</text><text xml:space="preserve" font-family="HelveticaNeue-Light,Helvetica Neue" font-size="56.0" fill="#0948AA" transform="matrix(1.00, 0.00, -0.00, -1.00, 484.2, 14.8)">t</text><text xml:space="preserve" font-family="HelveticaNeue-Light,Helvetica Neue" font-size="56.0" fill="#0948AA" transform="matrix(1.00, 0.00, -0.00, -1.00, 500.8, 14.8)">e</text><text xml:space="preserve" font-family="HelveticaNeue-Light,Helvetica Neue" font-size="56.0" fill="#0948AA" transform="matrix(1.00, 0.00, -0.00, -1.00, 529.9, 14.8)"> </text></g></svg>