<?xml version="1.0" encoding="UTF-8" standalone="no"?><svg xmlns="http://www.w3.org/2000/svg" xmlns:xlink="http://www.w3.org/1999/xlink" clip-rule="evenodd" stroke-miterlimit="10" viewBox="0 0 219 302"><desc>SVG generated by Keynote</desc><defs></defs><g transform="matrix(1.00, 0.00, -0.00, -1.00, 0.0, 302.0)"><g><clipPath id="clip0x7fcf55931660"><path d="M 1.0 301.0 L 217.0 301.0 L 217.0 2.0 L 1.0 2.0 Z M 1.4 300.8 "></path></clipPath><g clip-path="url(#clip0x7fcf55931660)"><g><clipPath id="clip0x7fcf54de2760"><path d="M 9.2 1.9 C 8.0 2.1 6.5 2.7 5.7 3.1 C 4.1 4.1 2.4 6.5 1.8 8.8 C 1.4 10.0 1.4 36.3 1.4 151.2 C 1.4 283.9 1.4 292.3 1.9 293.9 C 3.1 297.6 5.7 299.8 9.9 300.4 C 12.8 300.9 205.7 300.9 208.5 300.4 C 213.5 299.6 216.1 297.0 216.9 291.8 C 217.1 290.3 217.2 247.1 217.1 149.7 C 217.1 19.5 217.0 9.6 216.5 8.2 C 215.4 5.0 213.4 3.0 210.3 2.1 C 208.8 1.6 199.4 1.6 110.0 1.5 C 27.8 1.5 11.0 1.6 9.2 1.9 "></path></clipPath><g clip-path="url(#clip0x7fcf54de2760)"><image xlink:href="../../BE4B753B-B8E4-4DDA-8605-188FA49DF580/assets/E13E598F8EAE1B5A1AC469A47087790B.png" width="1843.00" height="2400.00" transform="matrix(0.15, 0.00, -0.00, -0.15, -29.0, 331.0)"></image></g></g></g></g></g></svg>