<?xml version="1.0" encoding="UTF-8" standalone="no"?><svg xmlns="http://www.w3.org/2000/svg" xmlns:xlink="http://www.w3.org/1999/xlink" clip-rule="evenodd" stroke-miterlimit="10" viewBox="0 0 50 54"><desc>SVG generated by Keynote</desc><defs></defs><g transform="matrix(1.00, 0.00, -0.00, -1.00, 0.0, 54.0)"><g><clipPath id="clip0x7fcf4cf3c9b0"><path d="M 7.6 0.2 L 42.5 0.2 L 42.5 28.5 L 7.6 28.5 Z M 7.6 0.2 "></path></clipPath><g clip-path="url(#clip0x7fcf4cf3c9b0)"><path d="M 34.5 28.0 C 27.6 27.5 27.6 27.5 27.6 27.5 C 27.6 19.6 27.6 19.6 27.6 19.6 C 27.6 16.1 28.9 13.6 31.0 11.8 C 31.0 12.9 31.0 12.9 31.0 12.9 C 29.4 14.8 29.1 16.9 29.1 18.7 C 29.1 20.7 29.1 20.7 29.1 20.7 C 31.8 20.7 31.8 20.7 31.8 20.7 C 31.8 11.8 31.8 11.8 31.8 11.8 C 31.8 8.5 30.9 4.4 25.1 1.8 C 19.5 4.3 18.4 8.2 18.3 11.3 C 21.0 13.1 22.5 15.7 22.5 19.6 C 22.5 20.7 22.5 20.7 22.5 20.7 C 25.1 20.7 25.1 20.7 25.1 20.7 C 26.8 20.7 26.8 20.7 26.8 20.7 C 26.8 22.4 26.8 22.4 26.8 22.4 C 25.1 22.4 25.1 22.4 25.1 22.4 C 22.5 22.4 22.5 22.4 22.5 22.4 C 20.9 22.4 20.9 22.4 20.9 22.4 C 16.8 22.4 16.8 22.4 16.8 22.4 C 16.8 12.9 16.8 12.9 16.8 12.9 C 16.8 12.7 16.8 12.3 16.8 12.0 C 17.4 12.4 17.9 12.8 18.3 13.3 C 18.3 20.7 18.3 20.7 18.3 20.7 C 20.9 20.7 20.9 20.7 20.9 20.7 C 20.9 18.7 20.9 18.7 20.9 18.7 C 20.9 16.0 20.3 12.7 15.5 10.5 C 10.7 12.7 10.2 16.0 10.2 18.7 C 10.2 25.9 10.2 25.9 10.2 25.9 C 15.5 25.9 15.5 25.9 15.5 25.9 C 20.9 25.9 20.9 25.9 20.9 25.9 C 20.9 23.1 20.9 23.1 20.9 23.1 C 22.5 23.1 22.5 23.1 22.5 23.1 C 22.5 27.5 22.5 27.5 22.5 27.5 C 15.5 27.5 15.5 27.5 15.5 27.5 C 8.6 27.5 8.6 27.5 8.6 27.5 C 8.6 19.6 8.6 19.6 8.6 19.6 C 8.6 14.4 11.2 11.6 15.5 9.9 C 16.0 10.1 16.5 10.3 17.0 10.5 C 17.7 5.8 20.6 2.9 25.1 1.2 C 29.5 2.9 32.4 5.7 33.3 10.5 C 33.6 10.3 34.1 10.1 34.5 9.9 C 38.9 11.6 41.5 14.4 41.5 19.6 C 41.5 27.5 41.5 28.0 41.5 28.0 L 34.5 28.0 Z M 40.0 18.7 C 39.9 16.0 39.4 12.7 34.5 10.5 C 34.1 10.6 33.7 10.8 33.4 11.1 C 33.4 11.7 33.4 12.3 33.4 12.9 C 33.4 22.4 33.4 22.4 33.4 22.4 C 29.1 22.4 29.1 22.4 29.1 22.4 C 29.1 25.9 29.1 25.9 29.1 25.9 C 34.5 25.9 34.5 25.9 34.5 25.9 C 39.9 25.9 40.0 25.9 40.0 25.9 L 40.0 18.7 Z M 39.9 18.7 " fill="#FFFFFF"></path></g></g><g><clipPath id="clip0x7fcf4cf3d830"><path d="M 10.1 30.8 L 19.2 30.8 L 19.2 41.7 L 10.1 41.7 Z M 10.1 30.8 "></path></clipPath><g clip-path="url(#clip0x7fcf4cf3d830)"><path d="M 11.7 31.8 C 11.7 32.1 11.7 32.1 11.7 32.1 C 12.0 32.2 12.1 32.3 12.2 32.4 C 12.2 32.4 12.2 32.5 12.3 32.5 C 12.3 32.7 12.3 32.9 12.3 33.3 C 12.4 33.9 12.4 34.2 12.4 34.4 C 12.4 37.7 12.4 37.7 12.4 37.7 C 12.4 38.3 12.4 38.8 12.3 39.4 C 12.3 39.7 12.3 40.0 12.2 40.1 C 12.2 40.1 12.1 40.2 12.0 40.2 C 12.0 40.3 11.6 40.3 11.1 40.3 C 11.1 40.7 11.1 40.7 11.1 40.7 C 12.1 40.7 12.8 40.7 13.1 40.7 C 13.4 40.7 14.0 40.7 14.9 40.7 C 14.9 40.3 14.9 40.3 14.9 40.3 C 14.5 40.3 14.1 40.3 14.0 40.2 C 13.9 40.2 13.8 40.1 13.8 40.1 C 13.7 40.0 13.7 39.8 13.7 39.5 C 13.6 39.4 13.6 38.8 13.6 37.7 C 13.6 33.4 13.6 33.4 13.6 33.4 C 13.6 33.1 13.6 32.7 13.7 32.4 C 14.2 32.4 14.2 32.3 14.8 32.3 C 16.0 32.3 16.9 32.4 17.4 32.6 C 17.5 32.7 17.5 32.9 17.6 33.1 C 17.8 34.1 17.8 34.1 17.8 34.1 C 18.2 34.1 18.2 34.1 18.2 34.1 C 18.1 33.4 18.0 32.7 17.9 31.9 C 17.8 31.9 17.7 31.9 17.6 31.8 C 17.3 31.8 17.0 31.8 16.4 31.8 C 13.0 31.9 13.0 31.9 13.0 31.9 C 12.5 31.9 12.1 31.9 11.7 31.8 Z M 11.7 31.8 " fill="#FFFFFF"></path></g></g><g><clipPath id="clip0x7fcf4cf3e260"><path d="M 17.9 30.8 L 23.8 30.8 L 23.8 41.7 L 17.9 41.7 Z M 17.9 30.8 "></path></clipPath><g clip-path="url(#clip0x7fcf4cf3e260)"><path d="M 22.8 32.2 C 22.8 31.8 22.8 31.8 22.8 31.8 C 21.9 31.9 21.3 31.9 21.0 31.9 C 18.9 31.8 18.9 31.8 18.9 31.8 C 18.9 32.2 18.9 32.2 18.9 32.2 C 19.5 32.2 19.8 32.2 19.9 32.2 C 20.1 32.3 20.1 32.3 20.1 32.4 C 20.1 32.5 20.2 32.7 20.2 33.0 C 20.2 33.1 20.2 33.7 20.2 34.8 C 20.2 37.7 20.2 37.7 20.2 37.7 C 20.2 38.3 20.2 38.8 20.2 39.4 C 20.2 39.7 20.1 40.0 20.1 40.1 C 20.1 40.1 20.1 40.2 19.9 40.2 C 19.8 40.3 19.5 40.3 18.9 40.3 C 18.9 40.7 18.9 40.7 18.9 40.7 C 19.8 40.7 20.4 40.7 20.9 40.7 C 21.4 40.7 22.0 40.7 22.8 40.7 C 22.8 40.3 22.8 40.3 22.8 40.3 C 22.3 40.3 22.0 40.3 21.9 40.2 C 21.7 40.2 21.7 40.1 21.6 40.1 C 21.6 40.0 21.5 39.8 21.5 39.5 C 21.5 39.4 21.5 38.8 21.5 37.7 C 21.5 34.8 21.5 34.8 21.5 34.8 C 21.5 34.3 21.5 33.7 21.5 33.2 C 21.5 32.7 21.5 32.5 21.6 32.4 C 21.6 32.3 21.7 32.3 21.9 32.2 C 22.0 32.2 22.3 32.2 22.8 32.2 Z M 21.5 39.5 C 21.5 39.4 21.5 38.8 21.5 37.7 C 21.5 34.8 21.5 34.8 21.5 34.8 " fill="#FFFFFF"></path></g></g><g><clipPath id="clip0x7fcf4cf3f230"><path d="M 23.3 30.6 L 35.4 30.6 L 35.4 41.7 L 23.3 41.7 Z M 23.3 30.6 "></path></clipPath><g clip-path="url(#clip0x7fcf4cf3f230)"><path d="M 24.3 31.8 C 24.3 32.2 24.3 32.2 24.3 32.2 C 24.7 32.2 25.0 32.2 25.2 32.3 C 25.3 32.3 25.3 32.3 25.3 32.4 C 25.4 32.5 25.4 32.7 25.4 33.1 C 25.5 33.6 25.5 34.1 25.5 34.5 C 25.5 39.6 25.5 39.6 25.5 39.6 C 25.5 39.7 25.5 39.8 25.5 39.8 C 25.4 39.9 25.3 40.0 25.2 40.1 C 25.1 40.2 25.0 40.2 24.9 40.3 C 24.8 40.3 24.5 40.3 24.3 40.3 C 24.3 40.7 24.3 40.7 24.3 40.7 C 25.0 40.7 25.5 40.7 25.6 40.7 C 26.0 40.7 26.3 40.7 26.6 40.7 C 27.0 40.2 27.2 39.9 27.4 39.6 C 28.7 38.1 28.7 38.1 28.7 38.1 C 30.7 35.9 30.7 35.9 30.7 35.9 C 31.2 35.1 31.8 34.6 32.1 34.1 C 32.3 33.8 32.6 33.6 32.7 33.5 C 32.7 38.0 32.7 38.0 32.7 38.0 C 32.7 38.4 32.7 38.9 32.7 39.5 C 32.7 39.8 32.6 40.0 32.6 40.1 C 32.6 40.1 32.5 40.2 32.5 40.2 C 32.3 40.3 32.0 40.3 31.6 40.3 C 31.6 40.7 31.6 40.7 31.6 40.7 C 32.0 40.7 32.6 40.7 33.1 40.7 C 33.6 40.7 34.0 40.7 34.4 40.7 C 34.4 40.3 34.4 40.3 34.4 40.3 C 33.9 40.3 33.7 40.3 33.6 40.2 C 33.5 40.2 33.5 40.1 33.4 40.1 C 33.4 40.0 33.3 39.7 33.3 39.5 C 33.3 38.9 33.3 38.4 33.3 38.0 C 33.3 35.0 33.3 35.0 33.3 35.0 C 33.3 34.4 33.3 33.3 33.3 31.6 C 32.7 31.6 32.7 31.6 32.7 31.6 C 32.6 31.8 32.6 31.8 32.6 31.8 C 32.5 31.8 32.5 31.9 32.4 31.9 C 32.4 31.9 32.3 32.0 32.2 32.1 C 31.8 32.5 31.6 32.8 31.4 33.0 C 30.6 34.0 30.6 34.0 30.6 34.0 C 26.0 39.4 26.0 39.4 26.0 39.4 C 26.0 34.6 26.0 34.6 26.0 34.6 C 26.0 34.1 26.0 33.6 26.1 33.1 C 26.1 32.7 26.1 32.5 26.1 32.4 C 26.2 32.3 26.2 32.3 26.3 32.3 C 26.4 32.2 26.7 32.2 27.2 32.2 C 27.2 31.8 27.2 31.8 27.2 31.8 C 26.8 31.9 26.4 31.9 25.9 31.9 C 25.5 31.9 24.9 31.9 24.3 31.8 Z M 24.3 31.8 " fill="#FFFFFF"></path></g></g><g><clipPath id="clip0x7fcf4cf40890"><path d="M 34.6 30.8 L 40.4 30.8 L 40.4 41.7 L 34.6 41.7 Z M 34.6 30.8 "></path></clipPath><g clip-path="url(#clip0x7fcf4cf40890)"><path d="M 39.4 32.2 C 39.4 31.8 39.4 31.8 39.4 31.8 C 38.5 31.9 37.8 31.9 37.6 31.9 C 35.6 31.8 35.6 31.8 35.6 31.8 C 35.6 32.2 35.6 32.2 35.6 32.2 C 36.1 32.2 36.4 32.2 36.6 32.2 C 36.6 32.3 36.7 32.3 36.7 32.4 C 36.8 32.5 36.8 32.7 36.8 33.0 C 36.8 33.1 36.8 33.7 36.9 34.8 C 36.9 37.7 36.9 37.7 36.9 37.7 C 36.9 38.3 36.8 38.8 36.8 39.4 C 36.8 39.7 36.8 40.0 36.7 40.1 C 36.7 40.1 36.6 40.2 36.6 40.2 C 36.4 40.3 36.1 40.3 35.6 40.3 C 35.6 40.7 35.6 40.7 35.6 40.7 C 36.5 40.7 37.0 40.7 37.5 40.7 C 37.9 40.7 38.6 40.7 39.4 40.7 C 39.4 40.3 39.4 40.3 39.4 40.3 C 38.8 40.3 38.6 40.3 38.5 40.2 C 38.4 40.2 38.3 40.1 38.2 40.1 C 38.2 40.0 38.1 39.8 38.1 39.5 C 38.1 39.4 38.1 38.8 38.1 37.7 C 38.1 34.8 38.1 34.8 38.1 34.8 C 38.1 34.3 38.1 33.7 38.1 33.2 C 38.1 32.7 38.2 32.5 38.2 32.4 C 38.3 32.3 38.4 32.3 38.5 32.2 C 38.6 32.2 38.8 32.2 39.4 32.2 Z M 39.4 32.2 " fill="#FFFFFF"></path></g></g><g><clipPath id="clip0x7fcf3ac317b0"><path d="M 38.9 30.6 L 49.6 30.6 L 49.6 41.8 L 38.9 41.8 Z M 38.9 30.6 "></path></clipPath><g clip-path="url(#clip0x7fcf3ac317b0)"><path d="M 48.4 33.1 C 48.3 32.3 48.3 32.3 48.3 32.3 C 47.8 32.1 47.3 31.9 46.9 31.8 C 46.3 31.7 45.8 31.6 45.2 31.6 C 44.5 31.6 43.9 31.7 43.3 31.9 C 42.8 32.1 42.2 32.2 41.9 32.6 C 41.4 32.9 41.0 33.2 40.7 33.6 C 40.5 34.0 40.3 34.4 40.1 34.8 C 40.0 35.2 39.9 35.8 39.9 36.2 C 39.9 37.6 40.4 38.6 41.4 39.6 C 42.3 40.4 43.7 40.8 45.4 40.8 C 45.7 40.8 46.1 40.8 46.5 40.8 C 46.8 40.8 47.2 40.7 47.7 40.6 C 48.2 40.4 48.4 40.3 48.6 40.3 C 48.5 40.1 48.4 39.8 48.3 39.6 C 48.3 39.3 48.3 38.9 48.3 38.4 C 47.8 38.4 47.8 38.4 47.8 38.4 C 47.8 39.2 47.8 39.2 47.8 39.2 C 47.8 39.6 47.5 39.8 47.1 40.0 C 46.7 40.3 46.0 40.4 45.2 40.4 C 44.6 40.4 44.1 40.3 43.6 40.1 C 43.2 40.0 42.8 39.7 42.5 39.5 C 42.1 39.2 41.9 38.7 41.7 38.3 C 41.5 37.8 41.4 37.2 41.4 36.5 C 41.4 35.2 41.8 34.2 42.6 33.4 C 43.3 32.7 44.5 32.3 45.7 32.3 C 46.4 32.3 47.0 32.4 47.4 32.5 C 47.8 32.6 48.2 32.8 48.4 33.1 L 48.4 33.1 Z M 48.6 32.9 " fill="#FFFFFF"></path></g></g><g><clipPath id="clip0x7fcf3ac2ced0"><path d="M 0.5 30.6 L 11.2 30.6 L 11.2 41.8 L 0.5 41.8 Z M 0.5 30.6 "></path></clipPath><g clip-path="url(#clip0x7fcf3ac2ced0)"><path d="M 10.0 33.1 C 9.9 32.3 9.9 32.3 9.9 32.3 C 9.4 32.1 8.9 31.9 8.5 31.8 C 7.9 31.7 7.4 31.6 6.8 31.6 C 6.1 31.6 5.5 31.7 4.9 31.9 C 4.4 32.1 3.8 32.2 3.5 32.6 C 3.0 32.9 2.6 33.2 2.3 33.6 C 2.1 34.0 1.9 34.4 1.7 34.8 C 1.6 35.2 1.5 35.8 1.5 36.2 C 1.5 37.6 2.0 38.6 3.0 39.6 C 3.9 40.4 5.3 40.8 7.0 40.8 C 7.3 40.8 7.7 40.8 8.1 40.8 C 8.4 40.8 8.8 40.7 9.3 40.6 C 9.8 40.4 10.0 40.3 10.2 40.3 C 10.1 40.1 10.0 39.8 9.9 39.6 C 9.9 39.3 9.9 38.9 9.9 38.4 C 9.5 38.4 9.5 38.4 9.5 38.4 C 9.4 39.2 9.4 39.2 9.4 39.2 C 9.4 39.6 9.1 39.8 8.7 40.0 C 8.3 40.3 7.6 40.4 6.8 40.4 C 6.2 40.4 5.7 40.3 5.2 40.1 C 4.8 40.0 4.4 39.7 4.1 39.5 C 3.7 39.2 3.5 38.7 3.3 38.3 C 3.1 37.8 3.0 37.2 3.0 36.5 C 3.0 35.2 3.4 34.2 4.2 33.4 C 4.9 32.7 6.1 32.3 7.3 32.3 C 8.0 32.3 8.6 32.4 9.0 32.5 C 9.4 32.6 9.8 32.8 10.0 33.1 L 10.0 33.1 Z M 10.2 32.9 " fill="#FFFFFF"></path></g></g><g><clipPath id="clip0x7fcf3ac245c0"><path d="M 4.2 42.5 L 18.2 42.5 L 18.2 53.4 L 4.2 53.4 Z M 4.2 42.5 "></path></clipPath><g clip-path="url(#clip0x7fcf3ac245c0)"><path d="M 5.2 52.0 C 5.2 52.4 5.2 52.4 5.2 52.4 C 5.6 52.4 6.1 52.4 6.5 52.4 C 6.9 52.4 7.4 52.4 7.7 52.4 C 8.1 51.6 8.5 50.8 8.7 50.2 C 11.2 45.4 11.2 45.4 11.2 45.4 C 13.4 49.8 13.4 49.8 13.4 49.8 C 14.0 51.0 14.4 51.9 14.6 52.4 C 15.0 52.4 15.5 52.4 15.8 52.4 C 16.1 52.4 16.5 52.4 17.2 52.4 C 17.2 52.0 17.2 52.0 17.2 52.0 C 16.7 52.0 16.3 51.9 16.2 51.9 C 16.1 51.9 16.1 51.8 16.1 51.8 C 16.0 51.7 16.0 51.5 16.0 51.2 C 15.9 51.1 15.9 50.6 15.9 49.5 C 15.9 46.6 15.9 46.6 15.9 46.6 C 15.9 46.1 15.9 45.5 16.0 45.0 C 16.0 44.6 16.0 44.3 16.1 44.2 C 16.1 44.2 16.1 44.2 16.2 44.2 C 16.3 44.1 16.7 44.1 17.2 44.1 C 17.2 43.7 17.2 43.7 17.2 43.7 C 16.3 43.7 15.7 43.7 15.3 43.7 C 15.0 43.7 14.4 43.7 13.4 43.7 C 13.4 44.1 13.4 44.1 13.4 44.1 C 13.9 44.1 14.2 44.1 14.4 44.2 C 14.5 44.2 14.6 44.2 14.6 44.2 C 14.7 44.3 14.7 44.5 14.7 44.9 C 14.7 45.0 14.7 45.5 14.7 46.6 C 14.7 51.1 14.7 51.1 14.7 51.1 C 12.5 46.7 12.5 46.7 12.5 46.7 C 12.1 46.0 11.8 45.4 11.7 45.0 C 11.6 44.7 11.3 44.2 11.0 43.5 C 10.7 43.5 10.7 43.5 10.7 43.5 C 10.7 43.7 10.7 43.8 10.7 43.9 C 10.2 44.8 10.2 44.8 10.2 44.8 C 7.1 50.9 7.1 50.9 7.1 50.9 C 7.1 46.6 7.1 46.6 7.1 46.6 C 7.1 46.1 7.1 45.5 7.1 45.0 C 7.2 44.6 7.2 44.3 7.3 44.2 C 7.3 44.2 7.4 44.2 7.4 44.2 C 7.5 44.1 7.9 44.1 8.4 44.1 C 8.4 43.7 8.4 43.7 8.4 43.7 C 6.8 43.7 6.8 43.7 6.8 43.7 C 5.2 43.7 5.2 43.7 5.2 43.7 C 5.2 44.1 5.2 44.1 5.2 44.1 C 5.7 44.1 6.0 44.1 6.2 44.2 C 6.3 44.2 6.3 44.2 6.3 44.2 C 6.4 44.3 6.4 44.5 6.4 44.9 C 6.4 45.0 6.4 45.5 6.5 46.6 C 6.5 49.5 6.5 49.5 6.5 49.5 C 6.5 50.0 6.4 50.6 6.4 51.1 C 6.4 51.5 6.4 51.7 6.3 51.8 C 6.3 51.8 6.3 51.9 6.2 51.9 C 6.0 51.9 5.7 52.0 5.2 52.0 Z M 5.2 52.0 " fill="#FFFFFF"></path></g></g><g><clipPath id="clip0x7fcf3ac39c60"><path d="M 16.7 42.7 L 28.5 42.7 L 28.5 53.6 L 16.7 53.6 Z M 16.7 42.7 "></path></clipPath><g clip-path="url(#clip0x7fcf3ac39c60)"><path d="M 19.1 43.7 C 19.4 43.7 20.0 43.7 20.7 43.7 C 20.7 44.1 20.7 44.1 20.7 44.1 C 20.2 44.1 20.0 44.1 19.9 44.1 C 19.7 44.2 19.7 44.2 19.6 44.2 C 19.6 44.2 19.6 44.3 19.6 44.3 C 19.6 44.5 19.6 44.7 19.8 45.0 C 20.4 46.6 20.4 46.6 20.4 46.6 C 24.2 46.6 24.2 46.6 24.2 46.6 C 25.0 44.7 25.0 44.7 25.0 44.7 C 25.1 44.5 25.1 44.4 25.1 44.3 C 25.1 44.2 25.1 44.2 25.0 44.2 C 25.0 44.2 24.9 44.2 24.8 44.1 C 24.7 44.1 24.5 44.1 23.9 44.1 C 23.9 43.7 23.9 43.7 23.9 43.7 C 26.0 43.7 26.0 43.7 26.0 43.7 C 26.3 43.7 26.7 43.7 27.5 43.7 C 27.5 44.1 27.5 44.1 27.5 44.1 C 27.1 44.1 26.8 44.1 26.7 44.2 C 26.6 44.2 26.6 44.2 26.5 44.4 C 26.4 44.7 26.1 45.3 25.6 46.3 C 22.8 52.6 22.8 52.6 22.8 52.6 C 22.4 52.6 22.4 52.6 22.4 52.6 C 21.9 51.3 21.5 50.4 21.3 50.0 C 19.7 46.5 19.7 46.5 19.7 46.5 C 19.2 45.4 18.9 44.9 18.9 44.7 C 18.7 44.4 18.6 44.2 18.5 44.2 C 18.4 44.2 18.4 44.2 18.3 44.1 C 18.2 44.1 18.0 44.1 17.7 44.1 C 17.7 43.7 17.7 43.7 17.7 43.7 C 18.1 43.7 18.6 43.7 19.1 43.7 Z M 22.3 50.9 C 23.9 47.1 23.9 47.1 23.9 47.1 C 20.7 47.1 20.7 47.1 20.7 47.1 L 22.3 50.9 Z M 22.3 50.9 " fill="#FFFFFF"></path></g></g><g><clipPath id="clip0x7fcf3ac3a8b0"><path d="M 24.7 43.6 L 35.4 43.6 L 35.4 53.4 L 24.7 53.4 Z M 24.7 43.6 "></path></clipPath><g clip-path="url(#clip0x7fcf3ac3a8b0)"><path d="M 32.1 51.2 C 32.3 51.6 32.5 51.8 32.5 51.8 C 32.5 51.9 32.4 52.0 32.3 52.0 C 32.2 52.0 31.9 52.1 31.5 52.1 C 31.5 52.4 31.5 52.4 31.5 52.4 C 32.2 52.4 32.7 52.4 33.1 52.4 C 33.4 52.4 33.7 52.4 34.4 52.4 C 34.4 52.1 34.4 52.1 34.4 52.1 C 34.0 52.1 33.7 52.0 33.7 52.0 C 33.6 52.0 33.4 51.9 33.3 51.8 C 33.2 51.8 33.1 51.6 32.9 51.3 C 31.2 48.9 31.2 48.9 31.2 48.9 C 30.8 48.4 30.7 48.0 30.6 48.0 C 30.6 47.8 30.6 47.7 30.6 47.6 C 30.6 47.2 30.6 47.2 30.6 47.2 C 30.6 46.7 30.6 46.2 30.6 45.7 C 30.6 45.4 30.7 45.2 30.7 45.1 C 30.7 45.1 30.7 45.0 30.9 45.0 C 31.0 44.9 31.2 44.9 31.7 44.9 C 31.7 44.6 31.7 44.6 31.7 44.6 C 31.1 44.6 30.5 44.6 30.1 44.6 C 29.6 44.6 29.0 44.6 28.3 44.6 C 28.3 44.9 28.3 44.9 28.3 44.9 C 28.8 44.9 29.0 44.9 29.2 45.0 C 29.3 45.0 29.3 45.0 29.3 45.1 C 29.4 45.2 29.4 45.3 29.4 45.6 C 29.4 45.7 29.4 46.2 29.5 47.2 C 29.5 47.8 29.5 47.8 29.5 47.8 C 29.4 48.0 29.3 48.1 29.3 48.3 C 29.2 48.4 29.0 48.7 28.6 49.2 C 27.1 51.3 27.1 51.3 27.1 51.3 C 26.9 51.6 26.9 51.8 26.8 51.8 C 26.7 51.9 26.5 52.0 26.4 52.0 C 26.4 52.0 26.2 52.1 25.7 52.1 C 25.7 52.4 25.7 52.4 25.7 52.4 C 26.4 52.4 26.7 52.4 27.1 52.4 C 27.5 52.4 28.5 52.4 29.3 52.4 C 29.3 52.1 29.3 52.1 29.3 52.1 C 28.8 52.1 28.4 52.0 28.3 52.0 C 28.3 52.0 28.2 51.9 28.2 51.8 C 28.2 51.8 28.3 51.6 28.5 51.2 C 30.3 48.4 30.3 48.4 30.3 48.4 L 32.1 51.2 Z M 32.1 51.2 " fill="#FFFFFF"></path></g></g><g><clipPath id="clip0x7fcf3ac3b480"><path d="M 34.1 42.5 L 45.7 42.5 L 45.7 53.6 L 34.1 53.6 Z M 34.1 42.5 "></path></clipPath><g clip-path="url(#clip0x7fcf3ac3b480)"><path d="M 36.8 50.4 C 37.1 50.9 37.5 51.4 37.9 51.7 C 38.5 51.9 39.1 52.1 39.7 52.1 C 40.2 52.1 40.6 52.0 41.1 51.8 C 41.5 51.8 41.8 51.6 42.0 51.4 C 42.3 51.1 42.5 50.9 42.7 50.7 C 42.9 50.4 43.0 50.1 43.1 49.7 C 43.3 49.2 43.4 48.5 43.4 47.9 C 43.4 47.2 43.3 46.4 43.0 45.9 C 42.8 45.3 42.4 44.9 41.9 44.5 C 41.4 44.2 40.8 44.1 40.1 44.1 C 39.6 44.1 39.2 44.2 38.7 44.2 C 38.4 44.4 38.0 44.7 37.6 45.1 C 37.3 45.3 37.0 45.8 36.8 46.3 C 36.7 46.5 36.7 46.9 36.6 47.4 C 36.5 47.7 36.4 48.1 36.4 48.5 C 36.4 49.2 36.6 49.8 36.8 50.4 Z M 35.4 46.3 C 35.6 45.6 35.9 45.2 36.3 44.7 C 36.7 44.3 37.2 44.0 37.7 43.8 C 38.4 43.6 39.0 43.5 39.6 43.5 C 41.1 43.5 42.4 44.0 43.3 44.9 C 44.3 45.8 44.7 46.9 44.7 48.4 C 44.7 48.7 44.7 49.2 44.6 49.6 C 44.5 49.9 44.3 50.3 44.3 50.6 C 44.0 50.9 43.7 51.2 43.4 51.6 C 43.0 51.8 42.5 52.1 41.9 52.3 C 41.4 52.5 40.7 52.6 40.0 52.6 C 39.3 52.6 38.6 52.5 38.0 52.3 C 37.4 52.0 36.8 51.8 36.4 51.3 C 35.9 50.8 35.6 50.4 35.4 49.8 C 35.2 49.3 35.1 48.6 35.1 48.0 C 35.1 47.4 35.2 46.8 35.4 46.3 Z M 35.4 46.3 " fill="#FFFFFF"></path></g></g></g></svg>