<?xml version="1.0" encoding="UTF-8" standalone="no"?><svg xmlns="http://www.w3.org/2000/svg" xmlns:xlink="http://www.w3.org/1999/xlink" clip-rule="evenodd" stroke-miterlimit="10" viewBox="0 0 641 40"><desc>SVG generated by Keynote</desc><defs></defs><g transform="matrix(1.00, 0.00, -0.00, -1.00, 0.0, 40.0)"><image xlink:href="../../460F0295-4B3C-4F21-AAD6-BCEDAA374ADD/assets/09EF322A2B824D58D73FF4EDA2A1C3ED.png" width="13.00" height="12.00" transform="matrix(1.00, 0.00, -0.00, -1.00, 2.0, 28.0)"></image><text xml:space="preserve" font-family="HelveticaNeue-Light,Helvetica Neue" font-size="26.2" fill="#0948AA" transform="matrix(1.00, 0.00, -0.00, -1.00, 1.9, 13.6)">•</text><image xlink:href="9FCC7AE0664C538C495491B547917A51.png" width="601.00" height="35.00" transform="matrix(1.00, 0.00, -0.00, -1.00, 39.0, 36.0)"></image><text xml:space="preserve" font-family="HelveticaNeue-Light,Helvetica Neue" font-size="35.0" fill="#0948AA" transform="matrix(1.00, 0.00, -0.00, -1.00, 37.9, 10.6)">R</text><text xml:space="preserve" font-family="HelveticaNeue-Light,Helvetica Neue" font-size="35.0" fill="#0948AA" transform="matrix(1.00, 0.00, -0.00, -1.00, 61.3, 10.6)">i</text><text xml:space="preserve" font-family="HelveticaNeue-Light,Helvetica Neue" font-size="35.0" fill="#0948AA" transform="matrix(1.00, 0.00, -0.00, -1.00, 67.7, 10.6)">p</text><text xml:space="preserve" font-family="HelveticaNeue-Light,Helvetica Neue" font-size="35.0" fill="#0948AA" transform="matrix(1.00, 0.00, -0.00, -1.00, 87.8, 10.6)">e</text><text xml:space="preserve" font-family="HelveticaNeue-Light,Helvetica Neue" font-size="35.0" fill="#0948AA" transform="matrix(1.00, 0.00, -0.00, -1.00, 106.0, 10.6)"> </text><text xml:space="preserve" font-family="HelveticaNeue-Light,Helvetica Neue" font-size="35.0" fill="#0948AA" transform="matrix(1.00, 0.00, -0.00, -1.00, 115.7, 10.6)">f</text><text xml:space="preserve" font-family="HelveticaNeue-Light,Helvetica Neue" font-size="35.0" fill="#0948AA" transform="matrix(1.00, 0.00, -0.00, -1.00, 124.8, 10.6)">o</text><text xml:space="preserve" font-family="HelveticaNeue-Light,Helvetica Neue" font-size="35.0" fill="#0948AA" transform="matrix(1.00, 0.00, -0.00, -1.00, 144.3, 10.6)">r</text><text xml:space="preserve" font-family="HelveticaNeue-Light,Helvetica Neue" font-size="35.0" fill="#0948AA" transform="matrix(1.00, 0.00, -0.00, -1.00, 155.3, 10.6)"> </text><text xml:space="preserve" font-family="HelveticaNeue-Light,Helvetica Neue" font-size="35.0" fill="#0948AA" transform="matrix(1.00, 0.00, -0.00, -1.00, 165.0, 10.6)">“</text><text xml:space="preserve" font-family="HelveticaNeue-Light,Helvetica Neue" font-size="35.0" fill="#0948AA" transform="matrix(1.00, 0.00, -0.00, -1.00, 178.0, 10.6)">b</text><text xml:space="preserve" font-family="HelveticaNeue-Light,Helvetica Neue" font-size="35.0" fill="#0948AA" transform="matrix(1.00, 0.00, -0.00, -1.00, 198.1, 10.6)">i</text><text xml:space="preserve" font-family="HelveticaNeue-Light,Helvetica Neue" font-size="35.0" fill="#0948AA" transform="matrix(1.00, 0.00, -0.00, -1.00, 204.5, 10.6)">g</text><text xml:space="preserve" font-family="HelveticaNeue-Light,Helvetica Neue" font-size="35.0" fill="#0948AA" transform="matrix(1.00, 0.00, -0.00, -1.00, 224.0, 10.6)"> </text><text xml:space="preserve" font-family="HelveticaNeue-Light,Helvetica Neue" font-size="35.0" fill="#0948AA" transform="matrix(1.00, 0.00, -0.00, -1.00, 233.7, 10.6)">b</text><text xml:space="preserve" font-family="HelveticaNeue-Light,Helvetica Neue" font-size="35.0" fill="#0948AA" transform="matrix(1.00, 0.00, -0.00, -1.00, 253.8, 10.6)">a</text><text xml:space="preserve" font-family="HelveticaNeue-Light,Helvetica Neue" font-size="35.0" fill="#0948AA" transform="matrix(1.00, 0.00, -0.00, -1.00, 272.0, 10.6)">n</text><text xml:space="preserve" font-family="HelveticaNeue-Light,Helvetica Neue" font-size="35.0" fill="#0948AA" transform="matrix(1.00, 0.00, -0.00, -1.00, 290.8, 10.6)">g</text><text xml:space="preserve" font-family="HelveticaNeue-Light,Helvetica Neue" font-size="35.0" fill="#0948AA" transform="matrix(1.00, 0.00, -0.00, -1.00, 310.2, 10.6)">”</text><text xml:space="preserve" font-family="HelveticaNeue-Light,Helvetica Neue" font-size="35.0" fill="#0948AA" transform="matrix(1.00, 0.00, -0.00, -1.00, 323.2, 10.6)"> </text><text xml:space="preserve" font-family="HelveticaNeue-Light,Helvetica Neue" font-size="35.0" fill="#0948AA" transform="matrix(1.00, 0.00, -0.00, -1.00, 332.9, 10.6)">d</text><text xml:space="preserve" font-family="HelveticaNeue-Light,Helvetica Neue" font-size="35.0" fill="#0948AA" transform="matrix(1.00, 0.00, -0.00, -1.00, 353.0, 10.6)">i</text><text xml:space="preserve" font-family="HelveticaNeue-Light,Helvetica Neue" font-size="35.0" fill="#0948AA" transform="matrix(1.00, 0.00, -0.00, -1.00, 359.5, 10.6)">s</text><text xml:space="preserve" font-family="HelveticaNeue-Light,Helvetica Neue" font-size="35.0" fill="#0948AA" transform="matrix(1.00, 0.00, -0.00, -1.00, 376.3, 10.6)">r</text><text xml:space="preserve" font-family="HelveticaNeue-Light,Helvetica Neue" font-size="35.0" fill="#0948AA" transform="matrix(1.00, 0.00, -0.00, -1.00, 387.3, 10.6)">u</text><text xml:space="preserve" font-family="HelveticaNeue-Light,Helvetica Neue" font-size="35.0" fill="#0948AA" transform="matrix(1.00, 0.00, -0.00, -1.00, 406.1, 10.6)">p</text><text xml:space="preserve" font-family="HelveticaNeue-Light,Helvetica Neue" font-size="35.0" fill="#0948AA" transform="matrix(1.00, 0.00, -0.00, -1.00, 426.2, 10.6)">t</text><text xml:space="preserve" font-family="HelveticaNeue-Light,Helvetica Neue" font-size="35.0" fill="#0948AA" transform="matrix(1.00, 0.00, -0.00, -1.00, 436.6, 10.6)">i</text><text xml:space="preserve" font-family="HelveticaNeue-Light,Helvetica Neue" font-size="35.0" fill="#0948AA" transform="matrix(1.00, 0.00, -0.00, -1.00, 443.1, 10.6)">v</text><text xml:space="preserve" font-family="HelveticaNeue-Light,Helvetica Neue" font-size="35.0" fill="#0948AA" transform="matrix(1.00, 0.00, -0.00, -1.00, 459.3, 10.6)">e</text><text xml:space="preserve" font-family="HelveticaNeue-Light,Helvetica Neue" font-size="35.0" fill="#0948AA" transform="matrix(1.00, 0.00, -0.00, -1.00, 477.4, 10.6)"> </text><text xml:space="preserve" font-family="HelveticaNeue-Light,Helvetica Neue" font-size="35.0" fill="#0948AA" transform="matrix(1.00, 0.00, -0.00, -1.00, 487.2, 10.6)">i</text><text xml:space="preserve" font-family="HelveticaNeue-Light,Helvetica Neue" font-size="35.0" fill="#0948AA" transform="matrix(1.00, 0.00, -0.00, -1.00, 493.6, 10.6)">n</text><text xml:space="preserve" font-family="HelveticaNeue-Light,Helvetica Neue" font-size="35.0" fill="#0948AA" transform="matrix(1.00, 0.00, -0.00, -1.00, 512.4, 10.6)">n</text><text xml:space="preserve" font-family="HelveticaNeue-Light,Helvetica Neue" font-size="35.0" fill="#0948AA" transform="matrix(1.00, 0.00, -0.00, -1.00, 531.2, 10.6)">o</text><text xml:space="preserve" font-family="HelveticaNeue-Light,Helvetica Neue" font-size="35.0" fill="#0948AA" transform="matrix(1.00, 0.00, -0.00, -1.00, 550.7, 10.6)">v</text><text xml:space="preserve" font-family="HelveticaNeue-Light,Helvetica Neue" font-size="35.0" fill="#0948AA" transform="matrix(1.00, 0.00, -0.00, -1.00, 566.9, 10.6)">a</text><text xml:space="preserve" font-family="HelveticaNeue-Light,Helvetica Neue" font-size="35.0" fill="#0948AA" transform="matrix(1.00, 0.00, -0.00, -1.00, 585.0, 10.6)">t</text><text xml:space="preserve" font-family="HelveticaNeue-Light,Helvetica Neue" font-size="35.0" fill="#0948AA" transform="matrix(1.00, 0.00, -0.00, -1.00, 595.4, 10.6)">i</text><text xml:space="preserve" font-family="HelveticaNeue-Light,Helvetica Neue" font-size="35.0" fill="#0948AA" transform="matrix(1.00, 0.00, -0.00, -1.00, 601.9, 10.6)">o</text><text xml:space="preserve" font-family="HelveticaNeue-Light,Helvetica Neue" font-size="35.0" fill="#0948AA" transform="matrix(1.00, 0.00, -0.00, -1.00, 621.3, 10.6)">n</text></g></svg>